<svg width="36" height="36" viewBox="0 0 36 36" fill="none" xmlns="http://www.w3.org/2000/svg">
<path d="M36 27C36 28.0609 35.5786 29.0783 34.8284 29.8284C34.0783 30.5786 33.0609 31 32 31H4C2.93913 31 1.92172 30.5786 1.17157 29.8284C0.421427 29.0783 0 28.0609 0 27V9C0 7.93913 0.421427 6.92172 1.17157 6.17157C1.92172 5.42143 2.93913 5 4 5H32C33.0609 5 34.0783 5.42143 34.8284 6.17157C35.5786 6.92172 36 7.93913 36 9V27Z" fill="#00AFCA"/>
<path d="M19.035 19.378C20.6173 19.378 21.9 18.0953 21.9 16.513C21.9 14.9307 20.6173 13.648 19.035 13.648C17.4527 13.648 16.17 14.9307 16.17 16.513C16.17 18.0953 17.4527 19.378 19.035 19.378Z" fill="#FFCC4D"/>
<path d="M19.037 13.432C19.207 13.43 19.269 13.323 19.269 13.196C19.269 13.026 19.037 11.7 19.037 11.7C19.037 11.7 18.801 13.026 18.801 13.196C18.801 13.323 18.865 13.432 19.037 13.432ZM19.037 19.61C18.865 19.611 18.801 19.718 18.801 19.845C18.801 20.016 19.037 21.324 19.037 21.324C19.037 21.324 19.269 20.015 19.269 19.845C19.27 19.719 19.207 19.61 19.037 19.61ZM18.236 19.489C18.071 19.447 17.984 19.534 17.951 19.657C17.907 19.821 17.788 21.163 17.788 21.163C17.788 21.163 18.359 19.942 18.403 19.778C18.437 19.655 18.402 19.533 18.236 19.489V19.489ZM19.836 13.521C20.002 13.565 20.092 13.477 20.125 13.355C20.169 13.19 20.279 11.865 20.279 11.865C20.279 11.865 19.717 13.068 19.672 13.234C19.639 13.356 19.671 13.477 19.836 13.521V13.521ZM17.493 19.179C17.344 19.096 17.237 19.157 17.174 19.268C17.089 19.415 16.627 20.68 16.627 20.68C16.627 20.68 17.494 19.649 17.579 19.502C17.643 19.391 17.642 19.265 17.493 19.179V19.179ZM20.582 13.828C20.731 13.914 20.841 13.852 20.904 13.742C20.99 13.594 21.439 12.344 21.439 12.344C21.439 12.344 20.583 13.361 20.497 13.508C20.435 13.618 20.435 13.743 20.582 13.828ZM16.855 18.69C16.733 18.571 16.614 18.602 16.524 18.692C16.404 18.813 15.63 19.915 15.63 19.915C15.63 19.915 16.735 19.143 16.855 19.024C16.945 18.934 16.977 18.81 16.855 18.69V18.69ZM21.224 14.32C21.346 14.441 21.467 14.41 21.557 14.32C21.678 14.2 22.436 13.107 22.436 13.107C22.436 13.107 21.347 13.869 21.227 13.99C21.137 14.08 21.104 14.2 21.224 14.32V14.32ZM16.367 18.051C16.28 17.905 16.157 17.905 16.046 17.968C15.898 18.053 14.866 18.917 14.866 18.917C14.866 18.917 16.133 18.459 16.28 18.374C16.391 18.31 16.453 18.2 16.367 18.051V18.051ZM21.717 14.962C21.804 15.111 21.93 15.112 22.039 15.049C22.187 14.963 23.202 14.105 23.202 14.105C23.202 14.105 21.953 14.558 21.805 14.643C21.695 14.707 21.633 14.814 21.717 14.962ZM16.06 17.308C16.014 17.144 15.894 17.112 15.771 17.144C15.607 17.188 14.386 17.756 14.386 17.756C14.386 17.756 15.728 17.641 15.892 17.597C16.015 17.563 16.104 17.474 16.06 17.308V17.308ZM22.026 15.708C22.072 15.874 22.192 15.908 22.315 15.875C22.48 15.831 23.683 15.265 23.683 15.265C23.683 15.265 22.359 15.379 22.193 15.423C22.071 15.455 21.982 15.544 22.026 15.708ZM15.955 16.511C15.953 16.341 15.846 16.279 15.719 16.279C15.549 16.279 14.223 16.511 14.223 16.511C14.223 16.511 15.549 16.747 15.719 16.747C15.846 16.747 15.955 16.683 15.955 16.511ZM22.133 16.511C22.134 16.683 22.241 16.747 22.368 16.747C22.539 16.747 23.847 16.511 23.847 16.511C23.847 16.511 22.538 16.279 22.368 16.279C22.241 16.278 22.133 16.341 22.133 16.511ZM16.06 15.714C16.102 15.549 16.015 15.462 15.892 15.429C15.728 15.385 14.386 15.266 14.386 15.266C14.386 15.266 15.607 15.837 15.771 15.881C15.894 15.914 16.016 15.88 16.06 15.714ZM22.027 17.313C21.983 17.479 22.071 17.569 22.193 17.602C22.358 17.646 23.683 17.756 23.683 17.756C23.683 17.756 22.48 17.193 22.314 17.149C22.192 17.117 22.071 17.148 22.027 17.313V17.313ZM16.368 14.971C16.451 14.823 16.39 14.715 16.279 14.652C16.132 14.567 14.867 14.105 14.867 14.105C14.867 14.105 15.898 14.972 16.045 15.057C16.156 15.121 16.282 15.119 16.368 14.971V14.971ZM21.719 18.06C21.633 18.209 21.695 18.319 21.805 18.382C21.952 18.468 23.203 18.917 23.203 18.917C23.203 18.917 22.186 18.062 22.039 17.976C21.929 17.913 21.804 17.913 21.719 18.06V18.06ZM16.857 14.333C16.976 14.211 16.945 14.092 16.855 14.002C16.734 13.882 15.632 13.108 15.632 13.108C15.632 13.108 16.404 14.213 16.523 14.333C16.613 14.423 16.736 14.455 16.857 14.333ZM21.227 18.702C21.106 18.824 21.137 18.946 21.227 19.035C21.347 19.156 22.44 19.914 22.44 19.914C22.44 19.914 21.678 18.825 21.557 18.704C21.467 18.614 21.347 18.581 21.227 18.702V18.702ZM17.497 13.844C17.642 13.757 17.643 13.634 17.58 13.523C17.495 13.376 16.631 12.343 16.631 12.343C16.631 12.343 17.089 13.61 17.174 13.757C17.237 13.868 17.348 13.93 17.497 13.844V13.844ZM20.586 19.195C20.438 19.281 20.436 19.406 20.499 19.516C20.585 19.664 21.443 20.679 21.443 20.679C21.443 20.679 20.99 19.429 20.905 19.281C20.841 19.172 20.733 19.109 20.586 19.195V19.195ZM18.239 13.537C18.403 13.491 18.435 13.371 18.403 13.248C18.359 13.084 17.791 11.863 17.791 11.863C17.791 11.863 17.906 13.205 17.95 13.369C17.983 13.492 18.073 13.581 18.239 13.537V13.537ZM19.839 19.504C19.673 19.55 19.639 19.67 19.672 19.793C19.716 19.958 20.282 21.161 20.282 21.161C20.282 21.161 20.168 19.836 20.124 19.672C20.092 19.549 20.003 19.46 19.839 19.504V19.504Z" fill="#FFCC4D"/>
<path d="M21.846 23.645L21.809 23.661L21.768 23.667L21.737 23.673L21.68 23.661L21.655 23.651L21.632 23.64L21.605 23.623L21.56 23.591L21.519 23.558L21.496 23.542L21.467 23.53L21.447 23.525H21.418L21.305 23.76L21.282 23.793L21.26 23.82L21.237 23.837L21.217 23.854L21.188 23.865H21.161L21.136 23.854L21.101 23.837L21.091 23.82L21.079 23.803L21.067 23.781L21.055 23.755L21.039 23.672L21.006 23.699L20.975 23.738L20.913 23.832L20.876 23.881L20.837 23.919L20.816 23.942L20.789 23.959L20.762 23.971L20.729 23.981H20.713L20.684 23.987L20.657 23.981L20.636 23.971L20.572 23.894L20.5 23.817L20.451 23.894L20.394 23.959L20.367 23.986L20.342 24.013L20.315 24.035L20.264 24.063L20.237 24.069H20.21L20.187 24.063L20.165 24.051L20.149 24.034L20.128 24.008C20.1141 23.9673 20.0991 23.9269 20.083 23.887L20.077 23.859L20.067 23.838L20.055 23.827H20.043L19.895 24.069L19.874 24.09L19.835 24.107L19.749 24.128H19.698L19.659 24.117L19.647 24.111L19.631 24.094L19.627 24.084V24.062L19.647 23.82L19.631 23.826L19.588 23.847C19.5486 23.888 19.5103 23.9301 19.473 23.973L19.424 24.034L19.363 24.085L19.306 24.128L19.274 24.146L19.208 24.156L19.181 24.15L19.169 24.146L19.158 24.134L19.152 24.117V24.1L19.158 24.03L19.175 23.919L19.164 23.854L19.141 23.816L19.108 23.865L19.054 23.936C19.009 23.985 18.963 24.033 18.916 24.08C18.8897 24.0974 18.864 24.1158 18.839 24.135L18.779 24.156L18.767 24.15H18.75L18.738 24.14L18.734 24.134L18.722 24.117L18.718 24.1V24.079L18.712 24.051L18.718 23.843C18.618 23.911 18.517 23.977 18.415 24.04L18.377 24.057L18.334 24.079C18.293 24.089 18.253 24.099 18.213 24.111H18.173L18.136 24.106L18.102 24.094L18.119 24.05L18.152 23.973L18.173 23.941L18.197 23.908L18.218 23.875L18.274 23.82L18.335 23.777L18.405 23.732L18.477 23.699L18.56 23.672L18.642 23.651L18.829 23.618L18.922 23.606C19.198 23.59 19.475 23.588 19.751 23.59L20.054 23.573L20.148 23.562L20.322 23.529L20.406 23.506L20.484 23.474L20.556 23.441C20.594 23.411 20.633 23.381 20.673 23.353L20.726 23.291L20.669 23.182L20.714 23.176L20.757 23.166L20.802 23.144L20.839 23.116L20.855 23.106L20.873 23.089L20.885 23.067L20.897 23.051L20.901 23.029V22.991L20.889 22.969L20.983 22.952L21.083 22.941L21.188 22.935H21.297C21.45 22.941 21.602 22.95 21.754 22.962C21.984 22.99 22.215 23.012 22.446 23.034L22.653 23.045V23.121L22.649 23.155L22.637 23.187L22.627 23.22L22.615 23.247L22.599 23.269C22.58 23.291 22.559 23.313 22.538 23.334L22.489 23.366L22.436 23.388L22.383 23.4L22.322 23.411L22.205 23.4L22.144 23.383L22.091 23.355L22.034 23.328L21.991 23.289L21.948 23.246V23.34C21.94 23.401 21.93 23.461 21.921 23.522L21.9 23.579L21.888 23.602L21.872 23.618L21.86 23.635L21.846 23.645V23.645ZM17.428 23.128L17.553 23.183C17.578 23.1621 17.6037 23.1421 17.63 23.123L17.679 23.097L17.723 23.069L17.888 23.003L18.03 22.937L18.102 22.91L18.224 22.845L18.273 22.811C18.397 22.73 18.522 22.65 18.647 22.571L18.756 22.494L18.839 22.428C18.921 22.354 19.001 22.279 19.081 22.203L19.114 22.181L19.152 22.159C19.1975 22.136 19.2435 22.114 19.29 22.093L19.383 22.061C19.569 22.01 19.758 21.97 19.948 21.94C20.142 21.917 20.336 21.891 20.53 21.869L20.788 21.825C20.852 21.807 20.916 21.791 20.981 21.776L21.047 21.693L21.153 21.578L21.225 21.507L21.305 21.44L21.399 21.369L21.508 21.297L21.674 21.199C21.793 21.139 21.911 21.079 22.029 21.017C22.239 20.919 22.446 20.815 22.652 20.709L22.75 20.643L22.777 20.56L22.816 20.479L22.865 20.396L22.992 20.226C23.05 20.164 23.106 20.102 23.162 20.038C23.23 19.972 23.3 19.908 23.371 19.846L23.477 19.759L23.53 19.72L23.587 19.682C23.627 19.659 23.667 19.637 23.708 19.616L23.769 19.588L23.828 19.567L23.957 19.533L24.021 19.529L24.082 19.523L24.146 19.529L24.207 19.539L24.203 19.605L24.187 19.67L24.138 19.808L24.097 19.879L24.048 19.951L23.988 20.027L23.916 20.104L23.973 20.098L24.022 20.087L24.061 20.075L24.098 20.059L24.17 20.037L24.273 20.026L24.279 20.065V20.103L24.273 20.141L24.263 20.174L24.247 20.207L24.224 20.24L24.203 20.266L24.176 20.294C24.1005 20.3669 24.0234 20.4382 23.945 20.508L24.01 20.514C24.058 20.529 24.106 20.544 24.155 20.557L24.208 20.569L24.144 20.619C24.0933 20.6529 24.0419 20.6859 23.99 20.718L23.814 20.817L23.726 20.872L23.638 20.933L23.556 20.999L23.593 21.004L23.644 21.026L23.666 21.032L23.687 21.043L23.705 21.048L23.721 21.043L23.612 21.104C23.5439 21.136 23.4762 21.169 23.409 21.203L23.325 21.253L23.309 21.27L23.299 21.287L23.287 21.303L23.291 21.325L23.303 21.342L23.324 21.358L23.344 21.376L23.336 21.397L23.324 21.415L23.303 21.431L23.283 21.448L23.23 21.474L23.166 21.502L23.041 21.546L22.963 21.585L23.072 21.694L23.033 21.732L22.996 21.76L22.963 21.777L22.924 21.793L22.848 21.804H22.74L22.752 21.854L22.768 21.903L22.791 22.014C22.7228 22.067 22.6531 22.118 22.582 22.167L22.455 22.249L22.314 22.331L22.23 22.37L22.148 22.408C22.0554 22.444 21.9617 22.477 21.867 22.507L21.654 22.552L21.537 22.569C21.664 22.573 21.791 22.575 21.918 22.574L22.23 22.541L22.367 22.514L22.488 22.481C22.568 22.454 22.646 22.424 22.724 22.393L22.876 22.323L23.026 22.24L23.167 22.151L23.317 22.064L23.227 22.02L23.141 21.993L23.1 21.974C23.069 21.959 23.038 21.944 23.006 21.931L22.955 21.903L22.998 21.871L23.051 21.849L23.108 21.828C23.174 21.812 23.241 21.797 23.307 21.783C23.393 21.774 23.479 21.763 23.565 21.751L23.674 21.74L23.758 21.719L23.78 21.707L23.796 21.69L23.792 21.684L23.78 21.673L23.764 21.667L23.743 21.657L23.682 21.645L23.604 21.634L23.528 21.628L23.452 21.617L23.384 21.6L23.343 21.583L23.88 21.463L23.974 21.435C24.015 21.42 24.055 21.403 24.095 21.386L24.148 21.352L24.171 21.331L24.165 21.326L24.155 21.314L24.104 21.303L24.034 21.297H23.95C23.893 21.293 23.837 21.289 23.78 21.287L23.71 21.275L23.665 21.264L23.743 21.232C23.859 21.196 23.977 21.163 24.095 21.132C24.162 21.109 24.23 21.086 24.298 21.066L24.402 21.022L24.451 20.995L24.496 20.968L24.512 20.951L24.529 20.929L24.545 20.913L24.551 20.896L24.545 20.879L24.529 20.867L24.512 20.863H24.36L24.288 20.867H24.19L24.161 20.863L24.142 20.851L24.118 20.84C24.318 20.708 24.52 20.577 24.723 20.449L24.881 20.339C24.9236 20.3037 24.9653 20.2674 25.006 20.23L25.055 20.175L25.1 20.12L25.133 20.06L25.16 20L25.176 19.933V19.862H25.139L25.1 19.868L25.014 19.9C24.9378 19.9479 24.8605 19.9939 24.782 20.038L24.739 20.066L24.688 20.087L24.639 20.104L24.594 20.115L24.551 20.121H24.5L24.457 20.104L24.59 20.005C24.697 19.914 24.803 19.822 24.908 19.73C25.0241 19.6191 25.1374 19.5054 25.248 19.389L25.406 19.213C25.453 19.151 25.501 19.091 25.55 19.031C25.589 18.975 25.628 18.918 25.665 18.861L25.677 18.84L25.681 18.823L25.677 18.8L25.671 18.784L25.665 18.766L25.649 18.755L25.632 18.738L25.616 18.732L25.595 18.722L25.571 18.716H25.528L25.507 18.722L25.478 18.726L25.462 18.744L25.439 18.761C25.327 18.873 25.216 18.987 25.107 19.102L24.974 19.228C24.8867 19.3041 24.7987 19.3795 24.71 19.454C24.6683 19.4823 24.6259 19.5096 24.583 19.536L24.462 19.597L24.499 19.564C24.539 19.526 24.578 19.488 24.616 19.449C24.757 19.287 24.892 19.119 25.022 18.949L25.276 18.592L25.344 18.472L25.412 18.362L25.467 18.262L25.51 18.168L25.537 18.092L25.543 18.065V18.021L25.537 18.004L25.517 17.971L25.505 17.96L25.487 17.955L25.456 17.937L25.415 17.926H25.34L25.319 17.932L25.303 17.937L25.28 17.949L25.264 17.965L25.219 18.004C25.1697 18.0634 25.122 18.124 25.076 18.186C24.966 18.358 24.85 18.526 24.73 18.691L24.591 18.856L24.521 18.928L24.445 18.994L24.543 18.811L24.697 18.488L24.797 18.252L24.84 18.131L24.916 17.883C24.935 17.803 24.952 17.723 24.967 17.642C24.974 17.567 24.98 17.492 24.985 17.416L24.977 17.361L24.973 17.312L24.967 17.261L24.951 17.197L24.939 17.179L24.912 17.152L24.875 17.136L24.834 17.124H24.797L24.762 17.13L24.752 17.136L24.736 17.14L24.73 17.152C24.631 17.464 24.556 17.782 24.47 18.097C24.438 18.185 24.406 18.273 24.372 18.361L24.29 18.52L24.239 18.591L24.272 18.433C24.288 18.341 24.302 18.25 24.315 18.158L24.338 17.932L24.344 17.838C24.341 17.7903 24.337 17.7426 24.332 17.695L24.322 17.64L24.306 17.596L24.283 17.563L24.271 17.552L24.238 17.541L24.222 17.535H24.204L24.188 17.541L24.143 17.552L24.1 17.574C24.066 17.744 24.025 17.913 23.979 18.08C23.9135 18.2906 23.8368 18.4976 23.749 18.7C23.6897 18.8244 23.6271 18.9471 23.561 19.068L23.44 19.277L23.309 19.474C23.2211 19.597 23.1301 19.7177 23.036 19.836C22.944 19.94 22.85 20.042 22.755 20.144C22.656 20.241 22.555 20.337 22.452 20.431C22.346 20.519 22.239 20.604 22.13 20.688C21.9971 20.7841 21.861 20.8758 21.722 20.963L21.48 21.105L21.095 21.282L20.699 21.424L20.371 21.524L20.031 21.6L19.861 21.628L19.513 21.672L19.337 21.683L19.32 21.689L19.303 21.694L19.27 21.712L19.233 21.738C19.19 21.7755 19.1476 21.8139 19.106 21.853L19.018 21.942L18.699 22.298L18.578 22.419L18.436 22.528L18.38 22.566L18.325 22.6L18.205 22.655C18.019 22.731 17.83 22.8 17.643 22.875L17.594 22.902L17.55 22.925L17.518 22.946L17.457 23.007L17.44 23.034L17.428 23.061L17.424 23.1V23.128" fill="#FFCC4D"/>
<path d="M19.441 23.375L19.533 23.387L19.578 23.404L19.588 23.409V23.415H19.578L19.566 23.42L19.478 23.437H19.408L19.178 23.42L18.595 23.409C18.441 23.411 18.287 23.415 18.133 23.42C17.997 23.43 17.862 23.441 17.726 23.453L17.621 23.47L17.528 23.491C17.506 23.499 17.485 23.507 17.463 23.513L17.435 23.525L17.413 23.542L17.423 23.486L17.447 23.43L17.37 23.452L17.304 23.485L17.278 23.502L17.255 23.524L17.238 23.55L17.234 23.578L17.218 23.54L17.206 23.506C17.2031 23.4822 17.1991 23.4585 17.194 23.435C17.2 23.406 17.206 23.377 17.21 23.348L17.228 23.32L17.238 23.298L17.261 23.272L17.305 23.228L17.365 23.189L17.433 23.151C17.4688 23.172 17.5071 23.1884 17.547 23.2C17.5863 23.2035 17.626 23.1998 17.664 23.189C17.725 23.243 17.883 23.232 17.905 23.134C17.9135 23.0978 17.9135 23.0602 17.905 23.024L17.971 23.019L18.048 23.007L18.218 22.963L18.307 22.946L18.389 22.925L18.466 22.914L18.531 22.908L18.504 22.931L18.361 23.04L18.307 23.078L18.377 23.096L18.438 23.107L18.308 23.255L18.274 23.299L18.317 23.316L18.361 23.328L18.411 23.339H18.51L18.608 23.317L18.647 23.294L18.692 23.317L18.736 23.334C18.764 23.342 18.793 23.35 18.822 23.356C18.89 23.363 18.958 23.371 19.027 23.377H19.441V23.375ZM18.94 21.705L18.891 21.804L18.835 21.931C18.8062 21.9827 18.7792 22.0354 18.754 22.089L18.726 22.117L18.661 22.062L18.589 22.012L18.512 21.973L18.431 21.941L18.254 21.896L18.167 21.88C18.0719 21.869 17.9765 21.86 17.881 21.853C17.7545 21.851 17.6281 21.845 17.502 21.835L17.326 21.814L17.227 21.797L17.134 21.776L17.036 21.742L16.953 21.699L16.892 21.659L16.766 21.566C16.582 21.393 16.4 21.218 16.211 21.049L16.102 20.973L16.052 20.951L16 20.935L15.907 20.914C15.8527 20.8946 15.798 20.8763 15.743 20.859C15.6918 20.8343 15.6401 20.8107 15.588 20.788C15.4973 20.7318 15.4095 20.6711 15.325 20.606L15.27 20.555L15.161 20.446L15.056 20.331C14.883 20.12 14.72 19.902 14.551 19.688C14.4702 19.6022 14.3878 19.5178 14.304 19.435L14.233 19.37L14.161 19.31L14.003 19.195L13.987 19.2L13.969 19.217L13.952 19.239C13.942 19.264 13.934 19.29 13.926 19.316L13.92 19.338L13.88 19.32L13.847 19.303L13.807 19.286L13.774 19.275H13.703L13.664 19.286L13.626 19.303C13.656 19.341 13.685 19.379 13.713 19.418L13.762 19.495L13.851 19.665L13.883 19.748L13.895 19.792L13.907 19.825L13.912 19.863V19.895H13.616L13.659 19.961C13.692 20.006 13.727 20.05 13.762 20.093L13.944 20.275L14.005 20.324L14.061 20.363C14.0134 20.368 13.9657 20.372 13.918 20.375L13.774 20.391L13.823 20.436C13.866 20.466 13.908 20.497 13.95 20.529L14.021 20.578L14.093 20.622L14.164 20.661L14.23 20.683L14.291 20.699L14.34 20.71L14.356 20.716L14.368 20.728L14.372 20.733V20.754L14.356 20.799L14.352 20.831L14.345 20.853V20.869L14.352 20.897L14.356 20.919L14.368 20.929L14.384 20.941L14.405 20.952L14.433 20.958L14.489 20.98L14.516 20.99L14.538 21.007L14.543 21.013V21.024L14.538 21.03L14.494 21.062L14.472 21.084L14.45 21.111V21.134L14.445 21.156L14.456 21.215L14.648 21.281L14.692 21.291L14.736 21.309L14.769 21.326L14.797 21.343L14.615 21.486L14.664 21.53L14.725 21.563L14.802 21.601C14.857 21.621 14.912 21.639 14.968 21.657L15.05 21.673L15.122 21.69H15.187L15.126 21.734L15.049 21.783L14.967 21.828L14.906 21.872L14.961 21.91C15.128 21.996 15.299 22.076 15.473 22.147C15.777 22.271 16.088 22.379 16.401 22.476C16.471 22.493 16.54 22.511 16.609 22.531L16.697 22.548L16.52 22.531C16.41 22.5168 16.3003 22.5001 16.191 22.481L16.037 22.448L15.734 22.361L15.592 22.311C15.212 22.163 14.841 21.993 14.46 21.849L14.488 21.833L14.565 21.805L14.614 21.794C14.681 21.774 14.746 21.752 14.812 21.728C14.6811 21.7082 14.5507 21.6848 14.421 21.658C14.3538 21.6362 14.2861 21.6158 14.218 21.597L14.179 21.58L14.146 21.563L14.119 21.545L14.101 21.529V21.524L14.107 21.518L14.124 21.512L14.14 21.501L14.184 21.484L14.376 21.428L14.487 21.39C14.328 21.36 14.168 21.333 14.008 21.308L13.931 21.29L13.87 21.269L13.848 21.257L13.827 21.24L13.809 21.23L13.798 21.212L13.815 21.201L13.864 21.19C13.915 21.182 13.967 21.173 14.018 21.163L14.106 21.152C14.156 21.138 14.205 21.123 14.254 21.107L14.277 21.091L14.299 21.073L14.212 21.04L14.156 21.03L14.101 21.018L13.849 20.985L13.783 20.969L13.722 20.957L13.601 20.914L13.545 20.886L13.5 20.854L13.456 20.815L13.423 20.766L13.435 20.76L13.456 20.754H13.484L13.528 20.76L13.737 20.771L13.859 20.783H14.012L14.055 20.777L14.089 20.766L14.111 20.754C14.0075 20.7119 13.9049 20.6679 13.803 20.622C13.7356 20.5878 13.6676 20.5548 13.599 20.523L13.391 20.414L13.292 20.353C13.231 20.3099 13.1707 20.2659 13.111 20.221L13.034 20.155L13 20.117L12.966 20.084L12.945 20.051L12.922 20.012L12.9 19.98L12.888 19.942L12.879 19.871H12.916L12.96 19.876L13.004 19.894L13.048 19.91L13.135 19.965L13.234 20.02L13.278 20.048L13.327 20.074L13.376 20.096L13.42 20.113L13.469 20.125L13.513 20.13H13.563L13.606 20.113L13.476 20.013C13.3683 19.9236 13.262 19.8326 13.157 19.74C12.983 19.5743 12.8158 19.4015 12.656 19.222L12.586 19.129L12.514 19.041C12.4745 18.9846 12.4359 18.9275 12.398 18.87L12.388 18.848V18.81L12.393 18.793L12.398 18.777L12.415 18.766L12.431 18.749L12.449 18.737L12.47 18.731L12.492 18.727H12.536L12.563 18.731L12.587 18.737L12.608 18.754C12.727 18.872 12.844 18.991 12.959 19.112C13.086 19.234 13.218 19.352 13.355 19.464L13.481 19.545L13.546 19.579L13.607 19.6L13.564 19.573L13.449 19.458C13.308 19.296 13.174 19.128 13.042 18.958C12.9839 18.8781 12.9269 18.7975 12.871 18.716C12.8212 18.6364 12.7698 18.5577 12.717 18.48C12.6751 18.4112 12.6348 18.3416 12.596 18.271C12.5737 18.2139 12.5504 18.1572 12.526 18.101L12.519 18.074V18.029L12.526 18.013L12.547 17.98L12.559 17.968L12.576 17.958L12.647 17.935H12.724L12.746 17.94L12.762 17.946L12.784 17.958L12.845 18.013L12.988 18.195C13.1 18.367 13.218 18.535 13.34 18.7L13.47 18.865L13.542 18.936L13.619 19.002C13.5314 18.8358 13.4474 18.6678 13.367 18.498C13.333 18.4198 13.3 18.3411 13.268 18.262L13.224 18.141C13.2008 18.0576 13.1751 17.9749 13.147 17.893L13.12 17.772L13.1 17.649L13.088 17.534L13.083 17.425L13.088 17.37L13.095 17.32L13.1 17.27L13.111 17.221L13.122 17.203L13.128 17.187L13.144 17.169L13.155 17.159L13.193 17.142L13.232 17.132H13.27L13.303 17.138L13.319 17.142L13.331 17.148L13.337 17.16L13.343 17.176C13.437 17.483 13.514 17.795 13.595 18.106C13.627 18.193 13.66 18.279 13.695 18.364L13.733 18.446L13.777 18.523L13.826 18.6L13.794 18.44C13.7814 18.3487 13.7668 18.2577 13.75 18.167C13.739 18.0608 13.73 17.9545 13.723 17.848L13.734 17.705L13.745 17.649L13.762 17.606L13.784 17.573L13.795 17.561L13.811 17.55L13.827 17.545H13.877L13.922 17.561L13.965 17.583L14.042 17.929C14.07 18.034 14.101 18.139 14.135 18.242C14.191 18.399 14.252 18.555 14.317 18.709L14.394 18.868L14.504 19.078L14.624 19.286L14.757 19.484L14.899 19.681L15.032 19.846C15.124 19.95 15.217 20.053 15.312 20.154C15.411 20.251 15.512 20.346 15.615 20.439L15.774 20.572C15.92 20.686 16.07 20.794 16.225 20.896C16.346 20.968 16.469 21.038 16.593 21.105L16.971 21.287C17.163 21.363 17.357 21.433 17.553 21.495C17.745 21.546 17.94 21.59 18.136 21.627C18.399 21.669 18.669 21.694 18.94 21.705" fill="#FFCC4D"/>
<path d="M3.45699 28.522C3.45699 28.522 3.21999 28.719 3.13999 28.62C3.01099 28.46 3.53699 27.661 3.53699 27.379C3.53699 26.918 3.22799 26.79 2.84799 26.725C2.59199 26.681 2.17699 26.744 2.17699 26.744C2.25499 26.849 2.30599 26.882 2.43799 26.888C2.34704 26.9358 2.27119 27.008 2.21891 27.0965C2.16664 27.185 2.14001 27.2863 2.14199 27.389C2.14199 27.785 2.30599 27.949 2.30599 28.398C2.30599 28.647 2.10199 28.963 2.10199 28.963C2.46199 28.927 2.64199 28.594 2.53999 28.326C2.56755 28.3208 2.59594 28.3224 2.62275 28.3306C2.64957 28.3388 2.67401 28.3533 2.69399 28.373C2.71999 28.3 2.67899 28.213 2.62299 28.14C2.66799 28.117 2.70099 28.131 2.77199 28.145C2.76499 28.069 2.71899 27.989 2.60799 27.913C2.93199 27.996 3.13099 27.771 3.13099 27.535C3.13099 27.355 3.00599 27.227 2.88299 27.227C2.8364 27.2285 2.79111 27.2427 2.75199 27.268C2.72899 27.22 2.74099 27.154 2.76399 27.105C2.67499 27.128 2.61799 27.181 2.65899 27.293C2.62849 27.2935 2.59843 27.3003 2.57071 27.3131C2.54299 27.3258 2.51823 27.3442 2.49799 27.367C2.51712 27.391 2.54172 27.4101 2.56973 27.4226C2.59775 27.4351 2.62835 27.4407 2.65899 27.439C2.60899 27.543 2.66499 27.602 2.74599 27.648C2.74599 27.648 2.69399 27.439 2.82699 27.439C2.88699 27.439 2.94099 27.46 2.94099 27.547C2.94099 27.622 2.87399 27.728 2.71999 27.722C2.56499 27.715 2.43999 27.615 2.43999 27.37C2.43999 27.141 2.62299 27.028 2.86399 27.021C3.08199 27.014 3.24599 27.132 3.24599 27.357C3.24599 27.655 2.81399 28.337 2.81399 28.603C2.81399 28.803 2.99299 28.914 3.16899 28.914C3.39699 28.914 3.58899 28.688 3.58899 28.688L3.45699 28.522V28.522ZM3.40699 23.12C3.40699 22.622 3.85499 22.365 4.20699 22.365C4.68099 22.365 4.93399 22.649 4.93399 23.019C4.93399 23.231 4.89499 23.363 4.79799 23.564L3.71099 25.821C3.6712 25.9158 3.65375 26.0184 3.65999 26.121C3.65999 26.323 3.85699 26.489 4.06299 26.494C4.24999 26.499 4.45499 26.319 4.45499 26.114C4.45499 25.865 4.32699 25.755 4.19399 25.755C4.03099 25.755 3.96599 25.821 3.96599 25.936C3.96599 26.017 4.00499 26.051 4.05999 26.051C4.19999 26.051 4.16099 25.863 4.16099 25.863C4.17962 25.8669 4.19717 25.8748 4.2124 25.8862C4.22763 25.8976 4.24017 25.9122 4.24914 25.929C4.2581 25.9458 4.26328 25.9644 4.26429 25.9834C4.2653 26.0024 4.26212 26.0214 4.25499 26.039C4.30736 26.05 4.35474 26.0777 4.38999 26.118C4.35398 26.1564 4.3067 26.1823 4.25499 26.192C4.28799 26.3 4.24399 26.353 4.14999 26.376C4.16619 26.3396 4.17073 26.2991 4.16299 26.26C4.01399 26.302 3.78599 26.236 3.78599 25.978C3.78599 25.722 3.96299 25.507 4.29599 25.56C4.21599 25.524 4.17699 25.447 4.16899 25.359C4.22899 25.384 4.29599 25.387 4.29599 25.387C4.25699 25.319 4.20299 25.26 4.20499 25.124C4.26699 25.153 4.32399 25.204 4.40299 25.171C4.27899 24.928 4.43099 24.594 4.81899 24.513C4.68728 24.6562 4.61226 24.8425 4.60799 25.037C4.60799 25.617 4.76999 25.713 4.76999 26.115C4.76731 26.2087 4.74254 26.3005 4.69771 26.3829C4.65288 26.4652 4.58925 26.5359 4.51199 26.589V26.582C4.62399 26.612 4.69699 26.669 4.73899 26.744C4.47999 26.817 4.10299 26.816 3.90199 26.737C3.81088 26.7238 3.72385 26.6905 3.64722 26.6395C3.5706 26.5884 3.5063 26.521 3.45899 26.442C3.41011 26.3293 3.38489 26.2078 3.38489 26.085C3.38489 25.9622 3.41011 25.8407 3.45899 25.728C3.61299 25.407 4.33899 23.868 4.56499 23.383C4.61484 23.2801 4.64115 23.1674 4.64199 23.053C4.64199 22.758 4.37099 22.654 4.21699 22.654C4.03199 22.654 3.84399 22.796 3.84399 22.97C3.84399 23.082 3.90499 23.148 3.99099 23.148C4.19999 23.148 4.18699 22.971 4.14499 22.859C4.27399 22.919 4.34999 23.021 4.32899 23.131C4.40299 23.141 4.47299 23.176 4.53699 23.248C4.48599 23.314 4.42399 23.362 4.32899 23.363C4.37099 23.533 4.25699 23.605 4.14499 23.644C4.17999 23.52 4.20299 23.375 3.99099 23.375C3.83599 23.375 3.71399 23.348 3.64299 23.247C3.63799 23.382 3.62499 23.912 3.62499 23.912C3.61699 24.112 3.89199 24.106 4.06699 24.047C3.99999 24.277 3.86499 24.402 3.54999 24.37C3.59823 24.3886 3.63943 24.4218 3.66778 24.4651C3.69612 24.5083 3.71019 24.5593 3.70799 24.611C3.70799 24.799 3.55599 25.006 3.45699 25.068L3.40699 23.12V23.12Z" fill="#FFCC4D"/>
<path d="M3.50594 23.12C3.50594 22.622 3.05794 22.365 2.70594 22.365C2.23194 22.365 1.97894 22.649 1.97894 23.019C1.97894 23.231 2.01794 23.363 2.11494 23.564L3.20194 25.821C3.24139 25.9158 3.25849 26.0185 3.25194 26.121C3.25194 26.323 3.05494 26.489 2.84994 26.494C2.66194 26.499 2.45794 26.319 2.45794 26.114C2.45794 25.865 2.58594 25.755 2.71894 25.755C2.88194 25.755 2.94694 25.821 2.94694 25.936C2.94694 26.017 2.90794 26.051 2.85294 26.051C2.71294 26.051 2.75194 25.863 2.75194 25.863C2.73331 25.8669 2.71576 25.8748 2.70053 25.8862C2.6853 25.8976 2.67276 25.9122 2.66379 25.929C2.65483 25.9458 2.64966 25.9644 2.64865 25.9834C2.64764 26.0024 2.65081 26.0214 2.65794 26.039C2.60557 26.05 2.5582 26.0777 2.52294 26.118C2.55895 26.1564 2.60623 26.1823 2.65794 26.192C2.62594 26.3 2.66994 26.353 2.76394 26.375C2.74774 26.3386 2.7432 26.2981 2.75094 26.259C2.89994 26.301 3.12794 26.235 3.12794 25.977C3.12794 25.721 2.95094 25.506 2.61894 25.559C2.69794 25.523 2.73794 25.446 2.74494 25.358C2.70462 25.3737 2.66213 25.3832 2.61894 25.386C2.65694 25.318 2.71094 25.259 2.70894 25.123C2.64694 25.152 2.59094 25.203 2.51094 25.17C2.63494 24.927 2.48294 24.593 2.09494 24.512C2.22665 24.6552 2.30167 24.8415 2.30594 25.036C2.30594 25.616 2.14494 25.712 2.14494 26.114C2.14494 26.282 2.23194 26.465 2.40294 26.588V26.581C2.35587 26.5906 2.31134 26.61 2.27224 26.6379C2.23313 26.6658 2.20033 26.7016 2.17594 26.743C2.43494 26.816 2.81094 26.815 3.01294 26.736C3.10405 26.7228 3.19108 26.6895 3.26771 26.6385C3.34433 26.5874 3.40864 26.52 3.45594 26.441C3.50482 26.3283 3.53005 26.2068 3.53005 26.084C3.53005 25.9612 3.50482 25.8397 3.45594 25.727C3.30194 25.406 2.57594 23.867 2.34994 23.382C2.30009 23.2791 2.27379 23.1664 2.27294 23.052C2.27294 22.757 2.54394 22.653 2.69794 22.653C2.88294 22.653 3.07094 22.795 3.07094 22.969C3.07094 23.081 3.00994 23.147 2.92394 23.147C2.71494 23.147 2.72794 22.97 2.76894 22.858C2.63994 22.918 2.56394 23.02 2.58494 23.13C2.50366 23.1423 2.42968 23.1839 2.37694 23.247C2.42794 23.313 2.48994 23.361 2.58494 23.362C2.54294 23.532 2.65694 23.604 2.76894 23.643C2.73394 23.519 2.71094 23.374 2.92394 23.374C3.07894 23.374 3.20094 23.347 3.27194 23.246L3.28994 23.911C3.29794 24.111 3.02194 24.105 2.84694 24.046C2.91294 24.275 3.04894 24.4 3.36294 24.368C3.3147 24.3866 3.2735 24.4198 3.24515 24.4631C3.21681 24.5063 3.20274 24.5573 3.20494 24.609C3.20494 24.797 3.35594 25.004 3.45594 25.066L3.50594 23.12V23.12ZM3.45694 28.522C3.45694 28.522 3.69394 28.719 3.77394 28.62C3.90294 28.46 3.37694 27.661 3.37694 27.379C3.37694 26.918 3.68594 26.79 4.06594 26.725C4.32194 26.681 4.73794 26.744 4.73794 26.744C4.65894 26.849 4.60894 26.882 4.47694 26.888C4.56782 26.9359 4.64361 27.0081 4.69587 27.0966C4.74813 27.1851 4.77481 27.2863 4.77294 27.389C4.77294 27.785 4.60894 27.949 4.60894 28.398C4.60894 28.647 4.81294 28.963 4.81294 28.963C4.45294 28.927 4.27294 28.594 4.37494 28.326C4.34739 28.321 4.31904 28.3227 4.29225 28.3309C4.26547 28.339 4.24102 28.3535 4.22094 28.373C4.19494 28.3 4.23694 28.213 4.29194 28.14C4.24694 28.117 4.21394 28.131 4.14294 28.145C4.14994 28.069 4.19494 27.989 4.30694 27.913C3.98294 27.996 3.78394 27.771 3.78394 27.535C3.78394 27.355 3.90894 27.227 4.03194 27.227C4.07194 27.227 4.12994 27.244 4.16294 27.268C4.18594 27.22 4.17394 27.154 4.14994 27.105C4.23994 27.128 4.29594 27.181 4.25594 27.293C4.28643 27.2936 4.31648 27.3004 4.34418 27.3132C4.37189 27.3259 4.39666 27.3442 4.41694 27.367C4.39781 27.391 4.37321 27.4101 4.3452 27.4226C4.31719 27.4351 4.28658 27.4407 4.25594 27.439C4.30594 27.543 4.24994 27.602 4.16894 27.648C4.16894 27.648 4.22094 27.439 4.08794 27.439C4.02794 27.439 3.97394 27.46 3.97394 27.547C3.97394 27.622 4.04094 27.728 4.19494 27.722C4.34894 27.715 4.47394 27.615 4.47394 27.37C4.47394 27.141 4.29094 27.028 4.04994 27.021C3.83194 27.014 3.66794 27.132 3.66794 27.357C3.66794 27.655 4.09994 28.337 4.09994 28.603C4.09994 28.803 3.92094 28.914 3.74494 28.914C3.51694 28.914 3.32494 28.688 3.32494 28.688L3.45694 28.522V28.522ZM3.40694 14.377C3.40694 13.877 3.85494 13.621 4.20694 13.621C4.68094 13.621 4.93394 13.905 4.93394 14.276C4.93394 14.487 4.89494 14.619 4.79794 14.82L3.71094 17.078C3.6711 17.1724 3.65365 17.2747 3.65994 17.377C3.65994 17.58 3.85694 17.745 4.06294 17.751C4.24994 17.755 4.45494 17.575 4.45494 17.371C4.45494 17.123 4.32694 17.012 4.19394 17.012C4.03094 17.012 3.96594 17.079 3.96594 17.194C3.96594 17.273 4.00494 17.308 4.05994 17.308C4.19994 17.308 4.16094 17.12 4.16094 17.12C4.17941 17.1238 4.19683 17.1316 4.21197 17.1428C4.2271 17.1541 4.23959 17.1685 4.24855 17.1851C4.25751 17.2017 4.26273 17.22 4.26383 17.2388C4.26494 17.2576 4.2619 17.2765 4.25494 17.294C4.30736 17.3055 4.3547 17.3335 4.38994 17.374C4.35378 17.4124 4.30661 17.4386 4.25494 17.449C4.28794 17.557 4.24394 17.609 4.14994 17.632C4.16621 17.5956 4.17075 17.5551 4.16294 17.516C4.01394 17.558 3.78594 17.492 3.78594 17.234C3.78594 16.979 3.96294 16.764 4.29594 16.817C4.21594 16.779 4.17694 16.702 4.16894 16.616C4.22894 16.64 4.29594 16.642 4.29594 16.642C4.25694 16.574 4.20294 16.515 4.20494 16.38C4.26694 16.408 4.32394 16.46 4.40294 16.427C4.27894 16.183 4.43094 15.848 4.81894 15.769C4.68754 15.9124 4.61258 16.0986 4.60794 16.293C4.60794 16.872 4.76994 16.969 4.76994 17.372C4.76994 17.54 4.68294 17.722 4.51194 17.846V17.839C4.62194 17.869 4.69394 17.924 4.73694 18C4.47794 18.074 4.10094 18.072 3.89994 17.993C3.8089 17.9796 3.72195 17.9462 3.64535 17.8952C3.56876 17.8442 3.50441 17.7768 3.45694 17.698C3.40805 17.5857 3.38282 17.4645 3.38282 17.342C3.38282 17.2195 3.40805 17.0983 3.45694 16.986C3.61094 16.664 4.33694 15.125 4.56294 14.64C4.61227 14.5369 4.63854 14.4243 4.63994 14.31C4.63994 14.014 4.36894 13.91 4.21494 13.91C4.02994 13.91 3.84194 14.051 3.84194 14.225C3.84194 14.337 3.90294 14.404 3.98894 14.404C4.19794 14.404 4.18494 14.226 4.14294 14.115C4.27194 14.173 4.34794 14.277 4.32694 14.387C4.40094 14.397 4.47094 14.431 4.53494 14.505C4.48394 14.569 4.42194 14.617 4.32694 14.619C4.36894 14.79 4.25494 14.862 4.14294 14.901C4.17794 14.777 4.20094 14.633 3.98894 14.633C3.83394 14.633 3.71194 14.606 3.64094 14.506C3.63594 14.64 3.62294 15.171 3.62294 15.171C3.61494 15.37 3.88994 15.365 4.06494 15.305C3.99994 15.535 3.86494 15.659 3.54994 15.627C3.59827 15.6458 3.6395 15.6792 3.66784 15.7226C3.69618 15.766 3.7102 15.8172 3.70794 15.869C3.70794 16.056 3.55594 16.264 3.45694 16.325L3.40694 14.377V14.377Z" fill="#FFCC4D"/>
<path d="M3.50594 14.377C3.50594 13.877 3.05794 13.621 2.70594 13.621C2.23194 13.621 1.97894 13.905 1.97894 14.276C1.97894 14.487 2.01794 14.619 2.11494 14.82L3.20194 17.078C3.23994 17.157 3.25194 17.246 3.25194 17.377C3.25194 17.58 3.05494 17.745 2.84994 17.751C2.66194 17.755 2.45794 17.575 2.45794 17.371C2.45794 17.123 2.58594 17.012 2.71894 17.012C2.88194 17.012 2.94694 17.079 2.94694 17.194C2.94694 17.273 2.90794 17.308 2.85294 17.308C2.71294 17.308 2.75194 17.12 2.75194 17.12C2.73338 17.1236 2.71586 17.1313 2.70062 17.1425C2.68539 17.1537 2.67282 17.1682 2.66384 17.1848C2.65485 17.2014 2.64966 17.2199 2.64864 17.2387C2.64762 17.2576 2.6508 17.2765 2.65794 17.294C2.60552 17.3055 2.55819 17.3335 2.52294 17.374C2.55911 17.4124 2.60627 17.4386 2.65794 17.449C2.62594 17.557 2.66894 17.609 2.76294 17.632C2.74668 17.5956 2.74213 17.5551 2.74994 17.516C2.89894 17.558 3.12694 17.492 3.12694 17.234C3.12694 16.979 2.94994 16.764 2.61794 16.817C2.69694 16.779 2.73694 16.702 2.74394 16.616C2.68394 16.64 2.61794 16.642 2.61794 16.642C2.65594 16.574 2.70994 16.515 2.70794 16.38C2.64594 16.408 2.58994 16.46 2.50994 16.427C2.63394 16.183 2.48194 15.848 2.09394 15.769C2.22534 15.9124 2.3003 16.0986 2.30494 16.293C2.30494 16.872 2.14394 16.969 2.14394 17.372C2.14394 17.54 2.23094 17.722 2.40194 17.846V17.839C2.29094 17.869 2.21794 17.924 2.17694 18C2.43594 18.074 2.81194 18.072 3.01394 17.993C3.10499 17.9796 3.19193 17.9462 3.26853 17.8952C3.34513 17.8442 3.40947 17.7768 3.45694 17.698C3.50583 17.5857 3.53106 17.4645 3.53106 17.342C3.53106 17.2195 3.50583 17.0983 3.45694 16.986C3.30294 16.664 2.57694 15.125 2.35094 14.64C2.30117 14.5374 2.27487 14.425 2.27394 14.311C2.27394 14.015 2.54494 13.911 2.69894 13.911C2.88394 13.911 3.07194 14.052 3.07194 14.226C3.07194 14.338 3.01094 14.405 2.92494 14.405C2.71594 14.405 2.72894 14.227 2.76994 14.116C2.64094 14.174 2.56494 14.278 2.58594 14.388C2.50429 14.3999 2.43008 14.442 2.37794 14.506C2.42894 14.57 2.49094 14.618 2.58594 14.62C2.54394 14.791 2.65794 14.863 2.76994 14.902C2.73494 14.778 2.71194 14.634 2.92494 14.634C3.07994 14.634 3.20194 14.607 3.27294 14.507L3.28994 15.17C3.29794 15.369 3.02194 15.364 2.84694 15.304C2.91294 15.534 3.04894 15.658 3.36294 15.627C3.31462 15.6458 3.27339 15.6792 3.24505 15.7226C3.21671 15.766 3.20268 15.8172 3.20494 15.869C3.20494 16.056 3.35594 16.264 3.45594 16.325L3.50594 14.377V14.377Z" fill="#FFCC4D"/>
<path d="M3.50597 12.879C3.50597 13.378 3.05797 13.635 2.70597 13.635C2.23197 13.635 1.97897 13.351 1.97897 12.979C1.97897 12.769 2.01797 12.637 2.11497 12.435L3.20197 10.177C3.2414 10.0825 3.25851 9.98019 3.25197 9.878C3.25197 9.676 3.05497 9.51 2.84997 9.505C2.66197 9.501 2.45797 9.68 2.45797 9.885C2.45797 10.134 2.58597 10.244 2.71897 10.244C2.88197 10.244 2.94697 10.177 2.94697 10.062C2.94697 9.982 2.90797 9.948 2.85297 9.948C2.71297 9.948 2.75197 10.136 2.75197 10.136C2.73338 10.1322 2.71584 10.1244 2.7006 10.1131C2.68537 10.1018 2.67282 10.0873 2.66384 10.0706C2.65487 10.0539 2.64969 10.0354 2.64867 10.0165C2.64766 9.99751 2.65083 9.97858 2.65797 9.961C2.60533 9.9507 2.55773 9.92285 2.52297 9.882C2.55947 9.84427 2.60653 9.81847 2.65797 9.808C2.62597 9.7 2.66997 9.648 2.76397 9.625C2.7477 9.66138 2.74316 9.70192 2.75097 9.741C2.89997 9.699 3.12797 9.767 3.12797 10.023C3.12797 10.278 2.95097 10.493 2.61897 10.44C2.69797 10.478 2.73797 10.555 2.74497 10.641C2.7044 10.6265 2.66198 10.6177 2.61897 10.615C2.65697 10.683 2.71097 10.742 2.70897 10.877C2.64697 10.849 2.59097 10.797 2.51097 10.83C2.63497 11.074 2.48297 11.409 2.09497 11.489C2.22636 11.3452 2.3013 11.1587 2.30597 10.964C2.30597 10.386 2.14497 10.288 2.14497 9.886C2.14497 9.718 2.23197 9.536 2.40297 9.412V9.419C2.35602 9.4091 2.31165 9.38948 2.27273 9.36141C2.23381 9.33334 2.20119 9.29743 2.17697 9.256C2.43597 9.183 2.81197 9.184 3.01397 9.264C3.10517 9.27731 3.19225 9.31078 3.26889 9.36199C3.34552 9.41319 3.40977 9.48084 3.45697 9.56C3.50592 9.6723 3.53118 9.79349 3.53118 9.916C3.53118 10.0385 3.50592 10.1597 3.45697 10.272C3.30297 10.594 2.57697 12.133 2.35097 12.617C2.3011 12.7196 2.2748 12.832 2.27397 12.946C2.27397 13.243 2.54497 13.346 2.69897 13.346C2.88397 13.346 3.07197 13.205 3.07197 13.03C3.07197 12.919 3.01097 12.851 2.92497 12.851C2.71597 12.851 2.72897 13.028 2.76997 13.14C2.64097 13.082 2.56497 12.978 2.58597 12.868C2.50445 12.8557 2.43036 12.8137 2.37797 12.75C2.42897 12.686 2.49097 12.637 2.58597 12.636C2.54397 12.466 2.65797 12.393 2.76997 12.353C2.73497 12.478 2.71197 12.623 2.92497 12.623C3.07997 12.623 3.20197 12.649 3.27297 12.75L3.29097 12.084C3.29897 11.885 3.02297 11.891 2.84797 11.95C2.91397 11.72 3.04997 11.596 3.36397 11.627C3.31565 11.6082 3.27442 11.5748 3.24608 11.5314C3.21774 11.488 3.20371 11.4368 3.20597 11.385C3.20597 11.198 3.35697 10.99 3.45697 10.929L3.50597 12.879V12.879ZM3.50597 21.623C3.50597 22.122 3.05797 22.378 2.70597 22.378C2.23197 22.378 1.97897 22.095 1.97897 21.724C1.97655 21.534 2.0234 21.3465 2.11497 21.18L3.20197 18.922C3.2414 18.8275 3.25851 18.7252 3.25197 18.623C3.25197 18.42 3.05497 18.255 2.84997 18.25C2.66197 18.245 2.45797 18.425 2.45797 18.629C2.45797 18.877 2.58597 18.988 2.71897 18.988C2.88197 18.988 2.94697 18.921 2.94697 18.806C2.94697 18.727 2.90797 18.693 2.85297 18.693C2.71297 18.693 2.75197 18.881 2.75197 18.881C2.73347 18.8771 2.71604 18.8692 2.7009 18.8578C2.68576 18.8465 2.67329 18.832 2.66434 18.8153C2.65539 18.7987 2.65018 18.7802 2.64908 18.7614C2.64798 18.7425 2.65101 18.7236 2.65797 18.706C2.60522 18.6954 2.55763 18.6672 2.52297 18.626C2.55923 18.588 2.6064 18.5621 2.65797 18.552C2.62597 18.443 2.66897 18.391 2.76297 18.368C2.7467 18.4044 2.74216 18.4449 2.74997 18.484C2.89897 18.442 3.12697 18.509 3.12697 18.766C3.12697 19.021 2.94997 19.235 2.61797 19.183C2.69697 19.222 2.73697 19.298 2.74397 19.385C2.68397 19.362 2.61797 19.358 2.61797 19.358C2.65597 19.426 2.70997 19.486 2.70797 19.62C2.64597 19.592 2.58997 19.54 2.50997 19.573C2.63397 19.816 2.48197 20.153 2.09397 20.231C2.22553 20.0877 2.30051 19.9015 2.30497 19.707C2.30497 19.13 2.14397 19.031 2.14397 18.629C2.14397 18.46 2.23097 18.278 2.40197 18.155V18.161C2.29097 18.132 2.21797 18.077 2.17697 18C2.43597 17.927 2.81197 17.928 3.01397 18.008C3.10502 18.0214 3.19196 18.0548 3.26856 18.1058C3.34516 18.1568 3.4095 18.2242 3.45697 18.303C3.50586 18.4153 3.53109 18.5365 3.53109 18.659C3.53109 18.7815 3.50586 18.9027 3.45697 19.015C3.30297 19.337 2.57697 20.876 2.35097 21.361C2.30097 21.4635 2.27466 21.576 2.27397 21.69C2.27397 21.986 2.54497 22.089 2.69897 22.089C2.88397 22.089 3.07197 21.948 3.07197 21.773C3.07197 21.664 3.01097 21.596 2.92497 21.596C2.71597 21.596 2.72897 21.773 2.76997 21.884C2.64097 21.826 2.56497 21.721 2.58597 21.612C2.50437 21.6006 2.43009 21.5588 2.37797 21.495C2.40168 21.4613 2.43272 21.4335 2.46875 21.4136C2.50478 21.3937 2.54486 21.3822 2.58597 21.38C2.54397 21.21 2.65797 21.139 2.76997 21.099C2.73497 21.224 2.71197 21.368 2.92497 21.368C3.07997 21.368 3.20197 21.394 3.27297 21.496L3.29097 20.83C3.29897 20.632 3.02297 20.637 2.84797 20.696C2.91397 20.467 3.04997 20.343 3.36397 20.374C3.31565 20.3552 3.27442 20.3218 3.24608 20.2784C3.21774 20.235 3.20371 20.1838 3.20597 20.132C3.20597 19.945 3.35697 19.738 3.45697 19.676L3.50597 21.623V21.623Z" fill="#FFCC4D"/>
<path d="M3.40697 21.623C3.40697 22.122 3.85497 22.378 4.20697 22.378C4.68097 22.378 4.93397 22.095 4.93397 21.724C4.9364 21.534 4.88954 21.3465 4.79797 21.18L3.71097 18.922C3.67113 18.8276 3.65368 18.7253 3.65997 18.623C3.65997 18.42 3.85697 18.255 4.06297 18.25C4.24997 18.245 4.45497 18.425 4.45497 18.629C4.45497 18.877 4.32697 18.988 4.19397 18.988C4.03097 18.988 3.96597 18.921 3.96597 18.806C3.96597 18.727 4.00497 18.693 4.05997 18.693C4.19997 18.693 4.16097 18.881 4.16097 18.881C4.17948 18.8771 4.19691 18.8692 4.21205 18.8578C4.22718 18.8465 4.23966 18.832 4.24861 18.8153C4.25756 18.7987 4.26277 18.7802 4.26387 18.7614C4.26497 18.7425 4.26193 18.7236 4.25497 18.706C4.30772 18.6954 4.35531 18.6672 4.38997 18.626C4.35371 18.588 4.30655 18.5621 4.25497 18.552C4.28797 18.443 4.24397 18.391 4.14997 18.368C4.16897 18.41 4.16897 18.448 4.16297 18.484C4.01397 18.442 3.78597 18.509 3.78597 18.766C3.78597 19.021 3.96297 19.235 4.29597 19.183C4.21597 19.222 4.17697 19.298 4.16897 19.385C4.22897 19.362 4.29597 19.358 4.29597 19.358C4.25697 19.426 4.20297 19.486 4.20497 19.62C4.26697 19.592 4.32397 19.54 4.40297 19.573C4.27897 19.816 4.43097 20.153 4.81897 20.231C4.68742 20.0877 4.61243 19.9015 4.60797 19.707C4.60797 19.13 4.76997 19.031 4.76997 18.629C4.76745 18.5352 4.74276 18.4434 4.69791 18.361C4.65307 18.2786 4.58935 18.208 4.51197 18.155V18.161C4.55909 18.1515 4.60367 18.1322 4.64279 18.1043C4.68191 18.0763 4.71469 18.0405 4.73897 17.999C4.47997 17.926 4.10297 17.927 3.90197 18.007C3.81093 18.0204 3.72398 18.0538 3.64739 18.1048C3.57079 18.1558 3.50644 18.2232 3.45897 18.302C3.41009 18.4143 3.38486 18.5355 3.38486 18.658C3.38486 18.7805 3.41009 18.9017 3.45897 19.014C3.61297 19.336 4.33897 20.875 4.56497 21.36C4.61297 21.462 4.64197 21.57 4.64197 21.689C4.64197 21.985 4.37097 22.088 4.21697 22.088C4.03197 22.088 3.84397 21.947 3.84397 21.772C3.84397 21.663 3.90497 21.595 3.99097 21.595C4.19997 21.595 4.18697 21.772 4.14497 21.883C4.27397 21.825 4.34997 21.72 4.32897 21.611C4.4107 21.6 4.48512 21.5581 4.53697 21.494C4.51327 21.4603 4.48223 21.4325 4.4462 21.4126C4.41017 21.3927 4.37009 21.3812 4.32897 21.379C4.37097 21.209 4.25697 21.138 4.14497 21.098C4.17997 21.223 4.20297 21.367 3.99097 21.367C3.83597 21.367 3.71397 21.393 3.64297 21.495C3.63797 21.361 3.62497 20.829 3.62497 20.829C3.61697 20.631 3.89197 20.636 4.06697 20.695C3.99997 20.466 3.86497 20.342 3.54997 20.373C3.5983 20.3542 3.63953 20.3208 3.66787 20.2774C3.69621 20.234 3.71024 20.1828 3.70797 20.131C3.70797 19.944 3.55597 19.737 3.45697 19.675L3.40697 21.623V21.623ZM3.45697 7.479C3.45697 7.479 3.69397 7.28 3.77397 7.379C3.90297 7.54 3.37697 8.339 3.37697 8.621C3.37697 9.083 3.68597 9.208 4.06597 9.274C4.32197 9.319 4.73797 9.256 4.73797 9.256C4.65797 9.151 4.60797 9.12 4.47597 9.112C4.56692 9.06468 4.64282 8.99288 4.69512 8.9047C4.74743 8.81653 4.77404 8.7155 4.77197 8.613C4.77197 8.215 4.60797 8.051 4.60797 7.603C4.60797 7.354 4.81197 7.037 4.81197 7.037C4.45197 7.074 4.27197 7.407 4.37397 7.674C4.34657 7.67907 4.31835 7.67744 4.29171 7.66926C4.26507 7.66107 4.24081 7.64658 4.22097 7.627C4.19497 7.701 4.23697 7.787 4.29197 7.861C4.24697 7.885 4.21397 7.87 4.14297 7.855C4.14997 7.932 4.19497 8.012 4.30697 8.088C3.98197 8.004 3.78297 8.23 3.78297 8.467C3.78297 8.646 3.90797 8.773 4.03097 8.773C4.07097 8.773 4.12897 8.757 4.16197 8.732C4.18497 8.781 4.17297 8.847 4.14897 8.896C4.23897 8.873 4.29497 8.819 4.25497 8.708C4.31629 8.7055 4.37415 8.67891 4.41597 8.634C4.39663 8.60993 4.37187 8.59077 4.34372 8.57809C4.31557 8.5654 4.28482 8.55955 4.25397 8.561C4.30397 8.457 4.24797 8.399 4.16697 8.353C4.16697 8.353 4.21897 8.561 4.08597 8.561C4.02597 8.561 3.97197 8.541 3.97197 8.454C3.97197 8.378 4.03897 8.272 4.19297 8.279C4.34697 8.285 4.47197 8.385 4.47197 8.632C4.47197 8.859 4.28897 8.971 4.04797 8.979C3.83097 8.985 3.66697 8.867 3.66697 8.643C3.66697 8.344 4.09897 7.664 4.09897 7.397C4.09897 7.197 3.91997 7.085 3.74397 7.085C3.51597 7.085 3.32397 7.311 3.32397 7.311L3.45697 7.479V7.479Z" fill="#FFCC4D"/>
<path d="M3.45695 7.479C3.45695 7.479 3.21995 7.28 3.13995 7.379C3.00995 7.541 3.53695 8.34 3.53695 8.622C3.53695 9.084 3.22795 9.209 2.84795 9.275C2.59195 9.319 2.17695 9.256 2.17695 9.256C2.25495 9.151 2.30595 9.12 2.43795 9.112C2.34675 9.0649 2.27057 8.99318 2.21808 8.90498C2.16558 8.81678 2.13886 8.71562 2.14095 8.613C2.14095 8.215 2.30495 8.051 2.30495 7.603C2.30495 7.354 2.10095 7.037 2.10095 7.037C2.46095 7.074 2.64095 7.407 2.53895 7.674C2.56651 7.6789 2.59484 7.67719 2.62161 7.66902C2.64838 7.66085 2.67283 7.64645 2.69295 7.627C2.71895 7.701 2.67795 7.787 2.62195 7.861C2.66595 7.885 2.69895 7.87 2.77095 7.855C2.76395 7.932 2.71795 8.012 2.60695 8.088C2.93095 8.004 3.12995 8.23 3.12995 8.467C3.12995 8.646 3.00495 8.773 2.88195 8.773C2.83529 8.77198 2.78987 8.75777 2.75095 8.732C2.72895 8.782 2.74095 8.847 2.76395 8.896C2.67495 8.873 2.61895 8.819 2.65895 8.709C2.62856 8.70792 2.59868 8.70083 2.57104 8.68813C2.5434 8.67542 2.51856 8.65737 2.49795 8.635C2.51698 8.61076 2.54151 8.59141 2.56951 8.57854C2.59751 8.56567 2.62817 8.55966 2.65895 8.561C2.60895 8.457 2.66495 8.399 2.74595 8.353C2.74595 8.353 2.69395 8.561 2.82695 8.561C2.88695 8.561 2.94095 8.541 2.94095 8.454C2.94095 8.378 2.87395 8.272 2.71995 8.279C2.56495 8.285 2.43995 8.385 2.43995 8.631C2.43995 8.858 2.62295 8.97 2.86395 8.978C3.08195 8.984 3.24595 8.867 3.24595 8.642C3.24595 8.343 2.81395 7.663 2.81395 7.396C2.81395 7.196 2.99295 7.084 3.16895 7.084C3.39695 7.084 3.58895 7.31 3.58895 7.31L3.45695 7.479V7.479ZM3.40695 12.879C3.40695 13.378 3.85495 13.635 4.20695 13.635C4.68095 13.635 4.93395 13.351 4.93395 12.979C4.93395 12.769 4.89495 12.637 4.79795 12.435L3.71095 10.177C3.67181 10.0828 3.65471 9.98084 3.66095 9.879C3.66095 9.677 3.85795 9.511 4.06395 9.506C4.25095 9.502 4.45595 9.681 4.45595 9.886C4.45595 10.135 4.32795 10.245 4.19495 10.245C4.03195 10.245 3.96695 10.178 3.96695 10.063C3.96695 9.983 4.00595 9.949 4.06095 9.949C4.20095 9.949 4.16195 10.137 4.16195 10.137C4.18046 10.1331 4.19789 10.1252 4.21302 10.1138C4.22816 10.1025 4.24064 10.088 4.24959 10.0713C4.25854 10.0547 4.26374 10.0362 4.26484 10.0174C4.26594 9.99848 4.26291 9.97959 4.25595 9.962C4.30823 9.95086 4.35535 9.92273 4.38995 9.882C4.35319 9.84409 4.30575 9.81828 4.25395 9.808C4.28695 9.7 4.24295 9.648 4.14895 9.625C4.16795 9.667 4.16795 9.705 4.16195 9.741C4.01295 9.699 3.78495 9.766 3.78495 10.023C3.78495 10.278 3.96195 10.493 4.29495 10.44C4.21495 10.478 4.17595 10.555 4.16795 10.641C4.20886 10.6264 4.25161 10.6177 4.29495 10.615C4.25595 10.683 4.20195 10.742 4.20395 10.877C4.26595 10.849 4.32295 10.797 4.40195 10.83C4.27795 11.074 4.42995 11.409 4.81795 11.489C4.68656 11.3452 4.61162 11.1587 4.60695 10.964C4.60695 10.386 4.76895 10.288 4.76895 9.886C4.76619 9.79228 4.74139 9.70053 4.69657 9.61818C4.65174 9.53583 4.58816 9.4652 4.51095 9.412V9.419C4.55798 9.40893 4.60242 9.38926 4.64148 9.36121C4.68054 9.33316 4.71339 9.29734 4.73795 9.256C4.47795 9.184 4.10095 9.185 3.89895 9.265C3.80791 9.27799 3.72094 9.31124 3.64445 9.3623C3.56795 9.41335 3.50388 9.48091 3.45695 9.56C3.408 9.6723 3.38274 9.79349 3.38274 9.916C3.38274 10.0385 3.408 10.1597 3.45695 10.272C3.61095 10.594 4.33695 12.133 4.56295 12.617C4.61214 12.7198 4.63841 12.8321 4.63995 12.946C4.63995 13.243 4.36895 13.346 4.21495 13.346C4.02995 13.346 3.84195 13.205 3.84195 13.03C3.84195 12.919 3.90295 12.851 3.98895 12.851C4.19795 12.851 4.18495 13.028 4.14295 13.14C4.27195 13.082 4.34795 12.978 4.32695 12.868C4.40863 12.8561 4.48287 12.814 4.53495 12.75C4.48395 12.686 4.42195 12.637 4.32695 12.636C4.36895 12.466 4.25495 12.393 4.14295 12.353C4.17795 12.478 4.20095 12.623 3.98895 12.623C3.83395 12.623 3.71195 12.649 3.64095 12.75C3.63595 12.616 3.62295 12.084 3.62295 12.084C3.61495 11.885 3.88995 11.891 4.06495 11.95C3.99995 11.722 3.86495 11.598 3.54995 11.629C3.59828 11.6102 3.63951 11.5768 3.66785 11.5334C3.69619 11.49 3.71021 11.4388 3.70795 11.387C3.70795 11.2 3.55595 10.992 3.45695 10.931L3.40695 12.879V12.879Z" fill="#FFCC4D"/>
</svg>
