<svg width="36" height="36" viewBox="0 0 36 36" fill="none" xmlns="http://www.w3.org/2000/svg">
<g clip-path="url(#clip0_32:27)">
<path d="M32 5H4C2.93913 5 1.92172 5.42143 1.17157 6.17157C0.421427 6.92172 0 7.93913 0 9L0 13.5H36V9C36 7.93913 35.5786 6.92172 34.8284 6.17157C34.0783 5.42143 33.0609 5 32 5V5Z" fill="#CC0000"/>
<path d="M0 27C0 28.0609 0.421427 29.0783 1.17157 29.8284C1.92172 30.5786 2.93913 31 4 31H32C33.0609 31 34.0783 30.5786 34.8284 29.8284C35.5786 29.0783 36 28.0609 36 27V22.5H0V27Z" fill="#006600"/>
<path d="M0 13.5H36V22.5H0V13.5Z" fill="#EEEEEE"/>
<path d="M16.13 21.455C15.722 21.571 15.484 21.183 15.484 21.183L15.807 21.038L15.963 20.538L16.286 21.003H16.65C16.651 21.002 16.568 21.33 16.13 21.455V21.455ZM21.276 21.892C20.651 21.704 19.194 21.454 18.088 21.454C16.984 21.454 15.526 21.704 14.9 21.892C14.274 22.08 14.421 22.683 14.9 22.495C15.379 22.307 16.546 22.12 18.088 22.12C19.63 22.12 20.797 22.308 21.276 22.495C21.756 22.683 21.901 22.08 21.276 21.892ZM18.339 20.767L18.089 20.35L17.839 20.767L17.401 20.955C17.401 20.955 17.713 21.308 18.089 21.308C18.465 21.308 18.777 20.955 18.777 20.955L18.339 20.767ZM20.048 21.455C20.456 21.571 20.694 21.183 20.694 21.183L20.371 21.038L20.215 20.538L19.893 21.003H19.528C19.526 21.002 19.61 21.33 20.048 21.455V21.455Z" fill="#FFAC33"/>
<path d="M22.443 20.2C22.339 19.933 22.081 20.648 21.381 20.538C20.589 20.413 20.423 19.621 20.423 19.621C20.423 19.621 19.798 20.247 19.152 19.955C18.506 19.663 18.34 19.247 18.34 18.788C18.34 18.329 18.281 17.992 18.34 17.809C18.434 17.517 18.778 17.308 19.132 17.642C19.424 17.226 18.924 16.351 18.09 16.351C17.257 16.351 16.757 17.226 17.048 17.642C17.402 17.309 17.746 17.517 17.84 17.809C17.899 17.992 17.84 18.329 17.84 18.788C17.84 19.247 17.673 19.663 17.028 19.955C16.383 20.247 15.757 19.621 15.757 19.621C15.757 19.621 15.59 20.413 14.799 20.538C14.099 20.648 13.841 19.933 13.737 20.2C13.633 20.467 14.195 21.267 14.987 21.008C15.779 20.748 15.883 20.08 15.883 20.08C15.883 20.08 16.29 20.829 17.237 20.538C17.951 20.318 18.091 19.642 18.091 19.642C18.091 19.642 18.232 20.318 18.945 20.538C19.893 20.829 20.299 20.08 20.299 20.08C20.299 20.08 20.403 20.748 21.195 21.008C21.985 21.267 22.548 20.466 22.443 20.2V20.2ZM17.401 17.1C17.608 16.66 18.089 16.725 18.089 16.725C18.089 16.725 18.569 16.66 18.777 17.1C18.423 17.141 18.089 17.412 18.089 17.412C18.089 17.412 17.755 17.142 17.401 17.1ZM13.339 18.094L13.536 18.704H14.177L13.659 19.081L13.857 19.689L13.339 19.312L12.821 19.689L13.018 19.081L12.5 18.704H13.141L13.339 18.094ZM13.964 15.865L14.161 16.475H14.802L14.284 16.852L14.482 17.46L13.964 17.083L13.446 17.46L13.643 16.852L13.125 16.475H13.766L13.964 15.865ZM15.64 14.073L15.838 14.683H16.479L15.961 15.06L16.158 15.668L15.64 15.291L15.122 15.668L15.32 15.06L14.802 14.683H15.443L15.64 14.073ZM18.089 13.469L18.286 14.078H18.927L18.409 14.455L18.607 15.063L18.089 14.686L17.571 15.063L17.768 14.455L17.25 14.078H17.891L18.089 13.469ZM22.661 18.094L22.464 18.704H21.823L22.341 19.081L22.143 19.689L22.661 19.312L23.179 19.689L22.981 19.081L23.5 18.704H22.859L22.661 18.094ZM22.036 15.865L21.839 16.475H21.198L21.716 16.852L21.518 17.46L22.036 17.083L22.554 17.46L22.356 16.852L22.875 16.475H22.234L22.036 15.865ZM20.36 14.073L20.162 14.683H19.521L20.04 15.06L19.842 15.668L20.36 15.291L20.878 15.668L20.68 15.06L21.198 14.683H20.557L20.36 14.073Z" fill="#FFAC33"/>
</g>
<defs>
<clipPath id="clip0_32:27">
<rect width="36" height="36" fill="white"/>
</clipPath>
</defs>
</svg>
