<svg width="24" height="21" viewBox="0 0 24 21" fill="none" xmlns="http://www.w3.org/2000/svg">
<path d="M13.71 19.0373L22.18 4.89726C22.3546 4.59483 22.447 4.25196 22.448 3.90274C22.449 3.55352 22.3585 3.21013 22.1856 2.90673C22.0126 2.60333 21.7633 2.35051 21.4623 2.1734C21.1613 1.9963 20.8192 1.90109 20.47 1.89725H3.52998C3.18078 1.90109 2.83867 1.9963 2.53769 2.1734C2.23671 2.35051 1.98734 2.60333 1.81441 2.90673C1.64147 3.21013 1.55099 3.55352 1.55197 3.90274C1.55295 4.25196 1.64535 4.59483 1.81998 4.89726L10.29 19.0373C10.4682 19.3311 10.7193 19.5741 11.0188 19.7428C11.3183 19.9114 11.6562 20 12 20C12.3437 20 12.6816 19.9114 12.9812 19.7428C13.2807 19.5741 13.5317 19.3311 13.71 19.0373V19.0373Z" stroke="white" stroke-width="2" stroke-linecap="round" stroke-linejoin="round"/>
</svg>
