<svg width="512" height="512" viewBox="0 0 512 512" fill="none" xmlns="http://www.w3.org/2000/svg">
<g clip-path="url(#clip0_32:8)">
<path d="M494.7 78.5C335.2 41.4 175.7 124 16.1 86.8C7.2 84.8 0 89.9 0 98.8V413.2C0 422.1 7.2 431.4 16.1 433.5C175.6 470.6 335.1 388 494.7 425.2C503.6 427.3 510.8 422.2 510.8 413.3V98.9C510.8 89.9 503.6 80.6 494.7 78.5Z" fill="#0B67B2"/>
<path d="M510.8 98.8C510.8 89.9 503.6 80.6 494.7 78.5C493.7 78.3 492.6 78 491.6 77.8L313.9 186V74.8C274.9 79.5 235.9 85.9 196.9 90.6V184.8L45 92.3C35.4 90.9 25.8 89.1 16.1 86.8C7.2 84.8 0 89.9 0 98.8V119.6L128 197.5H0V314.5H133.9L0 396V413.2C0 422.1 7.2 431.4 16.1 433.5C19.1 434.2 22.1 434.8 25 435.4L196.8 330.7V437.1C235.8 432.4 274.8 426 313.8 421.3V329.4L460.7 419C472 420.5 483.3 422.5 494.6 425.2C503.5 427.3 510.7 422.2 510.7 413.3V394.9L378.8 314.6H510.7V197.6H384.7L510.7 120.9C510.8 113.4 510.8 106.1 510.8 98.8V98.8Z" fill="#FF473E"/>
<path d="M412.9 323.5L510.8 383.1V406.5L374.5 323.5H323.2L487.5 423.6C470.9 420.1 454.2 417.9 437.6 416.6L322.9 346.8V420.4C316.9 421.1 310.9 421.8 304.9 422.6V305.6H510.8V323.6H412.9V323.5ZM187.9 438.3C193.9 437.6 199.9 436.9 205.9 436.1V305.5H0V323.5H99.9L0 384.3V407.7L138.3 323.5H187.9V324.5L11.7 431.8C13.1 432.5 14.6 433.1 16.1 433.5C24 435.3 31.9 436.9 39.8 438.2L187.9 348V438.3V438.3ZM0 188.5V206.5H205.9V89.5C199.9 90.3 193.9 91 187.9 91.7V167.7L68.7 95.1C51.5 93.6 34.3 91.1 17.1 87.1L183.6 188.5H132.3L0 107.9V131.3L94 188.5H0ZM322.9 73.7C316.9 74.4 310.9 75.1 304.9 75.9V206.5H510.8V188.5H418.8L510.8 132.5V109.1L380.4 188.5H329.1L502.8 82.7C500.4 80.7 497.7 79.2 494.7 78.5C488.8 77.1 483 76 477.1 74.9L322.9 168.8V73.7Z" fill="#E8E8E8"/>
</g>
<defs>
<clipPath id="clip0_32:8">
<rect width="512" height="512" fill="white"/>
</clipPath>
</defs>
</svg>
