<svg width="864" height="728" viewBox="0 0 864 728" fill="none" xmlns="http://www.w3.org/2000/svg">
<path d="M784 112H648L615.6 21.2C613.362 14.9868 609.26 9.61618 603.854 5.82176C598.449 2.02734 592.004 -0.00582618 585.4 1.25403e-05H278.6C265.1 1.25403e-05 253 8.50001 248.5 21.2L216 112H80C35.8 112 0 147.8 0 192V648C0 692.2 35.8 728 80 728H784C828.2 728 864 692.2 864 648V192C864 147.8 828.2 112 784 112ZM792 648C792 652.4 788.4 656 784 656H80C75.6 656 72 652.4 72 648V192C72 187.6 75.6 184 80 184H266.7L283.8 136.2L306.7 72H557.2L580.1 136.2L597.2 184H784C788.4 184 792 187.6 792 192V648ZM432 248C343.6 248 272 319.6 272 408C272 496.4 343.6 568 432 568C520.4 568 592 496.4 592 408C592 319.6 520.4 248 432 248ZM432 504C379 504 336 461 336 408C336 355 379 312 432 312C485 312 528 355 528 408C528 461 485 504 432 504Z" fill="white"/>
</svg>
