<svg id="Слой_1" data-name="Слой 1" xmlns="http://www.w3.org/2000/svg" xmlns:xlink="http://www.w3.org/1999/xlink" viewBox="0 0 1024 768"><defs><style>.cls-1{fill:#88cf00;}.cls-2{fill:#fff;}.cls-3{fill:#007fcf;}.cls-4{fill:url(#Безымянный_градиент_8);}.cls-5{fill:url(#Безымянный_градиент_8-2);}.cls-6{fill:url(#Безымянный_градиент_69);}.cls-7{fill:#fc9064;}</style><linearGradient id="Безымянный_градиент_8" x1="42.45" y1="470.25" x2="101.99" y2="470.25" gradientUnits="userSpaceOnUse"><stop offset="0" stop-color="#fff" stop-opacity="0"/><stop offset="1" stop-color="#646464"/></linearGradient><linearGradient id="Безымянный_градиент_8-2" x1="982.51" y1="470.32" x2="922.98" y2="470.17" xlink:href="#Безымянный_градиент_8"/><linearGradient id="Безымянный_градиент_69" x1="-630.4" y1="-2058.3" x2="-691.54" y2="-2058.45" gradientTransform="translate(1173.35 2663.4)" gradientUnits="userSpaceOnUse"><stop offset="0" stop-color="#fff" stop-opacity="0"/><stop offset="0.29" stop-color="#cdcdcd" stop-opacity="0.32"/><stop offset="0.76" stop-color="#818181" stop-opacity="0.81"/><stop offset="1" stop-color="#646464"/></linearGradient></defs><title>Язык</title><rect class="cls-1" x="23.01" y="150.45" width="116.01" height="213.33"/><rect class="cls-2" x="23.01" y="363.77" width="116.01" height="213.33"/><rect class="cls-3" x="886.99" y="150.45" width="116.01" height="213.33"/><rect class="cls-2" x="886.99" y="363.77" width="116.01" height="213.33"/><rect class="cls-4" x="42.45" y="363.39" width="59.53" height="213.71"/><rect class="cls-5" x="922.97" y="363.39" width="59.53" height="213.71"/><rect class="cls-6" x="482.61" y="158.66" width="59.53" height="892.73" transform="translate(1117.4 92.65) rotate(90)"/><rect class="cls-7" x="65.75" y="122.21" width="892.99" height="241.18"/><rect class="cls-2" x="65.75" y="363.39" width="892.99" height="241.18"/><path class="cls-2" d="M355.64,180.2h-4.3V166H336.22V180.2h-4.3V149.54h4.3v12.79h15.12V149.54h4.3Z"/><path class="cls-2" d="M383,180.2l-3.4-9.12h-12l-3.35,9.12h-4.47l11.7-30.79h4.41l11.64,30.79Zm-4.59-12.86-3.23-9-.46-1.38c-.2-.61-.4-1.25-.6-1.91s-.37-1.2-.5-1.63c-.14.57-.3,1.17-.48,1.81s-.36,1.23-.53,1.78-.32,1-.43,1.33l-3.27,9Z"/><path class="cls-2" d="M399.93,164.22l7.72-14.68h4.61l-10.19,18.75V180.2h-4.3V168.48l-10.21-18.94h4.7Z"/><path class="cls-2" d="M435.5,180.2l-3.4-9.12h-12l-3.35,9.12h-4.47L424,149.41h4.41L440,180.2Zm-4.59-12.86-3.23-9-.46-1.38c-.2-.61-.4-1.25-.6-1.91s-.37-1.2-.5-1.63c-.14.57-.3,1.17-.48,1.81s-.36,1.23-.53,1.78-.32,1-.43,1.33l-3.27,9Z"/><path class="cls-2" d="M454.18,180.2h-4.32V153.25h-9.31v-3.71h22.92v3.71h-9.29Z"/><path class="cls-2" d="M478.15,180.2h-4.32V153.25h-9.31v-3.71h22.92v3.71h-9.29Z"/><path class="cls-2" d="M511.22,180.2l-3.4-9.12h-12l-3.36,9.12H488l11.7-30.79h4.4l11.64,30.79Zm-4.59-12.86-3.23-9-.45-1.38c-.2-.61-.41-1.25-.61-1.91s-.37-1.2-.49-1.63c-.14.57-.3,1.17-.48,1.81s-.36,1.23-.54,1.78-.32,1-.43,1.33l-3.27,9Z"/><path class="cls-2" d="M553.79,180.2h-5l-10.3-14.41-3.14,2.69V180.2H531V149.54h4.3v15c.71-.84,1.44-1.67,2.17-2.49l2.19-2.5,8.79-10h4.93L541.59,162.9Z"/><path class="cls-2" d="M577,180.2l-3.4-9.12h-12l-3.36,9.12h-4.47l11.7-30.79h4.41l11.64,30.79Zm-4.59-12.86-3.23-9-.45-1.38c-.21-.61-.41-1.25-.61-1.91l-.5-1.63c-.13.57-.3,1.17-.48,1.81s-.36,1.23-.53,1.78-.32,1-.43,1.33l-3.27,9Z"/><path class="cls-2" d="M585.69,180.2V149.54H590v26.93H603.3v3.73Z"/><path class="cls-2" d="M621.93,180.2l-9.56-26.36h-.17c0,.57.08,1.31.13,2.21s.09,1.88.13,2.94,0,2.09,0,3.11v18.1h-3.94V149.54h6.19l9.08,25H624l9.31-25h6.15V180.2h-4.15V161.85c0-.92,0-1.88,0-2.88s.06-1.95.11-2.86.1-1.64.14-2.23h-.19L625.6,180.2Z"/><path class="cls-2" d="M666.78,180.2l-3.4-9.12h-12L648,180.2h-4.46l11.7-30.79h4.4l11.64,30.79Zm-4.59-12.86-3.23-9-.45-1.38c-.2-.61-.41-1.25-.61-1.91s-.36-1.2-.49-1.63c-.14.57-.3,1.17-.48,1.81s-.36,1.23-.54,1.78-.32,1-.43,1.33l-3.27,9Z"/><path class="cls-2" d="M698.2,180.2h-5l-10.3-14.41-3.15,2.69V180.2h-4.29V149.54h4.29v15c.72-.84,1.44-1.67,2.17-2.49s1.47-1.66,2.2-2.5l8.78-10h4.93L686,162.9Z"/><path class="cls-2" d="M368.5,228.58a9.68,9.68,0,0,1-1.05,4.63,8.88,8.88,0,0,1-2.92,3.2,12.28,12.28,0,0,1-4.32,1.76v.18a11.84,11.84,0,0,1,7.09,3,8.64,8.64,0,0,1,2.39,6.35,11.52,11.52,0,0,1-1.62,6.1,10.72,10.72,0,0,1-5,4.19,21.08,21.08,0,0,1-8.62,1.51,31.69,31.69,0,0,1-5.87-.51,21.36,21.36,0,0,1-5.13-1.65V252.4a24.34,24.34,0,0,0,5.32,1.93,23.54,23.54,0,0,0,5.51.69q5.16,0,7.42-2a7,7,0,0,0,2.25-5.51,5.74,5.74,0,0,0-1.21-3.79,7.11,7.11,0,0,0-3.61-2.18,21.38,21.38,0,0,0-5.95-.7h-3.71v-4.48h3.76a14.7,14.7,0,0,0,5.47-.88,6.79,6.79,0,0,0,3.2-2.47,6.65,6.65,0,0,0,1-3.73,5.33,5.33,0,0,0-1.82-4.31,7.79,7.79,0,0,0-5.15-1.52,14.59,14.59,0,0,0-3.74.44,16,16,0,0,0-3.13,1.18,23.69,23.69,0,0,0-2.79,1.64L343.65,223A20.8,20.8,0,0,1,349,220.1a19.8,19.8,0,0,1,7.14-1.19q6.07,0,9.24,2.67A8.72,8.72,0,0,1,368.5,228.58Z"/><path class="cls-2" d="M388.24,234.55a16.1,16.1,0,0,1,6.85,1.36,10.48,10.48,0,0,1,4.56,4,11.85,11.85,0,0,1,1.64,6.38,13.66,13.66,0,0,1-1.76,7.07,11.48,11.48,0,0,1-5.1,4.57,18.83,18.83,0,0,1-8.11,1.59,29,29,0,0,1-5.75-.54,15,15,0,0,1-4.54-1.62v-5a18.72,18.72,0,0,0,4.83,1.88,22,22,0,0,0,5.44.72,12.84,12.84,0,0,0,5-.89,7.08,7.08,0,0,0,3.28-2.7,8.33,8.33,0,0,0,1.16-4.6,7.12,7.12,0,0,0-2.29-5.67c-1.53-1.33-3.94-2-7.21-2a24.46,24.46,0,0,0-3.57.29c-1.28.19-2.33.38-3.16.58L377,238.41l1.51-18.93h20.1v4.83h-15.4l-.91,10.88c.66-.14,1.49-.28,2.48-.43A25.45,25.45,0,0,1,388.24,234.55Z"/><path class="cls-2" d="M433.32,239.16a45.28,45.28,0,0,1-.73,8.59,19.58,19.58,0,0,1-2.31,6.4,10.63,10.63,0,0,1-4.11,4,12.63,12.63,0,0,1-6.09,1.36,11.29,11.29,0,0,1-7.4-2.4,14.24,14.24,0,0,1-4.34-7,36.64,36.64,0,0,1-1.44-11,40.21,40.21,0,0,1,1.3-10.87,13.72,13.72,0,0,1,4.2-7,11.54,11.54,0,0,1,7.68-2.45,11.35,11.35,0,0,1,7.47,2.42,14.17,14.17,0,0,1,4.35,7A36.82,36.82,0,0,1,433.32,239.16Zm-21,0a42.17,42.17,0,0,0,.76,8.78,10.63,10.63,0,0,0,2.45,5.26,6,6,0,0,0,4.51,1.74,6.11,6.11,0,0,0,4.53-1.73,10.39,10.39,0,0,0,2.47-5.24,43.12,43.12,0,0,0,.76-8.81,42.23,42.23,0,0,0-.76-8.68,10.76,10.76,0,0,0-2.45-5.27,6.76,6.76,0,0,0-9.1,0,10.84,10.84,0,0,0-2.43,5.27A43.1,43.1,0,0,0,412.36,239.16Z"/><path class="cls-2" d="M464.3,262.18v-5.62a37.89,37.89,0,0,1-6-.57,20.36,20.36,0,0,1-4.74-1.38v-5.05a26.86,26.86,0,0,0,5,1.64,28.52,28.52,0,0,0,5.82.79V241a32.59,32.59,0,0,1-6.12-2.54,9.51,9.51,0,0,1-3.55-3.23,8.41,8.41,0,0,1-1.16-4.55,8.15,8.15,0,0,1,1.35-4.72,9.1,9.1,0,0,1,3.79-3.11,15.61,15.61,0,0,1,5.69-1.32V217h3.4v4.46a28.46,28.46,0,0,1,5.4.67,29.05,29.05,0,0,1,4.65,1.49L476,228a28.51,28.51,0,0,0-4.07-1.3,28.21,28.21,0,0,0-4.27-.67v10.83a44.4,44.4,0,0,1,6,2.29,10.28,10.28,0,0,1,3.86,3,7.66,7.66,0,0,1,1.35,4.7,8.15,8.15,0,0,1-2.89,6.47c-1.93,1.66-4.69,2.67-8.29,3v5.81Zm0-26.53v-9.5a8.9,8.9,0,0,0-3,.69,4.24,4.24,0,0,0-1.85,1.44,3.6,3.6,0,0,0-.63,2.13,4.64,4.64,0,0,0,.54,2.33,4.52,4.52,0,0,0,1.76,1.63A15.35,15.35,0,0,0,464.3,235.65Zm3.4,16.13a8.53,8.53,0,0,0,4.42-1.49,3.75,3.75,0,0,0,1.44-3.08A3.9,3.9,0,0,0,473,245a4.89,4.89,0,0,0-1.86-1.54,19.63,19.63,0,0,0-3.42-1.28Z"/><path class="cls-2" d="M532.14,259H526.6V240.73H507.13V259h-5.54V219.48h5.54V236H526.6V219.48h5.54Z"/><path class="cls-2" d="M564.93,259H542.75V219.48h22.18v4.75H548.29V236h15.64v4.7H548.29v13.5h16.64Z"/><path class="cls-2" d="M584.43,219.48a23.86,23.86,0,0,1,8.25,1.22,9.57,9.57,0,0,1,4.85,3.73,11.62,11.62,0,0,1,1.59,6.34,10.74,10.74,0,0,1-1.11,5.1,9.9,9.9,0,0,1-2.9,3.4,15.45,15.45,0,0,1-3.85,2.08l11,17.61H596l-9.61-16.15h-7.27V259h-5.54V219.48Zm-.35,4.7h-5v14h5.38q4.66,0,6.83-1.82a6.66,6.66,0,0,0,2.16-5.39q0-3.71-2.3-5.25C589.62,224.69,587.26,224.18,584.08,224.18Z"/><path class="cls-2" d="M647.28,259l-4.38-11.75H627.42L623.1,259h-5.75l15.07-39.65h5.67l15,39.65Zm-5.92-16.55-4.16-11.64c-.12-.4-.32-1-.58-1.79s-.52-1.61-.78-2.46-.47-1.54-.64-2.1c-.18.74-.38,1.52-.62,2.33s-.46,1.59-.69,2.3-.41,1.28-.55,1.72l-4.21,11.64Z"/><path class="cls-2" d="M669.07,238.38l9.94-18.9H685l-13.12,24.14V259h-5.54v-15.1l-13.15-24.38h6.05Z"/><path class="cls-2" d="M341.48,298.36h9c4,0,7,.59,9,1.75s3,3.17,3,6a7.62,7.62,0,0,1-.66,3.24,6,6,0,0,1-1.92,2.37,7.19,7.19,0,0,1-3.1,1.28v.22a10.61,10.61,0,0,1,3.42,1.15,6.15,6.15,0,0,1,2.36,2.36,8,8,0,0,1,.86,3.92,8.53,8.53,0,0,1-1.34,4.85,8.39,8.39,0,0,1-3.81,3,15.12,15.12,0,0,1-5.86,1h-11Zm4.37,13.13h5.44c2.52,0,4.27-.41,5.23-1.24a4.47,4.47,0,0,0,1.46-3.61,3.85,3.85,0,0,0-1.73-3.53,10.71,10.71,0,0,0-5.49-1.08h-4.91Zm0,3.61v10.78h6q3.85,0,5.45-1.52a5.37,5.37,0,0,0,1.59-4.08,5.25,5.25,0,0,0-.71-2.78,4.47,4.47,0,0,0-2.32-1.78,12.07,12.07,0,0,0-4.31-.62Z"/><path class="cls-2" d="M378.46,305.64c2.91,0,5.08.65,6.51,1.93s2.16,3.32,2.16,6.1v15.9h-3.07l-.84-3.42h-.17a12,12,0,0,1-2,2.14,7.54,7.54,0,0,1-2.47,1.28,12,12,0,0,1-3.4.42,9,9,0,0,1-3.8-.76,6,6,0,0,1-2.62-2.32,7.44,7.44,0,0,1-1-3.94,6.14,6.14,0,0,1,2.76-5.44c1.83-1.24,4.61-1.91,8.34-2l4.06-.17V314c0-1.84-.41-3.13-1.23-3.89a4.89,4.89,0,0,0-3.43-1.13,11.51,11.51,0,0,0-3.48.53,24.65,24.65,0,0,0-3.2,1.24l-1.36-3.11a19.07,19.07,0,0,1,3.79-1.43A16.58,16.58,0,0,1,378.46,305.64Zm4.42,12.51-3.28.15q-4.08.15-5.73,1.35a3.92,3.92,0,0,0-1.66,3.36,3.27,3.27,0,0,0,1.13,2.76,4.78,4.78,0,0,0,3,.87A6.87,6.87,0,0,0,381,325a6,6,0,0,0,1.84-4.77Z"/><path class="cls-2" d="M409.8,323a6.52,6.52,0,0,1-1.12,3.86,6.71,6.71,0,0,1-3.26,2.35,14.69,14.69,0,0,1-5.12.79,21.2,21.2,0,0,1-4.27-.37,13.85,13.85,0,0,1-3.24-1.08v-3.8a22.91,22.91,0,0,0,3.6,1.33,15,15,0,0,0,4,.57,7,7,0,0,0,4-.87,2.75,2.75,0,0,0,1.23-2.37,2.56,2.56,0,0,0-.5-1.55,5.17,5.17,0,0,0-1.71-1.34,29,29,0,0,0-3.52-1.55,33,33,0,0,1-3.83-1.75,6.82,6.82,0,0,1-2.42-2.11,5.71,5.71,0,0,1-.83-3.21,5.25,5.25,0,0,1,2.44-4.66,11.6,11.6,0,0,1,6.46-1.61,17.89,17.89,0,0,1,4,.43,19.19,19.19,0,0,1,3.62,1.19L408,310.55a23.15,23.15,0,0,0-3.16-1.1,12.68,12.68,0,0,0-3.3-.44,6.58,6.58,0,0,0-3.37.71,2.17,2.17,0,0,0-1.16,1.94,2.4,2.4,0,0,0,.54,1.6,5.66,5.66,0,0,0,1.83,1.25c.85.41,2,.89,3.46,1.44a26.84,26.84,0,0,1,3.72,1.69,6.76,6.76,0,0,1,2.42,2.13A5.61,5.61,0,0,1,409.8,323Zm-4.12,12.49a4,4,0,0,1-1.56,3.37,7.82,7.82,0,0,1-4.82,1.22,9.85,9.85,0,0,1-1.37-.09,7,7,0,0,1-1.07-.21v-2.56c.3.06.69.11,1.16.17a10.45,10.45,0,0,0,1.34.08,4.41,4.41,0,0,0,2.12-.41,1.5,1.5,0,0,0,.76-1.44,1.77,1.77,0,0,0-1.05-1.65,8.42,8.42,0,0,0-2.88-.76l1.84-3.63H403l-1,2.11a7.17,7.17,0,0,1,1.87.7,4.14,4.14,0,0,1,1.36,1.23A3.29,3.29,0,0,1,405.68,335.48Z"/><path class="cls-2" d="M419.62,296.36V313c0,.66,0,1.4-.08,2.23s-.09,1.6-.14,2.3h.15l1.32-1.69c.54-.69,1-1.28,1.46-1.77l7.51-8h5l-9.43,10.09,10.09,13.43h-5.08l-7.91-10.74-2.84,2.52v8.22h-4.27V296.36Z"/><path class="cls-2" d="M448.58,305.62a10.12,10.12,0,0,1,5.27,1.31,8.6,8.6,0,0,1,3.37,3.71,12.53,12.53,0,0,1,1.18,5.63v2.43h-16a8.44,8.44,0,0,0,1.95,5.8,6.85,6.85,0,0,0,5.27,2,17.18,17.18,0,0,0,4-.43,23.14,23.14,0,0,0,3.63-1.26v3.61a16.89,16.89,0,0,1-3.56,1.18,20.86,20.86,0,0,1-4.25.37,12.58,12.58,0,0,1-6-1.36,9.48,9.48,0,0,1-4-4.05A13.77,13.77,0,0,1,438,318a15.47,15.47,0,0,1,1.3-6.65,9.73,9.73,0,0,1,3.67-4.24A10.36,10.36,0,0,1,448.58,305.62Zm0,3.33a5.43,5.43,0,0,0-4.18,1.7,7.86,7.86,0,0,0-1.86,4.85h11.57a9.38,9.38,0,0,0-.62-3.41,5,5,0,0,0-1.81-2.31A5.38,5.38,0,0,0,448.56,309Z"/><path class="cls-2" d="M475.92,305.62a8.82,8.82,0,0,1,6.27,2.05c1.45,1.36,2.18,3.56,2.18,6.57v15.33h-4.24V314.82a6.33,6.33,0,0,0-1.24-4.24,4.8,4.8,0,0,0-3.8-1.42c-2.43,0-4.14.72-5.11,2.16a11.09,11.09,0,0,0-1.46,6.25v12h-4.3V306.05h3.4l.62,3.3h.23a7.09,7.09,0,0,1,1.9-2.07,8.38,8.38,0,0,1,2.57-1.24A10.47,10.47,0,0,1,475.92,305.62Z"/><path class="cls-2" d="M499.72,326.52a10.81,10.81,0,0,0,1.86-.17,8.68,8.68,0,0,0,1.62-.41v3.29a9.4,9.4,0,0,1-1.93.54,13.51,13.51,0,0,1-2.47.22,8.85,8.85,0,0,1-3.48-.66,5.15,5.15,0,0,1-2.48-2.26,8.89,8.89,0,0,1-.93-4.44V309.35h-3.27v-2l3.42-1.58,1.51-5.08h2.65v5.34H503v3.3h-6.81v13.22a4.11,4.11,0,0,0,.95,3A3.36,3.36,0,0,0,499.72,326.52Z"/><path class="cls-2" d="M507.34,308.52a2.82,2.82,0,0,1,.82-2.31,3,3,0,0,1,2-.68,3.1,3.1,0,0,1,2,.68,2.79,2.79,0,0,1,.84,2.31,2.83,2.83,0,0,1-.84,2.29,3,3,0,0,1-2,.7,3,3,0,0,1-2-.7A2.85,2.85,0,0,1,507.34,308.52Zm0,18.61a2.8,2.8,0,0,1,.82-2.29,3,3,0,0,1,2-.67,3.1,3.1,0,0,1,2,.67,2.77,2.77,0,0,1,.84,2.29,2.89,2.89,0,0,1-.84,2.31,3,3,0,0,1-2,.73,2.69,2.69,0,0,1-2.82-3Z"/><path class="cls-2" d="M550.24,329.57H529.45V326.2l8.22-8.35q2.34-2.37,3.89-4.15a15.19,15.19,0,0,0,2.34-3.46,8.44,8.44,0,0,0,.79-3.66,4.73,4.73,0,0,0-1.43-3.71,5.45,5.45,0,0,0-3.8-1.28,9.35,9.35,0,0,0-3.85.77,17.44,17.44,0,0,0-3.56,2.24l-2.3-2.86a19.19,19.19,0,0,1,2.73-1.94,14.4,14.4,0,0,1,3.23-1.37,13.8,13.8,0,0,1,3.88-.52,11.58,11.58,0,0,1,5,1,7.64,7.64,0,0,1,3.27,2.9,8.23,8.23,0,0,1,1.16,4.4,10.83,10.83,0,0,1-1,4.62,18.27,18.27,0,0,1-2.8,4.22q-1.82,2.09-4.29,4.46l-6.09,6v.2h15.35Z"/><path class="cls-2" d="M568.43,329.57h-4.25V308.46c0-.76,0-1.45,0-2.08s0-1.24,0-1.82.06-1.13.09-1.67c-.37.38-.76.75-1.17,1.1s-.87.74-1.39,1.18l-3.57,2.88-2.2-2.81,8.86-6.88h3.57Z"/><path class="cls-2" d="M612.93,322.52h-4.44v7.05h-4.21v-7.05H589.64v-3.39l14.56-20.9h4.29v20.6h4.44Zm-8.65-3.69v-9c0-.71,0-1.39,0-2s0-1.26.07-1.85.06-1.13.08-1.63,0-1,.07-1.38h-.17c-.27.57-.58,1.16-.91,1.77a15.57,15.57,0,0,1-1.06,1.71l-8.64,12.38Z"/><path class="cls-2" d="M626,310.27a12.65,12.65,0,0,1,5.41,1.08,8.22,8.22,0,0,1,3.61,3.15,9.35,9.35,0,0,1,1.29,5,10.76,10.76,0,0,1-1.39,5.59,9,9,0,0,1-4,3.6,14.82,14.82,0,0,1-6.4,1.26,23.31,23.31,0,0,1-4.55-.42,12,12,0,0,1-3.59-1.28v-4a15.22,15.22,0,0,0,3.81,1.48,17.43,17.43,0,0,0,4.3.57,10.08,10.08,0,0,0,3.94-.71,5.6,5.6,0,0,0,2.6-2.13,6.6,6.6,0,0,0,.91-3.63,5.6,5.6,0,0,0-1.81-4.48c-1.21-1.06-3.11-1.58-5.7-1.58a19.23,19.23,0,0,0-2.82.22c-1,.15-1.84.3-2.49.46l-2-1.22,1.19-15h15.89v3.82H622l-.73,8.6c.53-.11,1.18-.22,2-.34A20,20,0,0,1,626,310.27Z"/><path class="cls-2" d="M661.57,329.57H640.78V326.2l8.22-8.35q2.34-2.37,3.89-4.15a15.52,15.52,0,0,0,2.34-3.46,8.44,8.44,0,0,0,.79-3.66,4.73,4.73,0,0,0-1.43-3.71,5.45,5.45,0,0,0-3.8-1.28,9.35,9.35,0,0,0-3.85.77,17.44,17.44,0,0,0-3.56,2.24l-2.3-2.86a19.19,19.19,0,0,1,2.73-1.94,14.52,14.52,0,0,1,3.22-1.37,13.92,13.92,0,0,1,3.89-.52,11.58,11.58,0,0,1,5.05,1,7.64,7.64,0,0,1,3.27,2.9,8.23,8.23,0,0,1,1.15,4.4,10.83,10.83,0,0,1-1,4.62,18.6,18.6,0,0,1-2.8,4.22q-1.82,2.09-4.3,4.46l-6.08,6v.2h15.35Z"/><path class="cls-2" d="M674.78,332.11v-4.44a29.72,29.72,0,0,1-4.77-.45,15.93,15.93,0,0,1-3.74-1.09v-4a21.28,21.28,0,0,0,3.91,1.29,22.09,22.09,0,0,0,4.6.63v-8.69a25.82,25.82,0,0,1-4.83-2,7.55,7.55,0,0,1-2.81-2.55,6.74,6.74,0,0,1-.92-3.6,6.43,6.43,0,0,1,1.07-3.73,7.21,7.21,0,0,1,3-2.46,12.25,12.25,0,0,1,4.49-1V296.4h2.69v3.52a23.84,23.84,0,0,1,4.27.53,23.16,23.16,0,0,1,3.67,1.18l-1.34,3.48a21.39,21.39,0,0,0-3.23-1,21,21,0,0,0-3.37-.53v8.56a35.27,35.27,0,0,1,4.72,1.81,8.16,8.16,0,0,1,3,2.39,6.08,6.08,0,0,1,1.07,3.72,6.46,6.46,0,0,1-2.29,5.11,11.41,11.41,0,0,1-6.55,2.38v4.59Zm0-21v-7.52a7.38,7.38,0,0,0-2.38.55,3.43,3.43,0,0,0-1.46,1.14,2.86,2.86,0,0,0-.49,1.69,3.59,3.59,0,0,0,.43,1.83,3.47,3.47,0,0,0,1.38,1.29A12.46,12.46,0,0,0,674.78,311.15Zm2.69,12.74a6.72,6.72,0,0,0,3.49-1.17,3,3,0,0,0,1.14-2.44,3.09,3.09,0,0,0-.46-1.74,3.74,3.74,0,0,0-1.47-1.21,15.8,15.8,0,0,0-2.7-1Z"/><path d="M345.68,463.53l17.75-38.72H340V419.4h30v4.35l-17.66,39.78Z"/><path d="M377,460.09a4,4,0,0,1,1.17-3.24,4.27,4.27,0,0,1,2.82-1,4.37,4.37,0,0,1,2.86,1,3.92,3.92,0,0,1,1.18,3.24,4.08,4.08,0,0,1-1.18,3.26,4.22,4.22,0,0,1-2.86,1,3.81,3.81,0,0,1-4-4.29Z"/><path d="M392.53,444.7a51.72,51.72,0,0,1,.56-7.73,29.92,29.92,0,0,1,1.9-7.06,18.49,18.49,0,0,1,3.69-5.78,16.34,16.34,0,0,1,5.89-3.91,22.72,22.72,0,0,1,8.51-1.42c.89,0,1.87,0,2.95.12a13.87,13.87,0,0,1,2.67.42v5.1a14.89,14.89,0,0,0-2.57-.54,22.44,22.44,0,0,0-2.84-.18q-5.58,0-8.75,2.28a12.46,12.46,0,0,0-4.53,6.19,30.94,30.94,0,0,0-1.57,8.82h.34a11,11,0,0,1,2.32-2.68,10.55,10.55,0,0,1,3.43-1.92,14.11,14.11,0,0,1,4.69-.71,13.67,13.67,0,0,1,6.73,1.59,10.84,10.84,0,0,1,4.44,4.6,15.81,15.81,0,0,1,1.57,7.33,17.25,17.25,0,0,1-1.72,7.94,12.18,12.18,0,0,1-4.91,5.16,15.06,15.06,0,0,1-7.59,1.81,14.75,14.75,0,0,1-6-1.22,13.23,13.23,0,0,1-4.83-3.65,17.41,17.41,0,0,1-3.2-6.07A28.42,28.42,0,0,1,392.53,444.7Zm15.12,14.39a7.91,7.91,0,0,0,6.05-2.43q2.28-2.43,2.28-7.41a9.59,9.59,0,0,0-2-6.44q-2-2.37-6.1-2.37a9.54,9.54,0,0,0-4.84,1.18,8.86,8.86,0,0,0-3.2,2.94,6.59,6.59,0,0,0-1.14,3.61,14.05,14.05,0,0,0,.55,3.82,11.77,11.77,0,0,0,1.66,3.53,8.6,8.6,0,0,0,2.81,2.59A7.64,7.64,0,0,0,407.65,459.09Z"/><path d="M440.82,430.27h6.55l7.06,19.17c.37,1,.7,1.94,1,2.88s.58,1.84.81,2.71.42,1.74.56,2.59H457c.24-1,.58-2.28,1-3.75s.92-3,1.44-4.46l6.77-19.14h6.52l-14.37,38a22.69,22.69,0,0,1-2.85,5.45,11.87,11.87,0,0,1-4,3.5,11.46,11.46,0,0,1-5.44,1.22,17.57,17.57,0,0,1-2.55-.16c-.73-.12-1.36-.24-1.88-.38V473c.44.1,1,.19,1.61.27a15.72,15.72,0,0,0,2,.12,6.81,6.81,0,0,0,3.27-.74,6.92,6.92,0,0,0,2.36-2.1,13,13,0,0,0,1.64-3.17l1.51-3.92Z"/><path d="M484,463.53H478V430.27H484Z"/><path d="M500.46,463.53h-6.09v-47h6.09Z"/><path d="M548.79,454.23a9.1,9.1,0,0,1-1.59,5.45,9.53,9.53,0,0,1-4.6,3.34,21,21,0,0,1-7.24,1.11,30.19,30.19,0,0,1-6-.52,19.79,19.79,0,0,1-4.59-1.53v-5.37a31.85,31.85,0,0,0,5.1,1.87,21.14,21.14,0,0,0,5.68.82c2.59,0,4.47-.42,5.63-1.24a3.92,3.92,0,0,0,1.73-3.35,3.62,3.62,0,0,0-.69-2.19,7.41,7.41,0,0,0-2.43-1.9,42.11,42.11,0,0,0-5-2.19,44,44,0,0,1-5.41-2.48,9.55,9.55,0,0,1-3.43-3,7.94,7.94,0,0,1-1.18-4.53,7.41,7.41,0,0,1,3.46-6.6,16.33,16.33,0,0,1,9.13-2.27,25.93,25.93,0,0,1,5.69.6,26.86,26.86,0,0,1,5.11,1.69l-2,4.68a33.66,33.66,0,0,0-4.46-1.56,18,18,0,0,0-4.68-.62,9.32,9.32,0,0,0-4.76,1,3.08,3.08,0,0,0-1.64,2.75,3.33,3.33,0,0,0,.77,2.26,7.85,7.85,0,0,0,2.58,1.77q1.82.86,4.89,2a38.77,38.77,0,0,1,5.26,2.39,9.69,9.69,0,0,1,3.43,3A8,8,0,0,1,548.79,454.23Z"/><path d="M585.7,446.84a22.92,22.92,0,0,1-1.07,7.32,14.79,14.79,0,0,1-3.11,5.43,13.34,13.34,0,0,1-4.9,3.38,17.06,17.06,0,0,1-6.49,1.16,16,16,0,0,1-6.2-1.16,13.52,13.52,0,0,1-4.88-3.38,15.33,15.33,0,0,1-3.17-5.43,22.34,22.34,0,0,1-1.11-7.32,21.09,21.09,0,0,1,1.87-9.31,13.2,13.2,0,0,1,5.35-5.86,16.4,16.4,0,0,1,8.32-2,15.71,15.71,0,0,1,8.06,2,13.8,13.8,0,0,1,5.4,5.85A20.48,20.48,0,0,1,585.7,446.84Zm-24.72,0a19.81,19.81,0,0,0,1,6.59,9.2,9.2,0,0,0,13.51,4.25,8.48,8.48,0,0,0,3-4.25,20.08,20.08,0,0,0,1-6.59,19.6,19.6,0,0,0-1-6.52,8.43,8.43,0,0,0-3-4.17,9,9,0,0,0-5.3-1.44q-4.77,0-7,3.18C561.72,440,561,443,561,446.84Z"/><path d="M610.63,429.67q5.77,0,8.86,2.89t3.1,9.3v21.67h-6V442.67q0-4-1.75-6c-1.17-1.34-3-2-5.37-2q-5.16,0-7.23,3c-1.38,2-2.07,5-2.07,8.85v17h-6.07V430.27h4.8l.88,4.68h.33a9.67,9.67,0,0,1,2.69-2.93,12,12,0,0,1,3.63-1.77A15,15,0,0,1,610.63,429.67Z"/><path d="M648.7,429.67c.6,0,1.25,0,2,.1s1.31.16,1.81.26l-.63,5.64a15.13,15.13,0,0,0-1.68-.3,14.1,14.1,0,0,0-1.77-.12,9.61,9.61,0,0,0-3.68.72,9.27,9.27,0,0,0-3.08,2.1,9.8,9.8,0,0,0-2.08,3.35,12.66,12.66,0,0,0-.75,4.51v17.6h-6.1V430.27h4.89l.72,6h.27a16.47,16.47,0,0,1,2.49-3.32,11.24,11.24,0,0,1,3.39-2.4A9.82,9.82,0,0,1,648.7,429.67Z"/><path d="M671.4,429.7q6.15,0,9.2,2.73t3,8.61v22.49H679.3l-1.17-4.83h-.25a17.1,17.1,0,0,1-2.89,3,10.26,10.26,0,0,1-3.49,1.81,16.74,16.74,0,0,1-4.81.6,12.76,12.76,0,0,1-5.38-1.08,8.33,8.33,0,0,1-3.69-3.28,10.44,10.44,0,0,1-1.35-5.57,8.68,8.68,0,0,1,3.9-7.69q3.89-2.62,11.8-2.87l5.73-.24v-1.87c0-2.6-.57-4.43-1.73-5.5a6.92,6.92,0,0,0-4.85-1.6,16.42,16.42,0,0,0-4.92.74,37.2,37.2,0,0,0-4.52,1.77l-1.94-4.41a27.72,27.72,0,0,1,5.36-2A24.07,24.07,0,0,1,671.4,429.7Zm6.24,17.68-4.64.21c-3.85.15-6.55.78-8.11,1.92a5.55,5.55,0,0,0-2.34,4.75,4.61,4.61,0,0,0,1.6,3.9,6.77,6.77,0,0,0,4.23,1.24,9.75,9.75,0,0,0,6.65-2.28q2.61-2.28,2.61-6.75Z"/><path d="M371.58,528.22a5.65,5.65,0,0,1-.62,2.71,5.14,5.14,0,0,1-1.71,1.88,7.17,7.17,0,0,1-2.53,1V534a6.9,6.9,0,0,1,4.16,1.75,5.06,5.06,0,0,1,1.39,3.72,6.81,6.81,0,0,1-.94,3.58,6.38,6.38,0,0,1-2.92,2.45,12.45,12.45,0,0,1-5.06.88,18.4,18.4,0,0,1-3.43-.3,12.89,12.89,0,0,1-3-1v-2.9A13.6,13.6,0,0,0,360,543.3a13.75,13.75,0,0,0,3.23.41,6.49,6.49,0,0,0,4.34-1.17,4.1,4.1,0,0,0,1.32-3.23,3.38,3.38,0,0,0-.71-2.22,4.22,4.22,0,0,0-2.11-1.28,12.8,12.8,0,0,0-3.49-.41h-2.17v-2.62h2.2a8.33,8.33,0,0,0,3.2-.52,3.71,3.71,0,0,0,2.5-3.63,3.11,3.11,0,0,0-1.07-2.52,4.55,4.55,0,0,0-3-.9,8.31,8.31,0,0,0-2.19.27,9.23,9.23,0,0,0-1.83.68,15,15,0,0,0-1.64,1l-1.57-2.2a12.86,12.86,0,0,1,3.11-1.68,11.84,11.84,0,0,1,4.19-.69,8.21,8.21,0,0,1,5.41,1.56A5.13,5.13,0,0,1,371.58,528.22Z"/><path d="M383.29,522.56a9.67,9.67,0,0,1,3.58.63,5.6,5.6,0,0,1,2.5,1.86,5,5,0,0,1,.91,3,4.86,4.86,0,0,1-.6,2.45,6,6,0,0,1-1.59,1.83,12.86,12.86,0,0,1-2.24,1.4,15.89,15.89,0,0,1,2.59,1.52,7,7,0,0,1,1.87,2A5.24,5.24,0,0,1,391,540a5.81,5.81,0,0,1-1,3.34,6.14,6.14,0,0,1-2.68,2.19,9.91,9.91,0,0,1-4,.76,10.92,10.92,0,0,1-4.24-.73,5.77,5.77,0,0,1-2.65-2.12,6,6,0,0,1-.91-3.33,5.5,5.5,0,0,1,.67-2.78,6.76,6.76,0,0,1,1.75-2,12.28,12.28,0,0,1,2.39-1.45,12.13,12.13,0,0,1-2-1.44,6.43,6.43,0,0,1-1.47-1.89,5.55,5.55,0,0,1-.54-2.51,4.89,4.89,0,0,1,.92-3,5.84,5.84,0,0,1,2.53-1.86A9.41,9.41,0,0,1,383.29,522.56Zm-4.69,17.52a3.5,3.5,0,0,0,1.17,2.71,5,5,0,0,0,3.5,1.06,5.13,5.13,0,0,0,3.46-1.05,3.53,3.53,0,0,0,1.21-2.78,3.27,3.27,0,0,0-.58-1.91,5.74,5.74,0,0,0-1.6-1.48,13.92,13.92,0,0,0-2.35-1.2l-.54-.2a11.66,11.66,0,0,0-2.29,1.26,5.23,5.23,0,0,0-1.46,1.56A3.91,3.91,0,0,0,378.6,540.08Zm4.65-15a4.49,4.49,0,0,0-2.79.83,2.77,2.77,0,0,0-1.08,2.35,3.18,3.18,0,0,0,.53,1.88,4.83,4.83,0,0,0,1.43,1.33,14.65,14.65,0,0,0,2,1,13,13,0,0,0,1.94-1,4.49,4.49,0,0,0,1.36-1.35,3.32,3.32,0,0,0,.5-1.86,2.77,2.77,0,0,0-1.08-2.36A4.55,4.55,0,0,0,383.25,525.07Z"/><path d="M401,528.58h3.44l3.7,10c.19.52.36,1,.53,1.51s.3,1,.42,1.42a13.86,13.86,0,0,1,.3,1.36h.11c.13-.54.3-1.19.54-2s.48-1.55.75-2.35l3.55-10h3.42l-7.53,19.91a12,12,0,0,1-1.5,2.85,6.16,6.16,0,0,1-2.08,1.84,6.05,6.05,0,0,1-2.85.64,8.69,8.69,0,0,1-1.33-.09,7.79,7.79,0,0,1-1-.2V551c.23,0,.51.1.84.14a7.08,7.08,0,0,0,1,.07,3.58,3.58,0,0,0,1.72-.39,3.68,3.68,0,0,0,1.23-1.1,6.83,6.83,0,0,0,.86-1.66L408,546Z"/><path d="M427.14,528.28a7,7,0,0,1,4.82,1.44,5.75,5.75,0,0,1,1.6,4.51V546h-2.28l-.61-2.53h-.13a9.2,9.2,0,0,1-1.52,1.58,5.5,5.5,0,0,1-1.83.95,8.76,8.76,0,0,1-2.52.31,6.67,6.67,0,0,1-2.82-.57,4.33,4.33,0,0,1-1.93-1.71,5.51,5.51,0,0,1-.71-2.92,4.54,4.54,0,0,1,2-4,11.86,11.86,0,0,1,6.19-1.51l3-.12v-1a3.78,3.78,0,0,0-.91-2.88,3.58,3.58,0,0,0-2.53-.84,8.48,8.48,0,0,0-2.58.39,17,17,0,0,0-2.38.92l-1-2.31a14.84,14.84,0,0,1,2.81-1.06A12.76,12.76,0,0,1,427.14,528.28Zm3.27,9.27-2.43.12a7.91,7.91,0,0,0-4.25,1,2.91,2.91,0,0,0-1.23,2.49,2.41,2.41,0,0,0,.84,2,3.54,3.54,0,0,0,2.21.65,5.13,5.13,0,0,0,3.49-1.19,4.43,4.43,0,0,0,1.37-3.54Z"/><path d="M450.36,541.15a4.8,4.8,0,0,1-.83,2.85,5,5,0,0,1-2.41,1.75,11,11,0,0,1-3.8.58,16,16,0,0,1-3.16-.27,10.49,10.49,0,0,1-2.41-.8v-2.82a15.92,15.92,0,0,0,2.68,1,10.72,10.72,0,0,0,3,.43,5.21,5.21,0,0,0,3-.65,2,2,0,0,0,.91-1.75,1.9,1.9,0,0,0-.36-1.15,3.94,3.94,0,0,0-1.28-1,21.75,21.75,0,0,0-2.6-1.14,26.1,26.1,0,0,1-2.84-1.3,5.08,5.08,0,0,1-1.8-1.57,4.17,4.17,0,0,1-.61-2.37,3.89,3.89,0,0,1,1.81-3.46,8.62,8.62,0,0,1,4.79-1.19,13.62,13.62,0,0,1,3,.31,15.32,15.32,0,0,1,2.68.89l-1,2.45a17.49,17.49,0,0,0-2.34-.81,9.22,9.22,0,0,0-2.45-.33,4.87,4.87,0,0,0-2.5.53,1.6,1.6,0,0,0-.86,1.44,1.75,1.75,0,0,0,.41,1.18,4,4,0,0,0,1.35.93c.63.3,1.49.65,2.56,1.06a21.49,21.49,0,0,1,2.76,1.25,5.11,5.11,0,0,1,1.8,1.59A4.16,4.16,0,0,1,450.36,541.15Zm-3.05,9.25a3,3,0,0,1-1.16,2.5,5.79,5.79,0,0,1-3.57.9,8.23,8.23,0,0,1-1-.06,5.45,5.45,0,0,1-.79-.16v-1.9c.23,0,.51.09.86.13a8.78,8.78,0,0,0,1,.06,3.26,3.26,0,0,0,1.57-.31,1.12,1.12,0,0,0,.56-1.07,1.3,1.3,0,0,0-.78-1.21,5.94,5.94,0,0,0-2.13-.57l1.36-2.69h2.07l-.74,1.56a5.07,5.07,0,0,1,1.38.53,2.86,2.86,0,0,1,1,.91A2.41,2.41,0,0,1,447.31,550.4Z"/><path d="M457.65,546h-3.18V528.58h3.18Z"/><path d="M471.75,528.27a6.5,6.5,0,0,1,4.64,1.52q1.62,1.51,1.62,4.87V546h-3.14V535.09A4.65,4.65,0,0,0,474,532a3.55,3.55,0,0,0-2.82-1.06,4.27,4.27,0,0,0-3.79,1.6,8.29,8.29,0,0,0-1.08,4.64V546h-3.18V528.58h2.51l.46,2.46h.18a5.08,5.08,0,0,1,1.41-1.54,6.09,6.09,0,0,1,1.9-.92A7.67,7.67,0,0,1,471.75,528.27Z"/><path d="M489.34,546.33a6.32,6.32,0,0,1-5.1-2.26c-1.27-1.51-1.91-3.74-1.91-6.71s.65-5.26,1.94-6.79a6.41,6.41,0,0,1,5.15-2.3,7.05,7.05,0,0,1,2.36.36,6.08,6.08,0,0,1,1.74,1,5.86,5.86,0,0,1,1.23,1.36h.19c-.05-.33-.11-.79-.16-1.38s-.08-1.11-.08-1.55V521.4h3.18V546h-2.51l-.52-2.42h-.15a6,6,0,0,1-1.21,1.38,5.43,5.43,0,0,1-1.75,1A7.22,7.22,0,0,1,489.34,546.33Zm.74-2.59a4.19,4.19,0,0,0,3.65-1.49,7.62,7.62,0,0,0,1.08-4.41v-.49a9.27,9.27,0,0,0-1-4.79c-.68-1.11-1.92-1.67-3.74-1.67a3.73,3.73,0,0,0-3.34,1.74,8.74,8.74,0,0,0-1.12,4.8,8.2,8.2,0,0,0,1.12,4.67A3.83,3.83,0,0,0,490.08,543.74Z"/><path d="M510,528.28a7,7,0,0,1,4.83,1.44,5.75,5.75,0,0,1,1.6,4.51V546h-2.28l-.62-2.53h-.12a9.59,9.59,0,0,1-1.52,1.58A5.5,5.5,0,0,1,510,546a8.76,8.76,0,0,1-2.52.31,6.64,6.64,0,0,1-2.82-.57,4.41,4.41,0,0,1-1.94-1.71,5.51,5.51,0,0,1-.7-2.92,4.54,4.54,0,0,1,2-4,11.86,11.86,0,0,1,6.19-1.51l3-.12v-1a3.78,3.78,0,0,0-.91-2.88,3.6,3.6,0,0,0-2.54-.84,8.58,8.58,0,0,0-2.58.39,17.36,17.36,0,0,0-2.37.92l-1-2.31a14.84,14.84,0,0,1,2.81-1.06A12.68,12.68,0,0,1,510,528.28Zm3.28,9.27-2.44.12a7.89,7.89,0,0,0-4.24,1,2.91,2.91,0,0,0-1.23,2.49,2.41,2.41,0,0,0,.84,2,3.54,3.54,0,0,0,2.21.65,5.13,5.13,0,0,0,3.49-1.19,4.47,4.47,0,0,0,1.37-3.54Z"/><path d="M545.36,537.27a12.31,12.31,0,0,1-.56,3.84,7.84,7.84,0,0,1-1.63,2.84,7,7,0,0,1-2.57,1.77,9,9,0,0,1-3.41.61,8.4,8.4,0,0,1-3.25-.61,7.06,7.06,0,0,1-2.55-1.77,7.89,7.89,0,0,1-1.66-2.84,11.73,11.73,0,0,1-.59-3.84,11.11,11.11,0,0,1,1-4.88,6.93,6.93,0,0,1,2.81-3.07,8.61,8.61,0,0,1,4.36-1.05,8.19,8.19,0,0,1,4.22,1.06,7.09,7.09,0,0,1,2.83,3.07A10.65,10.65,0,0,1,545.36,537.27Zm-13,0a10.2,10.2,0,0,0,.52,3.46A4.81,4.81,0,0,0,540,543a4.5,4.5,0,0,0,1.59-2.22,10.76,10.76,0,0,0,.5-3.46,10.46,10.46,0,0,0-.5-3.42,4.43,4.43,0,0,0-1.58-2.18,4.63,4.63,0,0,0-2.77-.76,4.17,4.17,0,0,0-3.67,1.67A8.15,8.15,0,0,0,532.4,537.27Z"/><path d="M553,546h-3.2V521.4H553Z"/><path d="M565,528.28a7,7,0,0,1,4.82,1.44,5.75,5.75,0,0,1,1.6,4.51V546h-2.28l-.61-2.53h-.13a9.2,9.2,0,0,1-1.52,1.58,5.5,5.5,0,0,1-1.83.95,8.76,8.76,0,0,1-2.52.31,6.67,6.67,0,0,1-2.82-.57,4.39,4.39,0,0,1-1.93-1.71,5.51,5.51,0,0,1-.71-2.92,4.54,4.54,0,0,1,2-4,11.86,11.86,0,0,1,6.19-1.51l3-.12v-1a3.78,3.78,0,0,0-.91-2.88,3.59,3.59,0,0,0-2.54-.84,8.47,8.47,0,0,0-2.57.39,17,17,0,0,0-2.38.92l-1-2.31a14.84,14.84,0,0,1,2.81-1.06A12.76,12.76,0,0,1,565,528.28Zm3.27,9.27-2.43.12a7.93,7.93,0,0,0-4.25,1,2.91,2.91,0,0,0-1.23,2.49,2.41,2.41,0,0,0,.84,2,3.55,3.55,0,0,0,2.22.65,5.12,5.12,0,0,0,3.48-1.19,4.43,4.43,0,0,0,1.37-3.54Z"/><path d="M583.77,546.33a8.81,8.81,0,0,1-4.21-1,6.55,6.55,0,0,1-2.79-3,11.25,11.25,0,0,1-1-5,11.11,11.11,0,0,1,1.06-5.19,6.81,6.81,0,0,1,2.93-3,9.29,9.29,0,0,1,4.3-1,11.8,11.8,0,0,1,2.66.28,9.32,9.32,0,0,1,2.08.71l-.95,2.58a17.67,17.67,0,0,0-1.9-.61A7.61,7.61,0,0,0,584,531a4.92,4.92,0,0,0-2.78.73,4.46,4.46,0,0,0-1.65,2.16,9.72,9.72,0,0,0-.55,3.51,9.57,9.57,0,0,0,.54,3.43,4.48,4.48,0,0,0,1.62,2.13,4.65,4.65,0,0,0,2.66.72,9.38,9.38,0,0,0,2.53-.31,11,11,0,0,0,2.08-.81v2.8a7.82,7.82,0,0,1-2,.76A12.12,12.12,0,0,1,583.77,546.33Z"/><path d="M599.24,528.28a7,7,0,0,1,4.82,1.44,5.75,5.75,0,0,1,1.6,4.51V546h-2.28l-.61-2.53h-.13a9.2,9.2,0,0,1-1.52,1.58,5.5,5.5,0,0,1-1.83.95,8.76,8.76,0,0,1-2.52.31,6.62,6.62,0,0,1-2.81-.57,4.36,4.36,0,0,1-1.94-1.71,5.51,5.51,0,0,1-.71-2.92,4.54,4.54,0,0,1,2-4,11.89,11.89,0,0,1,6.19-1.51l3-.12v-1a3.78,3.78,0,0,0-.91-2.88,3.58,3.58,0,0,0-2.53-.84,8.48,8.48,0,0,0-2.58.39,17.49,17.49,0,0,0-2.38.92l-1-2.31a15.1,15.1,0,0,1,2.81-1.06A12.76,12.76,0,0,1,599.24,528.28Zm3.27,9.27-2.43.12a7.93,7.93,0,0,0-4.25,1,2.91,2.91,0,0,0-1.23,2.49,2.41,2.41,0,0,0,.84,2,3.55,3.55,0,0,0,2.22.65,5.12,5.12,0,0,0,3.48-1.19,4.43,4.43,0,0,0,1.37-3.54Z"/><path d="M614.13,521.4v12.34q0,.74-.06,1.65c0,.62-.07,1.19-.1,1.71h.11c.24-.32.56-.74,1-1.25s.77-1,1.08-1.32l5.57-5.95h3.67l-7,7.49,7.48,9.95H622.1l-5.87-8-2.1,1.87V546H611V521.4Z"/><path d="M640.26,541.15a4.8,4.8,0,0,1-.83,2.85,5,5,0,0,1-2.41,1.75,11,11,0,0,1-3.8.58,16.22,16.22,0,0,1-3.17-.27,10.57,10.57,0,0,1-2.4-.8v-2.82a16.12,16.12,0,0,0,2.67,1,10.84,10.84,0,0,0,3,.43,5.21,5.21,0,0,0,3-.65,2.06,2.06,0,0,0,.91-1.75,1.84,1.84,0,0,0-.37-1.15,3.78,3.78,0,0,0-1.27-1,22.51,22.51,0,0,0-2.6-1.14,25.24,25.24,0,0,1-2.84-1.3,5,5,0,0,1-1.8-1.57,4.17,4.17,0,0,1-.61-2.37,3.89,3.89,0,0,1,1.81-3.46,8.61,8.61,0,0,1,4.78-1.19,13.65,13.65,0,0,1,3,.31,15.32,15.32,0,0,1,2.68.89l-1,2.45a17.49,17.49,0,0,0-2.34-.81,9.29,9.29,0,0,0-2.46-.33,4.85,4.85,0,0,0-2.49.53,1.6,1.6,0,0,0-.86,1.44,1.79,1.79,0,0,0,.4,1.18,4,4,0,0,0,1.36.93c.63.3,1.48.65,2.56,1.06a22.13,22.13,0,0,1,2.76,1.25,5.2,5.2,0,0,1,1.8,1.59A4.16,4.16,0,0,1,640.26,541.15Z"/><path d="M647.55,546h-3.18V528.58h3.18Z"/><path d="M661.65,528.27a6.5,6.5,0,0,1,4.64,1.52q1.62,1.51,1.62,4.87V546h-3.15V535.09a4.65,4.65,0,0,0-.91-3.14,3.58,3.58,0,0,0-2.82-1.06,4.26,4.26,0,0,0-3.79,1.6,8.29,8.29,0,0,0-1.08,4.64V546H653V528.58h2.51L656,531h.18a5,5,0,0,1,1.4-1.54,6.15,6.15,0,0,1,1.91-.92A7.67,7.67,0,0,1,661.65,528.27Z"/></svg>