<svg id="Слой_1" data-name="Слой 1" xmlns="http://www.w3.org/2000/svg" xmlns:xlink="http://www.w3.org/1999/xlink" viewBox="0 0 1024 768"><defs><style>.cls-1{fill:#88cf00;}.cls-2{fill:#fff;}.cls-3{fill:#007fcf;}.cls-4{fill:url(#Безымянный_градиент_8);}.cls-5{fill:url(#Безымянный_градиент_8-2);}.cls-6{fill:url(#Безымянный_градиент_69);}.cls-7{fill:#fc9064;}</style><linearGradient id="Безымянный_градиент_8" x1="41.49" y1="476.25" x2="101.02" y2="476.25" gradientUnits="userSpaceOnUse"><stop offset="0" stop-color="#fff" stop-opacity="0"/><stop offset="1" stop-color="#646464"/></linearGradient><linearGradient id="Безымянный_градиент_8-2" x1="981.55" y1="476.32" x2="922.01" y2="476.17" xlink:href="#Безымянный_градиент_8"/><linearGradient id="Безымянный_градиент_69" x1="1352.6" y1="-1718.33" x2="1291.46" y2="-1718.48" gradientTransform="translate(-810.62 2329.43)" gradientUnits="userSpaceOnUse"><stop offset="0" stop-color="#fff" stop-opacity="0"/><stop offset="0.29" stop-color="#cdcdcd" stop-opacity="0.32"/><stop offset="0.76" stop-color="#818181" stop-opacity="0.81"/><stop offset="1" stop-color="#646464"/></linearGradient></defs><title>Язык</title><rect class="cls-1" x="22.04" y="156.45" width="116.01" height="213.33"/><rect class="cls-2" x="22.04" y="369.77" width="116.01" height="213.33"/><rect class="cls-3" x="886.03" y="156.45" width="116.01" height="213.33"/><rect class="cls-2" x="886.03" y="369.77" width="116.01" height="213.33"/><rect class="cls-4" x="41.49" y="369.39" width="59.53" height="213.71"/><rect class="cls-5" x="922.01" y="369.39" width="59.53" height="213.71"/><rect class="cls-6" x="481.64" y="164.66" width="59.53" height="892.73" transform="translate(1122.43 99.62) rotate(90)"/><rect class="cls-7" x="64.78" y="128.21" width="892.99" height="241.18"/><rect class="cls-2" x="64.78" y="369.39" width="892.99" height="241.18"/><path class="cls-2" d="M409,186.2l-3.4-9.12h-12l-3.36,9.12h-4.47l11.71-30.79h4.4l11.64,30.79Zm-4.59-12.86-3.23-9-.45-1.38c-.21-.61-.41-1.25-.61-1.91s-.37-1.2-.49-1.63c-.14.57-.31,1.17-.49,1.81s-.36,1.23-.53,1.78-.32,1-.43,1.33l-3.27,9Z"/><path class="cls-2" d="M431,186.2l-9.56-26.36h-.17c0,.57.08,1.31.13,2.21s.09,1.88.13,2.94.05,2.09.05,3.11v18.1h-3.94V155.54h6.19l9.08,25H433l9.31-25h6.15V186.2h-4.15V167.85c0-.92,0-1.89,0-2.89s.06-1.94.11-2.85.1-1.64.14-2.23h-.19l-9.79,26.32Z"/><path class="cls-2" d="M475.82,186.2l-3.39-9.12h-12l-3.35,9.12h-4.47l11.7-30.79h4.4l11.64,30.79Zm-4.59-12.86-3.23-9-.45-1.38c-.2-.61-.4-1.25-.61-1.91s-.36-1.2-.49-1.63c-.14.57-.3,1.17-.48,1.81s-.36,1.23-.54,1.78-.31,1-.43,1.33l-3.27,9Z"/><path class="cls-2" d="M508.2,186.2h-4.3V172H488.78V186.2h-4.29V155.54h4.29v12.79H503.9V155.54h4.3Z"/><path class="cls-2" d="M549.75,155.54l-13,14.85,10.38,12h5v12h-4.13V186.2h-2.79L531.9,170.64V186.2h-4.3V155.54h4.3v14.85l13-14.85Z"/><path class="cls-2" d="M576.15,186.2l-3.4-9.12h-12l-3.36,9.12h-4.47l11.7-30.79H569l11.64,30.79Zm-4.59-12.86-3.23-9-.45-1.38c-.21-.61-.41-1.25-.61-1.91s-.37-1.2-.5-1.63c-.14.57-.3,1.17-.48,1.81s-.36,1.23-.53,1.78-.32,1-.43,1.33l-3.27,9Z"/><path class="cls-2" d="M607.23,186.2H603V159.25h-9.33c-.2,1.5-.41,3.08-.62,4.75s-.44,3.34-.67,5-.47,3.24-.7,4.73-.47,2.81-.7,4a24.38,24.38,0,0,1-1.38,4.86,7.25,7.25,0,0,1-2.25,3.06,5.92,5.92,0,0,1-3.69,1.06,8.46,8.46,0,0,1-1.5-.14,8,8,0,0,1-1.31-.34v-3.59a7.18,7.18,0,0,0,1.08.35,5.51,5.51,0,0,0,1.25.13,2.29,2.29,0,0,0,1.91-.93,7.37,7.37,0,0,0,1.16-2.5c.3-1,.57-2.19.81-3.44.17-.9.37-2,.6-3.47s.48-3,.74-4.84.55-3.77.83-5.87.57-4.26.85-6.48h17.2Z"/><path class="cls-2" d="M638.37,155.54l-9.86,22.08a31.1,31.1,0,0,1-2.66,4.95,9.14,9.14,0,0,1-3.3,3,10.65,10.65,0,0,1-5,1,14.42,14.42,0,0,1-2.31-.18,15.85,15.85,0,0,1-2-.45v-4.05a9,9,0,0,0,1.94.61,10.66,10.66,0,0,0,2.12.21,6.56,6.56,0,0,0,2.65-.49,5,5,0,0,0,1.87-1.51,12.06,12.06,0,0,0,1.48-2.61l-11.51-22.61h4.63l8,16.17a7,7,0,0,1,.4.82c.14.32.28.65.43,1a10,10,0,0,1,.37,1h.17c.09-.26.21-.55.33-.89l.39-1c.13-.34.25-.63.37-.88l7-16.17Z"/><path class="cls-2" d="M360.17,234.58a9.68,9.68,0,0,1-1.05,4.63,8.77,8.77,0,0,1-2.91,3.2,12.41,12.41,0,0,1-4.33,1.76v.18q4.71.6,7.09,3a8.6,8.6,0,0,1,2.39,6.35,11.52,11.52,0,0,1-1.62,6.1,10.74,10.74,0,0,1-5,4.19,21.13,21.13,0,0,1-8.63,1.51,31.57,31.57,0,0,1-5.86-.51,21.36,21.36,0,0,1-5.13-1.65V258.4a24.34,24.34,0,0,0,5.32,1.93A23.48,23.48,0,0,0,346,261q5.16,0,7.41-2a7,7,0,0,0,2.26-5.51,5.8,5.8,0,0,0-1.22-3.8,7.14,7.14,0,0,0-3.6-2.17,21.45,21.45,0,0,0-6-.7h-3.7v-4.48h3.76a14.64,14.64,0,0,0,5.46-.88,6.74,6.74,0,0,0,3.2-2.47,6.58,6.58,0,0,0,1.06-3.73,5.33,5.33,0,0,0-1.82-4.31,7.87,7.87,0,0,0-5.15-1.52,14.48,14.48,0,0,0-3.74.44,15.73,15.73,0,0,0-3.13,1.18,23.81,23.81,0,0,0-2.8,1.64L335.33,229a20.9,20.9,0,0,1,5.3-2.86,19.85,19.85,0,0,1,7.15-1.19q6.08,0,9.24,2.67A8.76,8.76,0,0,1,360.17,234.58Z"/><path class="cls-2" d="M379.92,240.55a16,16,0,0,1,6.84,1.36,10.45,10.45,0,0,1,4.57,4,11.84,11.84,0,0,1,1.63,6.38,13.66,13.66,0,0,1-1.75,7.07,11.51,11.51,0,0,1-5.11,4.57,18.75,18.75,0,0,1-8.1,1.59,29,29,0,0,1-5.75-.54,14.92,14.92,0,0,1-4.54-1.62v-5a18.64,18.64,0,0,0,4.82,1.88,22,22,0,0,0,5.44.72,12.93,12.93,0,0,0,5-.89,7.13,7.13,0,0,0,3.28-2.7,8.42,8.42,0,0,0,1.16-4.6,7.11,7.11,0,0,0-2.3-5.67q-2.3-2-7.21-2a24.33,24.33,0,0,0-3.56.29c-1.28.19-2.33.38-3.16.58l-2.54-1.54,1.51-18.93h20.09v4.83H374.84l-.92,10.88c.67-.14,1.5-.28,2.49-.43A25.45,25.45,0,0,1,379.92,240.55Z"/><path class="cls-2" d="M425,245.16a46.17,46.17,0,0,1-.72,8.59,19.58,19.58,0,0,1-2.31,6.4,10.76,10.76,0,0,1-4.11,4,12.63,12.63,0,0,1-6.09,1.36,11.25,11.25,0,0,1-7.4-2.4,14.33,14.33,0,0,1-4.35-7,37,37,0,0,1-1.43-11,39.82,39.82,0,0,1,1.3-10.87,13.72,13.72,0,0,1,4.2-7,11.51,11.51,0,0,1,7.68-2.45,11.36,11.36,0,0,1,7.47,2.42,14.31,14.31,0,0,1,4.35,7A37.17,37.17,0,0,1,425,245.16Zm-20.95,0a43,43,0,0,0,.75,8.78,10.72,10.72,0,0,0,2.46,5.26,6,6,0,0,0,4.51,1.74,6.09,6.09,0,0,0,4.52-1.73,10.4,10.4,0,0,0,2.48-5.24,43.2,43.2,0,0,0,.75-8.81,42.31,42.31,0,0,0-.75-8.68,10.84,10.84,0,0,0-2.45-5.27,6.76,6.76,0,0,0-9.1,0,10.66,10.66,0,0,0-2.43,5.27A42.38,42.38,0,0,0,404,245.16Z"/><path class="cls-2" d="M456,268.18v-5.62a37.87,37.87,0,0,1-6-.57,20.07,20.07,0,0,1-4.74-1.38v-5.05a26.74,26.74,0,0,0,4.95,1.64A28.62,28.62,0,0,0,456,258V247a32.76,32.76,0,0,1-6.11-2.54,9.54,9.54,0,0,1-3.56-3.23,8.5,8.5,0,0,1-1.16-4.55,8.15,8.15,0,0,1,1.35-4.72,9.13,9.13,0,0,1,3.8-3.11,15.55,15.55,0,0,1,5.68-1.32V223h3.41v4.46a28.46,28.46,0,0,1,5.4.67,28.93,28.93,0,0,1,4.64,1.49l-1.7,4.4a29.06,29.06,0,0,0-4.08-1.3,28.09,28.09,0,0,0-4.26-.67v10.83a43.71,43.71,0,0,1,6,2.29,10.24,10.24,0,0,1,3.87,3,7.66,7.66,0,0,1,1.35,4.7,8.18,8.18,0,0,1-2.89,6.47c-1.93,1.66-4.69,2.67-8.29,3v5.81Zm0-26.53v-9.5a9,9,0,0,0-3,.69,4.37,4.37,0,0,0-1.85,1.44,3.69,3.69,0,0,0-.62,2.13,4.64,4.64,0,0,0,.54,2.33,4.52,4.52,0,0,0,1.76,1.63A15.47,15.47,0,0,0,456,241.65Zm3.41,16.13a8.46,8.46,0,0,0,4.41-1.49,3.76,3.76,0,0,0,1.45-3.08,4,4,0,0,0-.58-2.2,4.85,4.85,0,0,0-1.87-1.54,19.18,19.18,0,0,0-3.41-1.28Z"/><path class="cls-2" d="M517.9,265l-4.37-11.75H498.05L493.73,265H488l15.07-39.65h5.67l15,39.65ZM512,248.41l-4.16-11.64-.58-1.79c-.26-.79-.53-1.61-.79-2.45s-.47-1.55-.63-2.11c-.18.74-.39,1.52-.62,2.33s-.47,1.59-.69,2.3l-.55,1.72-4.22,11.64Z"/><path class="cls-2" d="M529.11,225.48h5.1v21.87c0,.88,0,1.85,0,2.89s0,2.07-.09,3.08-.08,1.91-.12,2.7-.09,1.39-.12,1.78h.21l21-32.32h6.29V265h-5.07V243.3c0-1,0-2,.05-3.1s.08-2.17.12-3.21.1-2,.15-2.75.09-1.4.11-1.8h-.22L535.43,265h-6.32Zm27.66-12.4a10.74,10.74,0,0,1-1.42,4.69,7.39,7.39,0,0,1-3.5,2.93,19.32,19.32,0,0,1-12.15,0,6.6,6.6,0,0,1-3.32-2.89,11.31,11.31,0,0,1-1.25-4.75h5q.3,3,1.59,4a6.68,6.68,0,0,0,4.19,1.05,6.59,6.59,0,0,0,4-1.12c1-.74,1.59-2.07,1.79-4Z"/><path class="cls-2" d="M572,265V225.48h5.54v16.39h5.43a21.42,21.42,0,0,1,8.63,1.46,9.73,9.73,0,0,1,4.71,4,11.69,11.69,0,0,1,1.46,5.84,11,11,0,0,1-3.47,8.6Q590.79,265,583.32,265Zm5.54-4.64h5.4q4.59,0,6.86-1.73a6.34,6.34,0,0,0,2.27-5.38,6.46,6.46,0,0,0-1.08-4,5.73,5.73,0,0,0-3.24-2,20.54,20.54,0,0,0-5.4-.6h-4.81ZM603.44,265V225.48H609V265Z"/><path class="cls-2" d="M650.24,265h-5.53V246.73H625.23V265H619.7V225.48h5.53V242h19.48V225.48h5.53Z"/><path class="cls-2" d="M685.49,265l-4.38-11.75H665.64L661.32,265h-5.76l15.07-39.65h5.67l15,39.65Zm-5.92-16.55-4.16-11.64c-.12-.4-.32-1-.58-1.79s-.52-1.61-.78-2.45-.47-1.55-.63-2.11c-.19.74-.39,1.52-.63,2.33s-.46,1.59-.69,2.3-.4,1.28-.55,1.72l-4.21,11.64Z"/><path class="cls-2" d="M357,335.57h-5.17l-13.59-15.84v15.84h-4.38V304.36h4.38v15.11l13.27-15.11h4.89l-13.19,15.11Z"/><path class="cls-2" d="M369.63,311.64c2.9,0,5.07.65,6.5,1.93s2.16,3.32,2.16,6.1v15.9h-3.07l-.84-3.42h-.17a12,12,0,0,1-2,2.14,7.54,7.54,0,0,1-2.47,1.28,12,12,0,0,1-3.4.42,9,9,0,0,1-3.8-.76,6,6,0,0,1-2.62-2.32,7.44,7.44,0,0,1-.95-3.94,6.14,6.14,0,0,1,2.76-5.44c1.83-1.24,4.61-1.91,8.34-2l4.06-.17V320c0-1.84-.41-3.13-1.23-3.89a4.89,4.89,0,0,0-3.43-1.13,11.51,11.51,0,0,0-3.48.53,24.65,24.65,0,0,0-3.2,1.24l-1.36-3.11a19.2,19.2,0,0,1,3.78-1.43A16.73,16.73,0,0,1,369.63,311.64ZM374,324.15l-3.28.15q-4.08.15-5.73,1.35a3.92,3.92,0,0,0-1.66,3.36,3.27,3.27,0,0,0,1.13,2.76,4.78,4.78,0,0,0,3,.87A6.87,6.87,0,0,0,372.2,331a6,6,0,0,0,1.84-4.77Z"/><path class="cls-2" d="M405.57,312.05v23.52h-4.31v-20H389.75v20h-4.31V312.05Z"/><path class="cls-2" d="M417,312.05v13.4c0,.33,0,.75,0,1.27s-.05,1.06-.09,1.63-.07,1.11-.1,1.6-.05.89-.08,1.16L429,312.05h5.23v23.52H430.2V322.42q0-.8,0-1.95c0-.78,0-1.53.1-2.26s.07-1.28.08-1.68l-12.27,19h-5.25V312.05Z"/><path class="cls-2" d="M458.5,315.53h-7.73v20h-4.26v-20h-7.65v-3.48H458.5Z"/><path class="cls-2" d="M472.08,311.64c2.9,0,5.07.65,6.5,1.93s2.16,3.32,2.16,6.1v15.9h-3.07l-.84-3.42h-.17a12,12,0,0,1-2,2.14,7.54,7.54,0,0,1-2.47,1.28,12,12,0,0,1-3.4.42,9,9,0,0,1-3.8-.76,6,6,0,0,1-2.62-2.32,7.44,7.44,0,0,1-.95-3.94,6.14,6.14,0,0,1,2.76-5.44c1.83-1.24,4.61-1.91,8.34-2l4.06-.17V320c0-1.84-.41-3.13-1.23-3.89a4.89,4.89,0,0,0-3.43-1.13,11.51,11.51,0,0,0-3.48.53,24.65,24.65,0,0,0-3.2,1.24l-1.36-3.11a19.07,19.07,0,0,1,3.79-1.43A16.6,16.6,0,0,1,472.08,311.64Zm4.41,12.51-3.28.15q-4.08.15-5.73,1.35a3.92,3.92,0,0,0-1.66,3.36,3.27,3.27,0,0,0,1.13,2.76,4.78,4.78,0,0,0,3,.87,6.87,6.87,0,0,0,4.71-1.61,6,6,0,0,0,1.84-4.77Z"/><path class="cls-2" d="M506.4,335.57h-4.34V315.5h-6.83c-.28,3.65-.64,6.76-1.06,9.34a31.37,31.37,0,0,1-1.62,6.32,8.75,8.75,0,0,1-2.35,3.59,5.13,5.13,0,0,1-3.35,1.14,8,8,0,0,1-1.33-.1,4.26,4.26,0,0,1-1.07-.29v-3.33a3.2,3.2,0,0,0,.69.19,6.23,6.23,0,0,0,.77.05,2.27,2.27,0,0,0,1.61-.72,6.29,6.29,0,0,0,1.34-2.24,23.21,23.21,0,0,0,1.11-3.91c.34-1.6.63-3.51.89-5.76s.48-4.82.68-7.73H506.4Z"/><path class="cls-2" d="M513.08,314.52a2.82,2.82,0,0,1,.82-2.31,3,3,0,0,1,2-.68,3.11,3.11,0,0,1,2,.68,2.79,2.79,0,0,1,.83,2.31,2.82,2.82,0,0,1-.83,2.29,3,3,0,0,1-2,.7,3,3,0,0,1-2-.7A2.85,2.85,0,0,1,513.08,314.52Zm0,18.61a2.8,2.8,0,0,1,.82-2.29,3,3,0,0,1,2-.67,3.1,3.1,0,0,1,2,.67,2.77,2.77,0,0,1,.83,2.29,2.88,2.88,0,0,1-.83,2.31,3,3,0,0,1-2,.73,2.69,2.69,0,0,1-2.81-3Z"/><path class="cls-2" d="M556,335.57H535.19V332.2l8.22-8.35q2.34-2.37,3.89-4.15a15.52,15.52,0,0,0,2.34-3.46,8.44,8.44,0,0,0,.79-3.66,4.73,4.73,0,0,0-1.43-3.71,5.46,5.46,0,0,0-3.8-1.28,9.2,9.2,0,0,0-3.85.78,17,17,0,0,0-3.56,2.23l-2.3-2.86a19.19,19.19,0,0,1,2.73-1.94,14.52,14.52,0,0,1,3.22-1.37,13.87,13.87,0,0,1,3.89-.52,11.58,11.58,0,0,1,5,1,7.64,7.64,0,0,1,3.27,2.9,8.23,8.23,0,0,1,1.15,4.4,10.83,10.83,0,0,1-1,4.62,18.33,18.33,0,0,1-2.81,4.22c-1.21,1.39-2.63,2.88-4.29,4.46l-6.08,6v.2H556Z"/><path class="cls-2" d="M574.16,335.57h-4.24V312.38c0-.64,0-1.24.06-1.82s.06-1.13.08-1.67c-.37.38-.75.75-1.16,1.1s-.87.74-1.4,1.18l-3.56,2.88-2.2-2.81,8.86-6.88h3.56Z"/><path class="cls-2" d="M618.66,328.52h-4.44v7.05H610v-7.05H595.38v-3.39l14.55-20.9h4.29v20.6h4.44ZM610,324.83v-9c0-.71,0-1.39,0-2s0-1.26.07-1.85,0-1.12.08-1.63,0-1,.06-1.38h-.17q-.41.86-.9,1.77a17.26,17.26,0,0,1-1.06,1.71l-8.64,12.38Z"/><path class="cls-2" d="M631.77,316.27a12.71,12.71,0,0,1,5.41,1.08,8.33,8.33,0,0,1,3.61,3.15,9.35,9.35,0,0,1,1.29,5,10.76,10.76,0,0,1-1.39,5.59,9,9,0,0,1-4,3.6,14.83,14.83,0,0,1-6.41,1.26,23.28,23.28,0,0,1-4.54-.42,11.9,11.9,0,0,1-3.59-1.28v-4a14.56,14.56,0,0,0,3.81,1.48,17.37,17.37,0,0,0,4.3.57,10.12,10.12,0,0,0,3.94-.71,5.52,5.52,0,0,0,2.59-2.13,6.52,6.52,0,0,0,.92-3.63,5.6,5.6,0,0,0-1.81-4.48c-1.21-1.06-3.11-1.58-5.7-1.58a19.23,19.23,0,0,0-2.82.22c-1,.15-1.84.3-2.5.46l-2-1.22,1.19-15h15.88v3.82H627.76l-.73,8.61c.53-.12,1.18-.23,2-.35A20.29,20.29,0,0,1,631.77,316.27Z"/><path class="cls-2" d="M667.31,335.57H646.52V332.2l8.22-8.35q2.34-2.37,3.89-4.15a15.52,15.52,0,0,0,2.34-3.46,8.59,8.59,0,0,0,.79-3.66,4.73,4.73,0,0,0-1.43-3.71,5.46,5.46,0,0,0-3.8-1.28,9.16,9.16,0,0,0-3.85.78,17,17,0,0,0-3.56,2.23l-2.3-2.86a19.19,19.19,0,0,1,2.73-1.94,14.32,14.32,0,0,1,3.22-1.37,13.87,13.87,0,0,1,3.89-.52,11.5,11.5,0,0,1,5,1,7.61,7.61,0,0,1,3.28,2.9,8.23,8.23,0,0,1,1.15,4.4,10.83,10.83,0,0,1-1,4.62,18.33,18.33,0,0,1-2.81,4.22q-1.82,2.09-4.29,4.46l-6.08,6v.2h15.35Z"/><path class="cls-2" d="M680.52,338.11v-4.44a29.5,29.5,0,0,1-4.77-.45,16,16,0,0,1-3.75-1.09v-4a21.67,21.67,0,0,0,3.92,1.29,22,22,0,0,0,4.6.63v-8.69a25.66,25.66,0,0,1-4.84-2,7.51,7.51,0,0,1-2.8-2.55,6.65,6.65,0,0,1-.92-3.6,6.35,6.35,0,0,1,1.07-3.73,7.21,7.21,0,0,1,3-2.46,12.2,12.2,0,0,1,4.49-1V302.4h2.69v3.52a22.93,22.93,0,0,1,4.27.54,21.54,21.54,0,0,1,3.67,1.17l-1.35,3.48a22.05,22.05,0,0,0-3.22-1,21.23,21.23,0,0,0-3.37-.53v8.56a34.58,34.58,0,0,1,4.71,1.81,8.2,8.2,0,0,1,3.06,2.39A6.08,6.08,0,0,1,692,326a6.45,6.45,0,0,1-2.28,5.11,11.43,11.43,0,0,1-6.55,2.38v4.59Zm0-21v-7.52a7.38,7.38,0,0,0-2.38.55,3.37,3.37,0,0,0-1.46,1.14,2.86,2.86,0,0,0-.49,1.69,3.7,3.7,0,0,0,.42,1.83,3.57,3.57,0,0,0,1.39,1.29A12.46,12.46,0,0,0,680.52,317.15Zm2.69,12.74a6.75,6.75,0,0,0,3.49-1.17,3,3,0,0,0,1.14-2.44,3.09,3.09,0,0,0-.46-1.74,3.89,3.89,0,0,0-1.47-1.21,15.8,15.8,0,0,0-2.7-1Z"/><path d="M255.86,469.53l17.74-38.72H250.12V425.4h30v4.35l-17.65,39.78Z"/><path d="M294.55,462.35l.39.69q-.54,2.2-1.37,4.71t-1.82,5c-.67,1.67-1.33,3.25-2,4.74h-4.46q.63-2.42,1.22-5.1t1.09-5.28c.33-1.73.59-3.32.8-4.77Z"/><path d="M302.52,450.7a53.08,53.08,0,0,1,.56-7.73,30.41,30.41,0,0,1,1.9-7.06,18.51,18.51,0,0,1,3.7-5.78,16.3,16.3,0,0,1,5.88-3.91,22.81,22.81,0,0,1,8.52-1.42q1.32,0,2.94.12a13.61,13.61,0,0,1,2.67.42v5.1a14.69,14.69,0,0,0-2.57-.54,22.4,22.4,0,0,0-2.83-.18c-3.73,0-6.64.76-8.76,2.28a12.39,12.39,0,0,0-4.52,6.19,30.6,30.6,0,0,0-1.57,8.82h.33a11.24,11.24,0,0,1,2.32-2.68,10.65,10.65,0,0,1,3.43-1.92,14.15,14.15,0,0,1,4.69-.71,13.64,13.64,0,0,1,6.73,1.59,10.84,10.84,0,0,1,4.44,4.6,15.69,15.69,0,0,1,1.57,7.33,17.13,17.13,0,0,1-1.72,7.94,12.12,12.12,0,0,1-4.91,5.16,15.06,15.06,0,0,1-7.59,1.81,14.71,14.71,0,0,1-6-1.22,13.23,13.23,0,0,1-4.83-3.65,17.24,17.24,0,0,1-3.2-6.07A28.08,28.08,0,0,1,302.52,450.7Zm15.12,14.39a7.88,7.88,0,0,0,6.05-2.43q2.28-2.43,2.28-7.41a9.59,9.59,0,0,0-2-6.44q-2-2.37-6.1-2.37a9.56,9.56,0,0,0-4.84,1.18,8.86,8.86,0,0,0-3.2,2.94,6.66,6.66,0,0,0-1.13,3.61,14,14,0,0,0,.54,3.82,12,12,0,0,0,1.66,3.53,8.7,8.7,0,0,0,2.81,2.59A7.67,7.67,0,0,0,317.64,465.09Z"/><path d="M397,436.27l-13.44,16.12,14.61,17.14h-6.76l-14.09-16.87v16.87h-5.65V452.66l-14.06,16.87h-6.77l14.61-17.14L352,436.27h6.52l13.16,16.15V436.27h5.65v16.15l13.19-16.15Z"/><path d="M403.49,469.53V436.27h6.09v13.49h7.91a21.56,21.56,0,0,1,7.34,1.07,8.54,8.54,0,0,1,4.3,3.19,9.34,9.34,0,0,1,1.4,5.25,10.42,10.42,0,0,1-1.36,5.43,8.82,8.82,0,0,1-4.27,3.56,19.12,19.12,0,0,1-7.59,1.27Zm6.09-4.65h7.25a11,11,0,0,0,5.58-1.23,4.45,4.45,0,0,0,2.11-4.17,4.07,4.07,0,0,0-2-3.88,11.76,11.76,0,0,0-5.64-1.1h-7.34Zm26.26,4.65V436.27h6.07v33.26Z"/><path d="M478.4,469.53h-6.13V441.16h-9.65q-.62,7.72-1.51,13.2a45.11,45.11,0,0,1-2.28,8.94,12.39,12.39,0,0,1-3.34,5.07,7.2,7.2,0,0,1-4.74,1.61,12.39,12.39,0,0,1-1.87-.13,6.47,6.47,0,0,1-1.51-.41v-4.71a4.33,4.33,0,0,0,1,.26,7.49,7.49,0,0,0,1.09.07,3.17,3.17,0,0,0,2.27-1,9.09,9.09,0,0,0,1.91-3.17,35,35,0,0,0,1.57-5.54q.7-3.37,1.25-8.13t1-10.94h21Z"/><path d="M514.5,436.27v28.37h4.8v16.48h-5.73V469.53H490.32v11.59h-5.64V464.64h2.66a37.76,37.76,0,0,0,4.46-8.37,55,55,0,0,0,2.75-9.69,65.69,65.69,0,0,0,1.12-10.31ZM508.56,441H501a61.86,61.86,0,0,1-1.28,8.51,58,58,0,0,1-2.46,8.18,35.3,35.3,0,0,1-3.57,6.94h14.92Z"/><path d="M538.38,435.7q6.15,0,9.2,2.73c2,1.82,3,4.69,3,8.61v22.49h-4.34l-1.18-4.83h-.24a17.5,17.5,0,0,1-2.9,3,10.26,10.26,0,0,1-3.49,1.81,16.74,16.74,0,0,1-4.81.6,12.79,12.79,0,0,1-5.38-1.08,8.39,8.39,0,0,1-3.69-3.28,10.44,10.44,0,0,1-1.35-5.57,8.68,8.68,0,0,1,3.9-7.69q3.89-2.62,11.8-2.87l5.73-.24v-1.87c0-2.6-.57-4.43-1.73-5.5a6.92,6.92,0,0,0-4.85-1.6,16.42,16.42,0,0,0-4.92.74,37.85,37.85,0,0,0-4.52,1.77l-1.93-4.41a27.37,27.37,0,0,1,5.35-2A24.07,24.07,0,0,1,538.38,435.7Zm6.25,17.68-4.65.21c-3.85.15-6.55.78-8.11,1.92a5.55,5.55,0,0,0-2.34,4.75,4.64,4.64,0,0,0,1.6,3.9,6.77,6.77,0,0,0,4.23,1.24,9.75,9.75,0,0,0,6.65-2.28c1.74-1.52,2.62-3.77,2.62-6.75Z"/><path d="M566.84,436.27v13.67h17V436.27h6v33.26h-6v-14.7h-17v14.7h-6.1V436.27Z"/><path d="M636.38,436.27h6.67l-14,16,15.18,17.23h-7l-14.73-16.87v16.87h-6.1V436.27h6.1v16.15Z"/><path d="M663,435.67a14.25,14.25,0,0,1,7.45,1.85,12.24,12.24,0,0,1,4.77,5.24,17.84,17.84,0,0,1,1.66,8v3.44H654.25q.09,5.34,2.75,8.19a9.68,9.68,0,0,0,7.45,2.85,24.06,24.06,0,0,0,5.65-.6,29.89,29.89,0,0,0,5.13-1.78v5.1a24,24,0,0,1-5,1.68,29.91,29.91,0,0,1-6,.52,17.72,17.72,0,0,1-8.46-1.93,13.36,13.36,0,0,1-5.66-5.72,19.61,19.61,0,0,1-2-9.34,21.89,21.89,0,0,1,1.85-9.4,13.63,13.63,0,0,1,5.19-6A14.6,14.6,0,0,1,663,435.67Zm0,4.7a7.7,7.7,0,0,0-5.92,2.4,11.21,11.21,0,0,0-2.63,6.87h16.36a13.25,13.25,0,0,0-.87-4.83,7.19,7.19,0,0,0-2.55-3.26A7.61,7.61,0,0,0,662.92,440.37Z"/><path d="M690.9,436.27v19c0,.47,0,1.07,0,1.8s-.07,1.5-.12,2.31-.1,1.56-.14,2.26-.08,1.25-.12,1.63l17.42-27h7.39v33.26h-5.73V450.94c0-.75,0-1.67,0-2.76s.08-2.16.14-3.19.1-1.82.12-2.38L692.5,469.53h-7.43V436.27Zm21.88-13.83a11.89,11.89,0,0,1-1.59,5.24,8.2,8.2,0,0,1-3.9,3.28,17.46,17.46,0,0,1-6.77,1.11A17.75,17.75,0,0,1,693.7,431a7.37,7.37,0,0,1-3.71-3.23,12.79,12.79,0,0,1-1.39-5.32h5.59q.33,3.36,1.78,4.53c1,.79,2.52,1.18,4.67,1.18a7.41,7.41,0,0,0,4.52-1.25c1.11-.84,1.78-2.32,2-4.46Z"/><path d="M728.75,423.68a3.82,3.82,0,0,1,2.49.85,3.34,3.34,0,0,1,1,2.74,3.42,3.42,0,0,1-1,2.77,3.83,3.83,0,0,1-2.49.86,3.76,3.76,0,0,1-2.5-.86,3.47,3.47,0,0,1-1-2.77,3.39,3.39,0,0,1,1-2.74A3.75,3.75,0,0,1,728.75,423.68Zm3,12.59v33.26h-6.06V436.27Z"/><path d="M748.18,436.27v13.67h17.06V436.27h6v33.26h-6v-14.7H748.18v14.7h-6.09V436.27Z"/><path d="M357.36,531.36a8,8,0,0,0-3.21.62,6.38,6.38,0,0,0-2.39,1.82,8.35,8.35,0,0,0-1.51,2.87,14.29,14.29,0,0,0,.31,8.62,6.71,6.71,0,0,0,2.51,3.15,7.51,7.51,0,0,0,4.22,1.11,14.44,14.44,0,0,0,2.91-.28,23.38,23.38,0,0,0,2.76-.72v2.79a15.1,15.1,0,0,1-2.75.75,20,20,0,0,1-3.31.24,10.9,10.9,0,0,1-5.89-1.47,8.94,8.94,0,0,1-3.51-4.13,15.77,15.77,0,0,1-1.15-6.29,15.2,15.2,0,0,1,.72-4.8,10.83,10.83,0,0,1,2.14-3.77,9.36,9.36,0,0,1,3.46-2.45,12,12,0,0,1,4.72-.86,15.25,15.25,0,0,1,3.39.37,14.77,14.77,0,0,1,3.05,1l-1.2,2.71a20.6,20.6,0,0,0-2.48-.92A9.8,9.8,0,0,0,357.36,531.36Z"/><path d="M369.17,528a2,2,0,0,1,1.31.44,1.78,1.78,0,0,1,.55,1.44,1.8,1.8,0,0,1-.55,1.45,2,2,0,0,1-1.31.45,1.94,1.94,0,0,1-1.3-.45,1.82,1.82,0,0,1-.53-1.45,1.8,1.8,0,0,1,.53-1.44A2,2,0,0,1,369.17,528Zm1.57,6.59V552h-3.18V534.58Z"/><path d="M381.13,534.27a10.24,10.24,0,0,1,3.42.52,5.16,5.16,0,0,1,2.33,1.54,3.84,3.84,0,0,1,.83,2.53,3.5,3.5,0,0,1-.88,2.5,5,5,0,0,1-2.41,1.34v.14a8.12,8.12,0,0,1,1.95.79,3.94,3.94,0,0,1,1.39,1.36,4,4,0,0,1,.52,2.14,4.45,4.45,0,0,1-.83,2.64,5.5,5.5,0,0,1-2.51,1.88,11.67,11.67,0,0,1-4.3.68,20.16,20.16,0,0,1-2.39-.13,14,14,0,0,1-2.06-.39,8.89,8.89,0,0,1-1.62-.6v-2.78a15.45,15.45,0,0,0,2.62,1,12.49,12.49,0,0,0,3.26.41,9.62,9.62,0,0,0,2.39-.28,3.58,3.58,0,0,0,1.69-.91,2.52,2.52,0,0,0,.07-3.23,3.35,3.35,0,0,0-1.65-.91,10.94,10.94,0,0,0-2.8-.3h-2.21V541.7h1.88a9.28,9.28,0,0,0,3.6-.57,2,2,0,0,0,1.32-2,2,2,0,0,0-1-1.78,5.74,5.74,0,0,0-2.89-.58,11.14,11.14,0,0,0-2.58.29,17.08,17.08,0,0,0-2.47.83l-1.06-2.42a16,16,0,0,1,3-.92A17.32,17.32,0,0,1,381.13,534.27Z"/><path d="M414.2,534.22a5.65,5.65,0,0,1-.62,2.71,5.14,5.14,0,0,1-1.71,1.88,7.25,7.25,0,0,1-2.53,1V540a6.84,6.84,0,0,1,4.15,1.75,5,5,0,0,1,1.4,3.72,6.73,6.73,0,0,1-.95,3.58,6.3,6.3,0,0,1-2.91,2.45,12.45,12.45,0,0,1-5.06.88,18.4,18.4,0,0,1-3.43-.3,12.74,12.74,0,0,1-3-1v-2.9a13.6,13.6,0,0,0,3.12,1.13,13.75,13.75,0,0,0,3.23.41,6.49,6.49,0,0,0,4.34-1.17,4.1,4.1,0,0,0,1.32-3.23,3.38,3.38,0,0,0-.71-2.22,4.22,4.22,0,0,0-2.11-1.28,12.8,12.8,0,0,0-3.49-.41h-2.17v-2.62h2.2a8.37,8.37,0,0,0,3.2-.52,3.68,3.68,0,0,0,2.49-3.63,3.1,3.1,0,0,0-1.06-2.52,4.57,4.57,0,0,0-3-.9,8.31,8.31,0,0,0-2.19.27,9.23,9.23,0,0,0-1.83.68,15,15,0,0,0-1.64,1l-1.57-2.2a12.67,12.67,0,0,1,3.11-1.68,11.8,11.8,0,0,1,4.19-.69,8.21,8.21,0,0,1,5.41,1.56A5.13,5.13,0,0,1,414.2,534.22Z"/><path d="M425.9,528.56a9.69,9.69,0,0,1,3.59.63,5.6,5.6,0,0,1,2.5,1.86,5,5,0,0,1,.91,3,4.86,4.86,0,0,1-.6,2.45,6,6,0,0,1-1.6,1.83,12.77,12.77,0,0,1-2.23,1.4,15.89,15.89,0,0,1,2.59,1.52,7,7,0,0,1,1.87,2,5.24,5.24,0,0,1,.69,2.74,5.88,5.88,0,0,1-.95,3.34,6.17,6.17,0,0,1-2.69,2.19,9.82,9.82,0,0,1-4,.76,10.89,10.89,0,0,1-4.24-.73,5.77,5.77,0,0,1-2.65-2.12,5.89,5.89,0,0,1-.91-3.33,5.5,5.5,0,0,1,.67-2.78,6.62,6.62,0,0,1,1.75-2A12.28,12.28,0,0,1,423,539.9a12.13,12.13,0,0,1-2-1.44,6.43,6.43,0,0,1-1.47-1.89,5.55,5.55,0,0,1-.54-2.51,4.82,4.82,0,0,1,.92-3,5.87,5.87,0,0,1,2.52-1.86A9.48,9.48,0,0,1,425.9,528.56Zm-4.68,17.52a3.52,3.52,0,0,0,1.16,2.71,6.27,6.27,0,0,0,7,0,3.49,3.49,0,0,0,1.21-2.78,3.26,3.26,0,0,0-.57-1.91,5.74,5.74,0,0,0-1.6-1.48,13.92,13.92,0,0,0-2.35-1.2l-.54-.2a11.66,11.66,0,0,0-2.29,1.26,5.4,5.4,0,0,0-1.47,1.56A4,4,0,0,0,421.22,546.08Zm4.65-15a4.47,4.47,0,0,0-2.79.83,2.77,2.77,0,0,0-1.08,2.35,3.18,3.18,0,0,0,.53,1.88,4.83,4.83,0,0,0,1.43,1.33,14.1,14.1,0,0,0,2,1,13,13,0,0,0,1.94-1,4.49,4.49,0,0,0,1.36-1.35,3.4,3.4,0,0,0,.5-1.86,2.77,2.77,0,0,0-1.08-2.36A4.57,4.57,0,0,0,425.87,531.07Z"/><path d="M467.83,534.58l-7,8.45,7.65,9H464.9l-7.39-8.85V552h-3v-8.85L447.18,552h-3.54l7.65-9-7.05-8.45h3.42l6.89,8.47v-8.47h3v8.47l6.91-8.47Z"/><path d="M477.9,534.28a7,7,0,0,1,4.83,1.44,5.78,5.78,0,0,1,1.6,4.51V552h-2.28l-.62-2.53h-.13a9.17,9.17,0,0,1-1.51,1.58A5.5,5.5,0,0,1,478,552a8.78,8.78,0,0,1-2.53.31,6.62,6.62,0,0,1-2.81-.57,4.41,4.41,0,0,1-1.94-1.71,5.51,5.51,0,0,1-.7-2.92,4.54,4.54,0,0,1,2-4,11.85,11.85,0,0,1,6.18-1.51l3-.12v-1a3.78,3.78,0,0,0-.91-2.88,3.6,3.6,0,0,0-2.54-.84,8.48,8.48,0,0,0-2.58.39,17.36,17.36,0,0,0-2.37.92l-1-2.31a14.73,14.73,0,0,1,2.8-1.06A12.76,12.76,0,0,1,477.9,534.28Zm3.28,9.27-2.44.12a8,8,0,0,0-4.25,1,2.93,2.93,0,0,0-1.22,2.49,2.41,2.41,0,0,0,.84,2,3.5,3.5,0,0,0,2.21.65,5.15,5.15,0,0,0,3.49-1.19,4.47,4.47,0,0,0,1.37-3.54Z"/><path d="M496.63,552.33a8.86,8.86,0,0,1-4.21-1,6.55,6.55,0,0,1-2.79-3,13.23,13.23,0,0,1,.07-10.21,6.88,6.88,0,0,1,2.94-3,9.28,9.28,0,0,1,4.29-1,12,12,0,0,1,2.67.28,9.32,9.32,0,0,1,2.08.71l-.95,2.58a17.87,17.87,0,0,0-1.91-.61,7.53,7.53,0,0,0-1.93-.27,4.89,4.89,0,0,0-2.78.73,4.46,4.46,0,0,0-1.65,2.16,9.71,9.71,0,0,0-.56,3.51,9.34,9.34,0,0,0,.55,3.43,4.46,4.46,0,0,0,1.61,2.13,4.66,4.66,0,0,0,2.67.72,9.38,9.38,0,0,0,2.53-.31,10.62,10.62,0,0,0,2.07-.81v2.8a7.75,7.75,0,0,1-2,.76A12.15,12.15,0,0,1,496.63,552.33Z"/><path d="M518,537.16h-5.73V552h-3.16V537.16H503.4v-2.58H518Z"/><path d="M528,534.28a7,7,0,0,1,4.82,1.44,5.75,5.75,0,0,1,1.6,4.51V552h-2.28l-.61-2.53h-.13a9.2,9.2,0,0,1-1.52,1.58,5.5,5.5,0,0,1-1.83.95,8.76,8.76,0,0,1-2.52.31,6.62,6.62,0,0,1-2.81-.57,4.36,4.36,0,0,1-1.94-1.71,5.51,5.51,0,0,1-.71-2.92,4.54,4.54,0,0,1,2-4,11.89,11.89,0,0,1,6.19-1.51l3-.12v-1a3.82,3.82,0,0,0-.91-2.88,3.62,3.62,0,0,0-2.54-.84,8.48,8.48,0,0,0-2.58.39,17.49,17.49,0,0,0-2.38.92l-1-2.31a15.1,15.1,0,0,1,2.81-1.06A12.76,12.76,0,0,1,528,534.28Zm3.27,9.27-2.43.12a7.93,7.93,0,0,0-4.25,1,2.91,2.91,0,0,0-1.23,2.49,2.41,2.41,0,0,0,.84,2,3.55,3.55,0,0,0,2.22.65,5.12,5.12,0,0,0,3.48-1.19,4.43,4.43,0,0,0,1.37-3.54Z"/><path d="M547.22,541.56a22.9,22.9,0,0,1,.78-6.4,9.57,9.57,0,0,1,2.42-4.25,8.76,8.76,0,0,1,4.27-2.2c1.3-.32,2.61-.6,3.95-.83s2.65-.45,4-.64l.49,2.79c-.64.08-1.32.18-2,.29l-2.12.34c-.71.12-1.38.24-2,.37s-1.21.25-1.7.39a5.92,5.92,0,0,0-2.41,1.14,5.25,5.25,0,0,0-1.55,2.29,12.57,12.57,0,0,0-.69,3.83h.2a7.63,7.63,0,0,1,1.25-1.34,7.15,7.15,0,0,1,1.9-1.11,6.66,6.66,0,0,1,2.52-.44,6.79,6.79,0,0,1,3.72,1,6,6,0,0,1,2.3,2.69,10.16,10.16,0,0,1,.78,4.16,10.63,10.63,0,0,1-1,4.83,6.75,6.75,0,0,1-2.81,2.93,8.67,8.67,0,0,1-4.23,1,7.51,7.51,0,0,1-3.34-.71,6.74,6.74,0,0,1-2.52-2.09,10,10,0,0,1-1.58-3.39A17.58,17.58,0,0,1,547.22,541.56Zm8.21,8.16a4.59,4.59,0,0,0,2.4-.59,3.85,3.85,0,0,0,1.56-1.87,8.62,8.62,0,0,0,.55-3.37,7.46,7.46,0,0,0-1-4.08,3.47,3.47,0,0,0-3.12-1.48,5.2,5.2,0,0,0-2.44.58,7,7,0,0,0-1.86,1.37,6.73,6.73,0,0,0-1.09,1.41,17.89,17.89,0,0,0,.23,2.95,9.6,9.6,0,0,0,.77,2.58,4.49,4.49,0,0,0,1.52,1.83A4.18,4.18,0,0,0,555.43,549.72Z"/><path d="M582.88,543.27a12.31,12.31,0,0,1-.56,3.84,7.7,7.7,0,0,1-1.63,2.84,6.89,6.89,0,0,1-2.57,1.77,8.92,8.92,0,0,1-3.4.61,8.36,8.36,0,0,1-3.25-.61,7,7,0,0,1-2.56-1.77,8,8,0,0,1-1.66-2.84,11.74,11.74,0,0,1-.58-3.84,11,11,0,0,1,1-4.88,6.88,6.88,0,0,1,2.81-3.07,8.57,8.57,0,0,1,4.35-1.05,8.2,8.2,0,0,1,4.23,1.06,7.21,7.21,0,0,1,2.83,3.07A10.79,10.79,0,0,1,582.88,543.27Zm-13,0a10.47,10.47,0,0,0,.51,3.46,4.82,4.82,0,0,0,7.08,2.22,4.48,4.48,0,0,0,1.58-2.22,10.47,10.47,0,0,0,.51-3.46,10.18,10.18,0,0,0-.51-3.42,4.41,4.41,0,0,0-1.57-2.18,4.66,4.66,0,0,0-2.78-.76,4.14,4.14,0,0,0-3.66,1.67A8.07,8.07,0,0,0,569.93,543.27Z"/><path d="M601,552h-3.22V537.15h-5.06c-.21,2.7-.47,5-.79,6.92a23.56,23.56,0,0,1-1.19,4.68,6.55,6.55,0,0,1-1.75,2.66,3.83,3.83,0,0,1-2.49.84,6.19,6.19,0,0,1-1-.07,2.84,2.84,0,0,1-.79-.21V549.5a2.13,2.13,0,0,0,.51.14,5.1,5.1,0,0,0,.57,0,1.69,1.69,0,0,0,1.19-.53,4.78,4.78,0,0,0,1-1.66,18.66,18.66,0,0,0,.82-2.91q.38-1.77.66-4.26t.5-5.74h11Z"/><path d="M613.08,534.28a7,7,0,0,1,4.83,1.44,5.78,5.78,0,0,1,1.59,4.51V552h-2.27l-.62-2.53h-.13a8.84,8.84,0,0,1-1.52,1.58,5.35,5.35,0,0,1-1.82.95,8.83,8.83,0,0,1-2.53.31,6.62,6.62,0,0,1-2.81-.57,4.36,4.36,0,0,1-1.94-1.71,5.51,5.51,0,0,1-.7-2.92,4.54,4.54,0,0,1,2-4,11.85,11.85,0,0,1,6.18-1.51l3-.12v-1a3.82,3.82,0,0,0-.91-2.88,3.6,3.6,0,0,0-2.54-.84,8.48,8.48,0,0,0-2.58.39,17.36,17.36,0,0,0-2.37.92l-1-2.31a15.1,15.1,0,0,1,2.81-1.06A12.76,12.76,0,0,1,613.08,534.28Zm3.28,9.27-2.44.12a8,8,0,0,0-4.25,1,2.91,2.91,0,0,0-1.22,2.49,2.43,2.43,0,0,0,.83,2,3.55,3.55,0,0,0,2.22.65,5.15,5.15,0,0,0,3.49-1.19,4.47,4.47,0,0,0,1.37-3.54Z"/><path d="M631.81,552.33a8.86,8.86,0,0,1-4.21-1,6.55,6.55,0,0,1-2.79-3,13.23,13.23,0,0,1,.07-10.21,6.88,6.88,0,0,1,2.94-3,9.28,9.28,0,0,1,4.29-1,12,12,0,0,1,2.67.28,9.32,9.32,0,0,1,2.08.71l-1,2.58a17.87,17.87,0,0,0-1.91-.61,7.53,7.53,0,0,0-1.93-.27,4.89,4.89,0,0,0-2.78.73,4.4,4.4,0,0,0-1.65,2.16,9.71,9.71,0,0,0-.56,3.51,9.34,9.34,0,0,0,.55,3.43,4.46,4.46,0,0,0,1.61,2.13,4.66,4.66,0,0,0,2.67.72,9.38,9.38,0,0,0,2.53-.31,10.62,10.62,0,0,0,2.07-.81v2.8a7.75,7.75,0,0,1-2,.76A12.15,12.15,0,0,1,631.81,552.33Z"/><path d="M640.61,552V534.58h3.19v7.08H648a11,11,0,0,1,3.84.56,4.44,4.44,0,0,1,2.26,1.67,4.86,4.86,0,0,1,.73,2.75,5.53,5.53,0,0,1-.71,2.85,4.6,4.6,0,0,1-2.24,1.86,9.94,9.94,0,0,1-4,.67Zm3.19-2.44h3.8a5.71,5.71,0,0,0,2.93-.65,2.33,2.33,0,0,0,1.1-2.18,2.13,2.13,0,0,0-1-2,6.11,6.11,0,0,0-3-.58H643.8ZM657.57,552V534.58h3.18V552Z"/><path d="M671.12,534.27a10.24,10.24,0,0,1,3.42.52,5.16,5.16,0,0,1,2.33,1.54,3.89,3.89,0,0,1,.83,2.53,3.5,3.5,0,0,1-.88,2.5,5,5,0,0,1-2.41,1.34v.14a8.12,8.12,0,0,1,2,.79,3.94,3.94,0,0,1,1.39,1.36,4,4,0,0,1,.52,2.14,4.45,4.45,0,0,1-.83,2.64,5.5,5.5,0,0,1-2.51,1.88,11.71,11.71,0,0,1-4.3.68,20.16,20.16,0,0,1-2.39-.13,14,14,0,0,1-2.06-.39,8.89,8.89,0,0,1-1.62-.6v-2.78a15.45,15.45,0,0,0,2.62,1,12.49,12.49,0,0,0,3.26.41,9.62,9.62,0,0,0,2.39-.28,3.58,3.58,0,0,0,1.69-.91,2.52,2.52,0,0,0,.07-3.23,3.34,3.34,0,0,0-1.66-.91,10.8,10.8,0,0,0-2.79-.3h-2.21V541.7h1.88a9.28,9.28,0,0,0,3.6-.57,2,2,0,0,0,1.32-2,2,2,0,0,0-1-1.78,5.78,5.78,0,0,0-2.9-.58,11.12,11.12,0,0,0-2.57.29,17.08,17.08,0,0,0-2.47.83l-1.06-2.42a16,16,0,0,1,3-.92A17.32,17.32,0,0,1,671.12,534.27Z"/></svg>