<svg id="Слой_1" data-name="Слой 1" xmlns="http://www.w3.org/2000/svg" xmlns:xlink="http://www.w3.org/1999/xlink" viewBox="0 0 1024 768"><defs><style>.cls-1{fill:#88cf00;}.cls-2{fill:#fff;}.cls-3{fill:#007fcf;}.cls-4{fill:url(#Безымянный_градиент_8);}.cls-5{fill:url(#Безымянный_градиент_8-2);}.cls-6{fill:url(#Безымянный_градиент_69);}.cls-7{fill:#fc9064;}</style><linearGradient id="Безымянный_градиент_8" x1="46.04" y1="455.25" x2="105.58" y2="455.25" gradientUnits="userSpaceOnUse"><stop offset="0" stop-color="#fff" stop-opacity="0"/><stop offset="1" stop-color="#646464"/></linearGradient><linearGradient id="Безымянный_градиент_8-2" x1="986.1" y1="455.32" x2="926.57" y2="455.17" xlink:href="#Безымянный_градиент_8"/><linearGradient id="Безымянный_градиент_69" x1="2249.6" y1="-2640.89" x2="2188.46" y2="-2641.03" gradientTransform="translate(-1703.07 3230.98)" gradientUnits="userSpaceOnUse"><stop offset="0" stop-color="#fff" stop-opacity="0"/><stop offset="0.29" stop-color="#cdcdcd" stop-opacity="0.32"/><stop offset="0.76" stop-color="#818181" stop-opacity="0.81"/><stop offset="1" stop-color="#646464"/></linearGradient></defs><title>Узбекский</title><rect class="cls-1" x="26.59" y="135.45" width="116.01" height="213.33"/><rect class="cls-2" x="26.59" y="348.77" width="116.01" height="213.33"/><rect class="cls-3" x="890.58" y="135.45" width="116.01" height="213.33"/><rect class="cls-2" x="890.58" y="348.77" width="116.01" height="213.33"/><rect class="cls-4" x="46.04" y="348.39" width="59.53" height="213.71"/><rect class="cls-5" x="926.56" y="348.39" width="59.53" height="213.71"/><rect class="cls-6" x="486.19" y="143.66" width="59.53" height="892.73" transform="translate(1105.98 74.07) rotate(90)"/><rect class="cls-7" x="69.34" y="107.21" width="892.99" height="241.18"/><rect class="cls-2" x="69.34" y="348.39" width="892.99" height="241.18"/><path class="cls-2" d="M465.38,165.2h-4.32V138.25h-9.31v-3.71h22.92v3.71h-9.29Z"/><path class="cls-2" d="M479.33,165.2V134.54h4.3V165.2Z"/><path class="cls-2" d="M500.34,134.54a18.52,18.52,0,0,1,6.41,1,7.36,7.36,0,0,1,3.76,2.9,8.92,8.92,0,0,1,1.24,4.91,8.41,8.41,0,0,1-.86,4,7.72,7.72,0,0,1-2.25,2.64,12.22,12.22,0,0,1-3,1.62l8.57,13.67H509.3l-7.47-12.54h-5.64V165.2h-4.3V134.54Zm-.27,3.65h-3.88v10.88h4.17q3.63,0,5.31-1.41a5.18,5.18,0,0,0,1.68-4.19,4.58,4.58,0,0,0-1.79-4.08A10,10,0,0,0,500.07,138.19Z"/><path class="cls-2" d="M545.76,149.83a21.76,21.76,0,0,1-.9,6.45,14.07,14.07,0,0,1-2.67,5,11.83,11.83,0,0,1-4.43,3.22,15.72,15.72,0,0,1-6.19,1.13,16.08,16.08,0,0,1-6.28-1.13,11.73,11.73,0,0,1-4.44-3.23,13.9,13.9,0,0,1-2.63-5,22.46,22.46,0,0,1-.87-6.45,20.54,20.54,0,0,1,1.55-8.27,11.84,11.84,0,0,1,4.73-5.5,15,15,0,0,1,8-2,14.56,14.56,0,0,1,7.8,1.95,12.1,12.1,0,0,1,4.74,5.48A20.21,20.21,0,0,1,545.76,149.83Zm-23.9,0a17.92,17.92,0,0,0,1,6.45,8.7,8.7,0,0,0,3.18,4.19,11,11,0,0,0,11,0,8.53,8.53,0,0,0,3.15-4.19,18.64,18.64,0,0,0,1-6.45q0-5.67-2.3-8.86c-1.54-2.14-4-3.2-7.3-3.2a9.61,9.61,0,0,0-5.52,1.46,8.52,8.52,0,0,0-3.2,4.15A17.72,17.72,0,0,0,521.86,149.83Z"/><path class="cls-2" d="M579.36,149.83a21.57,21.57,0,0,1-1,6.69,13.62,13.62,0,0,1-2.91,5.1,11.86,11.86,0,0,1-4.83,3.14l7.25,7.74H572l-5.85-6.92a3.93,3.93,0,0,0-.49,0l-.48,0a16.12,16.12,0,0,1-6.28-1.13,11.7,11.7,0,0,1-4.43-3.23,13.76,13.76,0,0,1-2.64-5,22.46,22.46,0,0,1-.87-6.45,20.37,20.37,0,0,1,1.56-8.27,11.88,11.88,0,0,1,4.72-5.5,15,15,0,0,1,8-2A14.57,14.57,0,0,1,573,136a12.22,12.22,0,0,1,4.74,5.48A20.21,20.21,0,0,1,579.36,149.83Zm-23.91,0a18.14,18.14,0,0,0,1,6.45,8.71,8.71,0,0,0,3.19,4.19,11,11,0,0,0,11,0,8.57,8.57,0,0,0,3.14-4.19,18.63,18.63,0,0,0,1-6.45q0-5.67-2.31-8.86c-1.54-2.14-4-3.2-7.3-3.2a9.6,9.6,0,0,0-5.51,1.46,8.59,8.59,0,0,0-3.21,4.15A17.72,17.72,0,0,0,555.45,149.83Z"/><path class="cls-2" d="M390.8,213.58a9.68,9.68,0,0,1-1.05,4.63,8.71,8.71,0,0,1-2.92,3.2,12.28,12.28,0,0,1-4.32,1.76v.18q4.71.6,7.09,3A8.6,8.6,0,0,1,392,232.7a11.52,11.52,0,0,1-1.62,6.1,10.74,10.74,0,0,1-5,4.19,21.13,21.13,0,0,1-8.63,1.51,31.57,31.57,0,0,1-5.86-.51,21.36,21.36,0,0,1-5.13-1.65V237.4a24.34,24.34,0,0,0,5.32,1.93,23.48,23.48,0,0,0,5.51.69q5.16,0,7.41-2a7,7,0,0,0,2.26-5.51,5.8,5.8,0,0,0-1.22-3.8,7.14,7.14,0,0,0-3.6-2.17,21.45,21.45,0,0,0-6-.7h-3.7v-4.48h3.75a14.66,14.66,0,0,0,5.47-.88,6.79,6.79,0,0,0,3.2-2.47,6.58,6.58,0,0,0,1.06-3.73,5.31,5.31,0,0,0-1.83-4.31,7.82,7.82,0,0,0-5.14-1.52,14.48,14.48,0,0,0-3.74.44,15.73,15.73,0,0,0-3.13,1.18,23.81,23.81,0,0,0-2.8,1.64L366,208a20.73,20.73,0,0,1,5.3-2.86,19.81,19.81,0,0,1,7.15-1.19q6.07,0,9.23,2.67A8.73,8.73,0,0,1,390.8,213.58Z"/><path class="cls-2" d="M410.55,219.55a16,16,0,0,1,6.84,1.36,10.45,10.45,0,0,1,4.57,4,11.84,11.84,0,0,1,1.63,6.38,13.66,13.66,0,0,1-1.75,7.07,11.51,11.51,0,0,1-5.11,4.57,18.75,18.75,0,0,1-8.1,1.59,29,29,0,0,1-5.75-.54,14.83,14.83,0,0,1-4.54-1.62v-5a18.64,18.64,0,0,0,4.82,1.88,22,22,0,0,0,5.44.72,12.93,12.93,0,0,0,5-.89,7.13,7.13,0,0,0,3.28-2.7,8.42,8.42,0,0,0,1.16-4.6,7.11,7.11,0,0,0-2.3-5.67q-2.3-2-7.21-2a24.22,24.22,0,0,0-3.56.29c-1.28.19-2.34.38-3.16.58l-2.54-1.54,1.51-18.93h20.09v4.83H405.47l-.92,10.88c.67-.14,1.5-.28,2.49-.43A25.45,25.45,0,0,1,410.55,219.55Z"/><path class="cls-2" d="M455.62,224.16a45.28,45.28,0,0,1-.73,8.59,19.13,19.13,0,0,1-2.31,6.4,10.67,10.67,0,0,1-4.1,4,12.63,12.63,0,0,1-6.09,1.36,11.25,11.25,0,0,1-7.4-2.4,14.26,14.26,0,0,1-4.35-7,37,37,0,0,1-1.43-11,39.82,39.82,0,0,1,1.3-10.87,13.72,13.72,0,0,1,4.2-7,11.51,11.51,0,0,1,7.68-2.45,11.38,11.38,0,0,1,7.47,2.42,14.31,14.31,0,0,1,4.35,7A37.17,37.17,0,0,1,455.62,224.16Zm-20.95,0a43,43,0,0,0,.75,8.78,10.63,10.63,0,0,0,2.46,5.26,6,6,0,0,0,4.51,1.74,6.09,6.09,0,0,0,4.52-1.73,10.31,10.31,0,0,0,2.47-5.24,42.42,42.42,0,0,0,.76-8.81,41.54,41.54,0,0,0-.76-8.68,10.75,10.75,0,0,0-2.44-5.27,6.76,6.76,0,0,0-9.1,0,10.66,10.66,0,0,0-2.43,5.27A42.38,42.38,0,0,0,434.67,224.16Z"/><path class="cls-2" d="M486.6,247.18v-5.62a37.87,37.87,0,0,1-6-.57,20.07,20.07,0,0,1-4.74-1.38v-5.05a26.74,26.74,0,0,0,4.95,1.64,28.62,28.62,0,0,0,5.82.79V226a33.17,33.17,0,0,1-6.12-2.54,9.59,9.59,0,0,1-3.55-3.23,8.5,8.5,0,0,1-1.16-4.55,8.15,8.15,0,0,1,1.35-4.72,9.13,9.13,0,0,1,3.8-3.11,15.55,15.55,0,0,1,5.68-1.32V202H490v4.46a28.47,28.47,0,0,1,5.41.67,29.26,29.26,0,0,1,4.64,1.49l-1.7,4.4a29.06,29.06,0,0,0-4.08-1.3A28,28,0,0,0,490,211v10.83a43.38,43.38,0,0,1,6,2.29,10.24,10.24,0,0,1,3.87,3,7.66,7.66,0,0,1,1.35,4.7,8.18,8.18,0,0,1-2.89,6.47c-1.93,1.66-4.69,2.67-8.3,3v5.81Zm0-26.53v-9.5a9,9,0,0,0-3,.69,4.37,4.37,0,0,0-1.85,1.44,3.69,3.69,0,0,0-.62,2.13,4.64,4.64,0,0,0,.54,2.33,4.48,4.48,0,0,0,1.75,1.63A15.58,15.58,0,0,0,486.6,220.65Zm3.4,16.13a8.5,8.5,0,0,0,4.42-1.49,3.76,3.76,0,0,0,1.45-3.08,3.9,3.9,0,0,0-.59-2.2,4.74,4.74,0,0,0-1.86-1.54,19,19,0,0,0-3.42-1.28Z"/><path class="cls-2" d="M558.55,224.16a28,28,0,0,1-1.16,8.31A18.05,18.05,0,0,1,554,238.9a15.19,15.19,0,0,1-5.7,4.14,20.08,20.08,0,0,1-8,1.46,20.47,20.47,0,0,1-8.09-1.46,14.85,14.85,0,0,1-5.71-4.16,17.6,17.6,0,0,1-3.39-6.45,28.92,28.92,0,0,1-1.12-8.32,26.37,26.37,0,0,1,2-10.64,15.42,15.42,0,0,1,6.09-7.09,19.37,19.37,0,0,1,10.31-2.53,18.68,18.68,0,0,1,10,2.52,15.57,15.57,0,0,1,6.11,7.06A25.87,25.87,0,0,1,558.55,224.16Zm-30.79,0a23.28,23.28,0,0,0,1.34,8.31,11.22,11.22,0,0,0,4.1,5.4,14.1,14.1,0,0,0,14.17,0,11,11,0,0,0,4-5.4,23.77,23.77,0,0,0,1.3-8.31q0-7.29-3-11.41t-9.4-4.12a12.49,12.49,0,0,0-7.11,1.88,11.13,11.13,0,0,0-4.13,5.35A22.88,22.88,0,0,0,527.76,224.16Z"/><path class="cls-2" d="M577.81,223.38l9.94-18.9h5.94l-13.13,24.14V244H575v-15.1l-13.16-24.38h6Z"/><path class="cls-2" d="M630.69,223.84A22.86,22.86,0,0,1,628.23,235a15.81,15.81,0,0,1-7.11,6.73A25.86,25.86,0,0,1,609.81,244H599V204.48h12a23.11,23.11,0,0,1,10.45,2.2,15.62,15.62,0,0,1,6.81,6.51A21.62,21.62,0,0,1,630.69,223.84Zm-5.81.16a18.82,18.82,0,0,0-1.64-8.37,10.64,10.64,0,0,0-4.84-4.9,17.21,17.21,0,0,0-7.8-1.61h-6.08v30.14h5.1q7.65,0,11.45-3.83T624.88,224Z"/><path class="cls-2" d="M664,244l-4.37-11.75H644.11L639.79,244H634l15.07-39.65h5.67l15,39.65Zm-5.91-16.55-4.16-11.64-.58-1.79c-.26-.79-.52-1.61-.78-2.45s-.48-1.55-.64-2.11c-.18.74-.39,1.52-.62,2.33s-.46,1.59-.69,2.3-.41,1.28-.55,1.72l-4.22,11.64Z"/><path class="cls-2" d="M358.73,283.36c4,0,7,.81,8.82,2.41a8.59,8.59,0,0,1,2.79,6.86,11.54,11.54,0,0,1-.64,3.81,8.09,8.09,0,0,1-2.09,3.18,10.16,10.16,0,0,1-3.78,2.17,17.89,17.89,0,0,1-5.77.8H354.5v12h-4.38V283.36Zm-.35,3.67H354.5V298.9h3.09a14.47,14.47,0,0,0,4.55-.61,5.2,5.2,0,0,0,2.77-2,6,6,0,0,0,.94-3.54,5.19,5.19,0,0,0-1.81-4.34Q362.23,287,358.38,287Z"/><path class="cls-2" d="M396.74,302.76a16.22,16.22,0,0,1-.76,5.18,10.35,10.35,0,0,1-2.2,3.84,9.27,9.27,0,0,1-3.47,2.39,12.08,12.08,0,0,1-4.59.82,11.35,11.35,0,0,1-4.38-.82,9.52,9.52,0,0,1-3.45-2.39,10.7,10.7,0,0,1-2.24-3.84,15.66,15.66,0,0,1-.79-5.18,15,15,0,0,1,1.32-6.58A9.47,9.47,0,0,1,380,292a11.59,11.59,0,0,1,5.88-1.42,11.12,11.12,0,0,1,5.7,1.43,9.65,9.65,0,0,1,3.82,4.14A14.5,14.5,0,0,1,396.74,302.76Zm-17.48,0a14.06,14.06,0,0,0,.69,4.67,6.12,6.12,0,0,0,2.14,3,7.12,7.12,0,0,0,7.41,0,6.06,6.06,0,0,0,2.14-3,14.34,14.34,0,0,0,.68-4.67,14,14,0,0,0-.68-4.61,5.94,5.94,0,0,0-2.13-2.94,6.34,6.34,0,0,0-3.74-1,5.57,5.57,0,0,0-4.94,2.26A10.91,10.91,0,0,0,379.26,302.76Z"/><path class="cls-2" d="M399.06,291.05h4.64l5,13.55q.39,1,.72,2t.57,1.92c.17.62.3,1.23.4,1.82h.15q.25-1.08.72-2.64c.31-1,.66-2.09,1-3.16l4.78-13.53h4.61L411.51,317.9a16,16,0,0,1-2,3.85,8.38,8.38,0,0,1-2.81,2.48,8.12,8.12,0,0,1-3.84.86A12,12,0,0,1,401,325c-.52-.08-1-.17-1.33-.26v-3.42a12.68,12.68,0,0,0,2.54.28,4.81,4.81,0,0,0,2.31-.53,4.89,4.89,0,0,0,1.67-1.48,9.26,9.26,0,0,0,1.16-2.24l1.07-2.77Z"/><path class="cls-2" d="M433.51,311.52a11.78,11.78,0,0,0,1.86-.16,9,9,0,0,0,1.62-.42v3.29a9.21,9.21,0,0,1-1.93.54,13.32,13.32,0,0,1-2.46.22,8.78,8.78,0,0,1-3.48-.66,5.17,5.17,0,0,1-2.49-2.26,8.89,8.89,0,0,1-.93-4.44V294.36h-3.26v-2l3.41-1.58,1.52-5.08H430v5.34h6.81v3.31H430v13.21a4.11,4.11,0,0,0,.95,3A3.39,3.39,0,0,0,433.51,311.52Z"/><path class="cls-2" d="M450.76,290.64c2.9,0,5.07.65,6.51,1.93s2.15,3.32,2.15,6.1v15.9h-3.07l-.83-3.42h-.17a12.39,12.39,0,0,1-2.05,2.14,7.34,7.34,0,0,1-2.47,1.28,11.9,11.9,0,0,1-3.4.42,9,9,0,0,1-3.8-.76,5.94,5.94,0,0,1-2.61-2.32,7.35,7.35,0,0,1-.95-3.94,6.13,6.13,0,0,1,2.75-5.44c1.83-1.24,4.62-1.91,8.34-2l4.06-.17V299c0-1.84-.41-3.13-1.23-3.89a4.88,4.88,0,0,0-3.42-1.13,11.51,11.51,0,0,0-3.48.53,24.11,24.11,0,0,0-3.2,1.24l-1.37-3.11a19.07,19.07,0,0,1,3.79-1.43A16.65,16.65,0,0,1,450.76,290.64Zm4.42,12.51-3.29.15q-4.08.15-5.73,1.35a3.94,3.94,0,0,0-1.65,3.36,3.25,3.25,0,0,0,1.13,2.76,4.75,4.75,0,0,0,3,.87,6.87,6.87,0,0,0,4.71-1.61,6,6,0,0,0,1.85-4.77Z"/><path class="cls-2" d="M472,302.53l-8-11.48h4.89l5.78,8.66,5.79-8.66h4.84l-8,11.48,8.43,12h-4.89l-6.17-9.2-6.21,9.2h-4.84Z"/><path class="cls-2" d="M498.25,311.52a11.88,11.88,0,0,0,1.86-.16,9.49,9.49,0,0,0,1.62-.42v3.29a9.4,9.4,0,0,1-1.93.54,13.51,13.51,0,0,1-2.47.22,8.85,8.85,0,0,1-3.48-.66,5.11,5.11,0,0,1-2.48-2.26,8.89,8.89,0,0,1-.93-4.44V294.36h-3.27v-2l3.42-1.58,1.51-5.08h2.65v5.34h6.81v3.31h-6.81v13.21a4.11,4.11,0,0,0,.95,3A3.36,3.36,0,0,0,498.25,311.52Z"/><path class="cls-2" d="M505.87,293.52a2.82,2.82,0,0,1,.82-2.31,3,3,0,0,1,2-.68,3.1,3.1,0,0,1,2,.68,2.79,2.79,0,0,1,.84,2.31,2.83,2.83,0,0,1-.84,2.29,3,3,0,0,1-2,.7,3,3,0,0,1-2-.7A2.85,2.85,0,0,1,505.87,293.52Zm0,18.61a2.8,2.8,0,0,1,.82-2.29,3,3,0,0,1,2-.67,3.1,3.1,0,0,1,2,.67,2.77,2.77,0,0,1,.84,2.29,2.89,2.89,0,0,1-.84,2.31,3,3,0,0,1-2,.73,2.69,2.69,0,0,1-2.82-3Z"/><path class="cls-2" d="M548.77,314.57H528V311.2l8.22-8.35q2.34-2.37,3.89-4.15a15.19,15.19,0,0,0,2.34-3.46,8.44,8.44,0,0,0,.79-3.66,4.73,4.73,0,0,0-1.43-3.71,5.45,5.45,0,0,0-3.8-1.28,9.2,9.2,0,0,0-3.85.78,17,17,0,0,0-3.56,2.23l-2.3-2.86A19.19,19.19,0,0,1,531,284.8a14.52,14.52,0,0,1,3.22-1.37,13.92,13.92,0,0,1,3.89-.52,11.58,11.58,0,0,1,5,1,7.64,7.64,0,0,1,3.27,2.9,8.23,8.23,0,0,1,1.16,4.4,10.83,10.83,0,0,1-1,4.62,18,18,0,0,1-2.81,4.22q-1.8,2.09-4.28,4.46l-6.09,6v.2h15.35Z"/><path class="cls-2" d="M567,314.57h-4.24V293.46c0-.75,0-1.45,0-2.08s0-1.24,0-1.82.06-1.13.09-1.67c-.37.38-.76.75-1.17,1.1s-.87.74-1.4,1.18l-3.56,2.88-2.2-2.81,8.86-6.88H567Z"/><path class="cls-2" d="M611.46,307.52H607v7.05h-4.21v-7.05H588.17v-3.39l14.56-20.9H607v20.6h4.44Zm-8.65-3.69v-9c0-.71,0-1.39,0-2s0-1.26.07-1.85.05-1.12.08-1.63,0-1,.07-1.38h-.17c-.27.57-.58,1.16-.91,1.77a17.26,17.26,0,0,1-1.06,1.71l-8.64,12.38Z"/><path class="cls-2" d="M624.56,295.27a12.68,12.68,0,0,1,5.41,1.08,8.28,8.28,0,0,1,3.61,3.15,9.35,9.35,0,0,1,1.29,5,10.76,10.76,0,0,1-1.39,5.59,9,9,0,0,1-4,3.6A14.83,14.83,0,0,1,623,315a23.28,23.28,0,0,1-4.54-.42,12,12,0,0,1-3.59-1.28v-4a14.84,14.84,0,0,0,3.81,1.48,17.37,17.37,0,0,0,4.3.57,10.12,10.12,0,0,0,3.94-.71,5.52,5.52,0,0,0,2.59-2.13,6.52,6.52,0,0,0,.92-3.63,5.6,5.6,0,0,0-1.81-4.48c-1.21-1.06-3.11-1.58-5.7-1.58a19.23,19.23,0,0,0-2.82.22c-1,.15-1.84.3-2.49.46l-2-1.22,1.19-15h15.88v3.82H620.55l-.73,8.61c.53-.12,1.18-.23,2-.35A20,20,0,0,1,624.56,295.27Z"/><path class="cls-2" d="M660.1,314.57H639.31V311.2l8.22-8.35q2.34-2.37,3.89-4.15a15.52,15.52,0,0,0,2.34-3.46,8.44,8.44,0,0,0,.79-3.66,4.73,4.73,0,0,0-1.43-3.71,5.45,5.45,0,0,0-3.8-1.28,9.2,9.2,0,0,0-3.85.78,17,17,0,0,0-3.56,2.23l-2.3-2.86a19.19,19.19,0,0,1,2.73-1.94,14.52,14.52,0,0,1,3.22-1.37,13.92,13.92,0,0,1,3.89-.52,11.58,11.58,0,0,1,5,1,7.64,7.64,0,0,1,3.27,2.9,8.23,8.23,0,0,1,1.15,4.4,10.83,10.83,0,0,1-1,4.62,18.6,18.6,0,0,1-2.8,4.22q-1.82,2.09-4.3,4.46l-6.08,6v.2H660.1Z"/><path class="cls-2" d="M673.31,317.11v-4.44a29.72,29.72,0,0,1-4.77-.45,16,16,0,0,1-3.75-1.09v-4a21.67,21.67,0,0,0,3.92,1.29,22.09,22.09,0,0,0,4.6.63v-8.69a25.82,25.82,0,0,1-4.83-2,7.55,7.55,0,0,1-2.81-2.55,6.74,6.74,0,0,1-.92-3.6,6.43,6.43,0,0,1,1.07-3.73,7.21,7.21,0,0,1,3-2.46,12.2,12.2,0,0,1,4.49-1V281.4H676v3.52a22.93,22.93,0,0,1,4.27.54,21.26,21.26,0,0,1,3.67,1.17l-1.35,3.48a22.05,22.05,0,0,0-3.22-1,21.23,21.23,0,0,0-3.37-.53v8.56a35.27,35.27,0,0,1,4.72,1.81,8.16,8.16,0,0,1,3,2.39,6.08,6.08,0,0,1,1.07,3.72,6.46,6.46,0,0,1-2.29,5.11,11.43,11.43,0,0,1-6.55,2.38v4.59Zm0-21v-7.52a7.38,7.38,0,0,0-2.38.55,3.37,3.37,0,0,0-1.46,1.14A2.86,2.86,0,0,0,669,292a3.7,3.7,0,0,0,.42,1.83,3.57,3.57,0,0,0,1.39,1.29A12.46,12.46,0,0,0,673.31,296.15ZM676,308.89a6.75,6.75,0,0,0,3.49-1.17,3,3,0,0,0,1.14-2.44,3.09,3.09,0,0,0-.46-1.74,3.74,3.74,0,0,0-1.47-1.21,15.8,15.8,0,0,0-2.7-1Z"/><path d="M298.8,448.53l17.75-38.72H293.07V404.4h30v4.35l-17.66,39.78Z"/><path d="M337.5,441.35l.39.69q-.54,2.2-1.37,4.71t-1.83,5c-.66,1.67-1.33,3.25-2,4.74h-4.47q.63-2.42,1.22-5.1t1.09-5.28c.33-1.73.6-3.32.8-4.77Z"/><path d="M345.47,429.7A53.08,53.08,0,0,1,346,422a30.42,30.42,0,0,1,1.91-7.06,18.31,18.31,0,0,1,3.69-5.78,16.34,16.34,0,0,1,5.89-3.91A22.72,22.72,0,0,1,366,403.8q1.34,0,2.94.12a13.86,13.86,0,0,1,2.68.42v5.1a14.89,14.89,0,0,0-2.57-.54,22.56,22.56,0,0,0-2.84-.18q-5.58,0-8.75,2.28a12.46,12.46,0,0,0-4.53,6.19,30.94,30.94,0,0,0-1.57,8.82h.33a11.29,11.29,0,0,1,2.33-2.68,10.6,10.6,0,0,1,3.42-1.92,14.21,14.21,0,0,1,4.7-.71,13.67,13.67,0,0,1,6.73,1.59,10.84,10.84,0,0,1,4.44,4.6,15.81,15.81,0,0,1,1.57,7.33,17.25,17.25,0,0,1-1.72,7.94,12.18,12.18,0,0,1-4.91,5.16,15.06,15.06,0,0,1-7.59,1.81,14.75,14.75,0,0,1-6-1.22,13.23,13.23,0,0,1-4.83-3.65,17.41,17.41,0,0,1-3.2-6.07A28.42,28.42,0,0,1,345.47,429.7Zm15.12,14.39a7.91,7.91,0,0,0,6.05-2.43q2.28-2.43,2.28-7.41a9.59,9.59,0,0,0-2-6.44q-2-2.37-6.1-2.37a9.54,9.54,0,0,0-4.84,1.18,8.86,8.86,0,0,0-3.2,2.94,6.59,6.59,0,0,0-1.14,3.61,14.05,14.05,0,0,0,.55,3.82,11.77,11.77,0,0,0,1.66,3.53,8.67,8.67,0,0,0,2.8,2.59A7.71,7.71,0,0,0,360.59,444.09Z"/><path d="M393.76,415.27h6.55l7.06,19.17c.37,1,.7,1.94,1,2.88s.59,1.84.82,2.71.42,1.74.56,2.59H410c.24-1,.58-2.28,1-3.75s.92-3,1.44-4.46l6.77-19.14h6.52l-14.37,38a22.69,22.69,0,0,1-2.85,5.45,12,12,0,0,1-4,3.5,11.46,11.46,0,0,1-5.44,1.22,17.57,17.57,0,0,1-2.55-.16c-.73-.12-1.36-.24-1.88-.38V458c.44.1,1,.19,1.61.27a15.72,15.72,0,0,0,2,.12,6.81,6.81,0,0,0,3.27-.74,6.92,6.92,0,0,0,2.36-2.1,13,13,0,0,0,1.64-3.17L407,448.5Z"/><path d="M434,402.68a3.82,3.82,0,0,1,2.49.85,3.34,3.34,0,0,1,1,2.74,3.42,3.42,0,0,1-1,2.77,3.83,3.83,0,0,1-2.49.86,3.71,3.71,0,0,1-2.49-.86,3.44,3.44,0,0,1-1-2.77,3.36,3.36,0,0,1,1-2.74A3.71,3.71,0,0,1,434,402.68Zm3,12.59v33.26h-6.06V415.27Z"/><path d="M453.4,448.53h-6.09v-47h6.09Z"/><path d="M475.23,449.13a12.08,12.08,0,0,1-9.74-4.31q-3.63-4.32-3.63-12.8c0-5.71,1.23-10,3.69-13a12.2,12.2,0,0,1,9.83-4.39,13.38,13.38,0,0,1,4.5.69,11.37,11.37,0,0,1,3.33,1.84,11,11,0,0,1,2.34,2.6h.36c-.1-.63-.2-1.5-.3-2.63s-.15-2.11-.15-3V401.57h6.07v47h-4.8l-1-4.62h-.27a11,11,0,0,1-2.31,2.64,10.51,10.51,0,0,1-3.35,1.89A13.69,13.69,0,0,1,475.23,449.13Zm1.42-4.95c3.28,0,5.59-.94,7-2.83s2-4.7,2.07-8.42V432c0-4-.65-7-1.95-9.13s-3.67-3.18-7.14-3.18a7.09,7.09,0,0,0-6.36,3.3c-1.43,2.2-2.15,5.26-2.15,9.16s.72,6.84,2.15,8.92A7.28,7.28,0,0,0,476.65,444.18Z"/><path d="M514.62,414.7q6.15,0,9.2,2.73c2,1.82,3,4.69,3,8.61v22.49h-4.34l-1.18-4.83h-.24a17.5,17.5,0,0,1-2.9,3,10.26,10.26,0,0,1-3.49,1.81,16.74,16.74,0,0,1-4.81.6,12.71,12.71,0,0,1-5.37-1.08,8.36,8.36,0,0,1-3.7-3.28,10.44,10.44,0,0,1-1.34-5.57,8.67,8.67,0,0,1,3.89-7.69q3.89-2.62,11.8-2.87l5.73-.24v-1.87c0-2.6-.57-4.43-1.73-5.5a6.92,6.92,0,0,0-4.85-1.6,16.47,16.47,0,0,0-4.92.74,37.85,37.85,0,0,0-4.52,1.77L503,417.53a27.62,27.62,0,0,1,5.35-2A24.12,24.12,0,0,1,514.62,414.7Zm6.25,17.68-4.65.21c-3.85.15-6.55.78-8.11,1.92a5.55,5.55,0,0,0-2.34,4.75,4.64,4.64,0,0,0,1.6,3.9,6.77,6.77,0,0,0,4.23,1.24,9.75,9.75,0,0,0,6.65-2.28c1.74-1.52,2.62-3.77,2.62-6.75Z"/><path d="M553.52,414.67q5.78,0,8.86,2.89t3.1,9.3v21.67h-6V427.67q0-4-1.75-6c-1.17-1.34-3-2-5.37-2q-5.16,0-7.23,3c-1.38,2-2.07,5-2.07,8.85v17H537V415.27h4.8l.88,4.68H543a9.67,9.67,0,0,1,2.69-2.93,11.79,11.79,0,0,1,3.63-1.77A15,15,0,0,1,553.52,414.67Z"/><path d="M597.68,401.57v23.54c0,.92,0,2-.1,3.15s-.14,2.26-.2,3.25h.21c.46-.61,1.08-1.4,1.86-2.39s1.46-1.82,2.07-2.5l10.62-11.35h7L605.8,429.55l14.28,19H612.9l-11.2-15.18-4,3.56v11.62h-6v-47Z"/><path d="M638.64,414.67a14.29,14.29,0,0,1,7.46,1.85,12.24,12.24,0,0,1,4.77,5.24,18,18,0,0,1,1.66,8v3.44H630c.06,3.56,1,6.29,2.75,8.19a9.68,9.68,0,0,0,7.45,2.85,24.12,24.12,0,0,0,5.65-.6,29.89,29.89,0,0,0,5.13-1.78v5.1a24,24,0,0,1-5,1.68,30,30,0,0,1-6,.52,17.79,17.79,0,0,1-8.47-1.93,13.47,13.47,0,0,1-5.66-5.72,19.73,19.73,0,0,1-2-9.34,21.89,21.89,0,0,1,1.84-9.4,13.75,13.75,0,0,1,5.19-6A14.62,14.62,0,0,1,638.64,414.67Zm0,4.7a7.68,7.68,0,0,0-5.91,2.4,11.21,11.21,0,0,0-2.63,6.87h16.36a13,13,0,0,0-.88-4.83,7.06,7.06,0,0,0-2.55-3.26A7.59,7.59,0,0,0,638.61,419.37Z"/><path d="M655.67,415.27h6.55l7.06,19.17c.36,1,.7,1.94,1,2.88s.58,1.84.81,2.71a25.62,25.62,0,0,1,.56,2.59h.22q.36-1.55,1-3.75c.44-1.47.93-3,1.45-4.46l6.76-19.14h6.52l-14.37,38a22,22,0,0,1-2.85,5.45,11.87,11.87,0,0,1-4,3.5,11.45,11.45,0,0,1-5.43,1.22,17.38,17.38,0,0,1-2.55-.16c-.74-.12-1.37-.24-1.89-.38V458q.66.15,1.62.27a15.68,15.68,0,0,0,2,.12,6.49,6.49,0,0,0,5.63-2.84,12.63,12.63,0,0,0,1.65-3.17L669,448.5Z"/><path d="M695.87,402.68a3.78,3.78,0,0,1,2.49.85,3.34,3.34,0,0,1,1,2.74,3.42,3.42,0,0,1-1,2.77,3.79,3.79,0,0,1-2.49.86,3.71,3.71,0,0,1-2.49-.86,3.47,3.47,0,0,1-1-2.77,3.39,3.39,0,0,1,1-2.74A3.71,3.71,0,0,1,695.87,402.68Zm3,12.59v33.26h-6.07V415.27Z"/><path d="M725.75,414.67c3.84,0,6.8,1,8.86,2.89s3.1,5,3.1,9.3v21.67h-6V427.67c0-2.65-.59-4.65-1.75-6s-3-2-5.37-2q-5.18,0-7.23,3c-1.38,2-2.07,5-2.07,8.85v17h-6.07V415.27H714l.88,4.68h.33A9.77,9.77,0,0,1,717.9,417a12,12,0,0,1,3.64-1.77A15,15,0,0,1,725.75,414.67Z"/><path d="M368.72,524.8a6,6,0,0,1-1,3.52,6.43,6.43,0,0,1-2.87,2.24,11.31,11.31,0,0,1-4.4.77,21.15,21.15,0,0,1-2.44-.13,16,16,0,0,1-2.16-.39,10.36,10.36,0,0,1-1.81-.63v-3.07a25.83,25.83,0,0,0,3,1,13.23,13.23,0,0,0,3.56.47,7.2,7.2,0,0,0,2.68-.43,3.55,3.55,0,0,0,1.64-1.23,3.23,3.23,0,0,0,.55-1.9,3.17,3.17,0,0,0-.53-1.86,5,5,0,0,0-1.71-1.38,26.09,26.09,0,0,0-3-1.35,14.62,14.62,0,0,1-2.39-1.08A8.39,8.39,0,0,1,356,518a5.7,5.7,0,0,1-1.21-1.86,6.67,6.67,0,0,1-.43-2.46,5.58,5.58,0,0,1,.95-3.27,5.85,5.85,0,0,1,2.63-2.08,10,10,0,0,1,3.92-.72,15.49,15.49,0,0,1,3.43.36,16.81,16.81,0,0,1,3,1l-1,2.69a20,20,0,0,0-2.71-.9,10.87,10.87,0,0,0-2.81-.35,5.81,5.81,0,0,0-2.27.39,3.09,3.09,0,0,0-1.41,1.13,3,3,0,0,0-.48,1.72,3.32,3.32,0,0,0,.5,1.87,4.57,4.57,0,0,0,1.6,1.34,23.94,23.94,0,0,0,2.85,1.28,20.31,20.31,0,0,1,3.36,1.62,6.2,6.2,0,0,1,2.11,2A5.75,5.75,0,0,1,368.72,524.8Z"/><path d="M374.51,507a2.05,2.05,0,0,1,1.31.44,1.77,1.77,0,0,1,.54,1.44,1.79,1.79,0,0,1-.54,1.45,2,2,0,0,1-1.31.45,1.92,1.92,0,0,1-1.3-.45,1.79,1.79,0,0,1-.53-1.45,1.77,1.77,0,0,1,.53-1.44A2,2,0,0,1,374.51,507Zm1.57,6.59V531H372.9V513.58Z"/><path d="M392.94,531H380v-2l9.17-12.94h-8.6v-2.47h12.18v2.25l-9,12.74h9.25Z"/><path d="M418.63,513.22a5.54,5.54,0,0,1-.62,2.71,5.2,5.2,0,0,1-1.7,1.88,7.3,7.3,0,0,1-2.54,1V519a6.9,6.9,0,0,1,4.16,1.75,5.06,5.06,0,0,1,1.4,3.72,6.82,6.82,0,0,1-.95,3.58,6.33,6.33,0,0,1-2.92,2.45,12.42,12.42,0,0,1-5.06.88A18.48,18.48,0,0,1,407,531a12.81,12.81,0,0,1-3-1v-2.9a13.52,13.52,0,0,0,3.11,1.13,13.81,13.81,0,0,0,3.23.41,6.49,6.49,0,0,0,4.34-1.17,4.1,4.1,0,0,0,1.32-3.23,3.32,3.32,0,0,0-.71-2.22,4.17,4.17,0,0,0-2.11-1.28,12.75,12.75,0,0,0-3.49-.41h-2.17v-2.62h2.2a8.42,8.42,0,0,0,3.21-.52,3.92,3.92,0,0,0,1.87-1.45,3.87,3.87,0,0,0,.62-2.18,3.11,3.11,0,0,0-1.07-2.52,4.54,4.54,0,0,0-3-.9,8.21,8.21,0,0,0-2.19.27,9.33,9.33,0,0,0-1.84.68,16,16,0,0,0-1.64,1l-1.56-2.2a12.49,12.49,0,0,1,3.11-1.68,11.74,11.74,0,0,1,4.18-.69,8.19,8.19,0,0,1,5.41,1.56A5.13,5.13,0,0,1,418.63,513.22Z"/><path d="M430.34,507.56a9.64,9.64,0,0,1,3.58.63,5.6,5.6,0,0,1,2.5,1.86,5.47,5.47,0,0,1,.32,5.49,6.18,6.18,0,0,1-1.6,1.83,12.86,12.86,0,0,1-2.24,1.4,15.89,15.89,0,0,1,2.59,1.52,6.85,6.85,0,0,1,1.87,2,5.15,5.15,0,0,1,.7,2.74,5.81,5.81,0,0,1-1,3.34,6.14,6.14,0,0,1-2.68,2.19,9.91,9.91,0,0,1-4,.76,10.87,10.87,0,0,1-4.23-.73,5.67,5.67,0,0,1-2.65-2.12,5.89,5.89,0,0,1-.91-3.33,5.6,5.6,0,0,1,.66-2.78,6.66,6.66,0,0,1,1.76-2,11.71,11.71,0,0,1,2.39-1.45,11.74,11.74,0,0,1-2-1.44,6.11,6.11,0,0,1-1.47-1.89,5.43,5.43,0,0,1-.55-2.51,4.89,4.89,0,0,1,.92-3,5.84,5.84,0,0,1,2.53-1.86A9.41,9.41,0,0,1,430.34,507.56Zm-4.69,17.52a3.5,3.5,0,0,0,1.17,2.71,5,5,0,0,0,3.5,1.06,5.13,5.13,0,0,0,3.46-1.05A3.53,3.53,0,0,0,435,525a3.2,3.2,0,0,0-.58-1.91,5.61,5.61,0,0,0-1.6-1.48,13.92,13.92,0,0,0-2.35-1.2l-.53-.2a11.75,11.75,0,0,0-2.3,1.26,5.23,5.23,0,0,0-1.46,1.56A4,4,0,0,0,425.65,525.08Zm4.66-15a4.52,4.52,0,0,0-2.8.83,2.77,2.77,0,0,0-1.08,2.35,3.25,3.25,0,0,0,.53,1.88,4.83,4.83,0,0,0,1.43,1.33,14.24,14.24,0,0,0,2,1,13.43,13.43,0,0,0,1.93-1,4.49,4.49,0,0,0,1.36-1.35,3.32,3.32,0,0,0,.5-1.86,2.77,2.77,0,0,0-1.08-2.36A4.52,4.52,0,0,0,430.31,510.07Z"/><path d="M448.06,513.58h3.43l3.7,10c.19.52.37,1,.53,1.51s.31,1,.43,1.42a13.78,13.78,0,0,1,.29,1.36h.11c.13-.54.31-1.19.54-2s.48-1.55.76-2.35l3.54-10h3.42l-7.53,19.91a11.6,11.6,0,0,1-1.5,2.85,6.16,6.16,0,0,1-2.08,1.84,6,6,0,0,1-2.84.64,8.74,8.74,0,0,1-1.34-.09,7.79,7.79,0,0,1-1-.2V536c.23,0,.51.1.85.14a6.85,6.85,0,0,0,1,.07,3.55,3.55,0,0,0,1.72-.39,3.68,3.68,0,0,0,1.23-1.1,6.84,6.84,0,0,0,.87-1.66L455,531Z"/><path d="M482.75,522.27a12.31,12.31,0,0,1-.56,3.84,7.84,7.84,0,0,1-1.63,2.84,7,7,0,0,1-2.57,1.77,9,9,0,0,1-3.41.61,8.4,8.4,0,0,1-3.25-.61,7.06,7.06,0,0,1-2.55-1.77,7.89,7.89,0,0,1-1.66-2.84,11.73,11.73,0,0,1-.59-3.84,11.11,11.11,0,0,1,1-4.88,6.93,6.93,0,0,1,2.81-3.07,8.61,8.61,0,0,1,4.36-1.05,8.19,8.19,0,0,1,4.22,1.06,7.09,7.09,0,0,1,2.83,3.07A10.65,10.65,0,0,1,482.75,522.27Zm-13,0a10.2,10.2,0,0,0,.52,3.46,4.81,4.81,0,0,0,7.07,2.22,4.5,4.5,0,0,0,1.59-2.22,10.76,10.76,0,0,0,.5-3.46,10.46,10.46,0,0,0-.5-3.42,4.43,4.43,0,0,0-1.58-2.18,4.63,4.63,0,0,0-2.77-.76,4.17,4.17,0,0,0-3.67,1.67A8.15,8.15,0,0,0,469.79,522.27Z"/><path d="M498.65,526.15a4.8,4.8,0,0,1-.83,2.85,5,5,0,0,1-2.42,1.75,10.94,10.94,0,0,1-3.79.58,16.15,16.15,0,0,1-3.17-.27,10.57,10.57,0,0,1-2.4-.8v-2.82a16.12,16.12,0,0,0,2.67,1,10.79,10.79,0,0,0,3,.43,5.21,5.21,0,0,0,2.95-.65,2.06,2.06,0,0,0,.91-1.75,1.84,1.84,0,0,0-.37-1.15,3.78,3.78,0,0,0-1.27-1,22.51,22.51,0,0,0-2.6-1.14,25.24,25.24,0,0,1-2.84-1.3,5,5,0,0,1-1.8-1.57,4.17,4.17,0,0,1-.62-2.37,3.9,3.9,0,0,1,1.82-3.46,8.59,8.59,0,0,1,4.78-1.19,13.55,13.55,0,0,1,3,.31,14.78,14.78,0,0,1,2.68.89l-1,2.45a17.14,17.14,0,0,0-2.35-.81,9.16,9.16,0,0,0-2.45-.33,4.85,4.85,0,0,0-2.49.53,1.6,1.6,0,0,0-.86,1.44,1.74,1.74,0,0,0,.4,1.18,4,4,0,0,0,1.36.93c.63.3,1.48.65,2.56,1.06a22.82,22.82,0,0,1,2.76,1.25,5.16,5.16,0,0,1,1.79,1.59A4.09,4.09,0,0,1,498.65,526.15Z"/><path d="M505.94,506.4v6.77c0,.54,0,1.07-.05,1.58s-.07,1-.11,1.3H506a5.28,5.28,0,0,1,1.37-1.52,5.63,5.63,0,0,1,1.85-.92,7.48,7.48,0,0,1,2.19-.31,8.1,8.1,0,0,1,3.45.66A4.5,4.5,0,0,1,517,516a7.78,7.78,0,0,1,.73,3.63V531h-3.15V520.09a4.65,4.65,0,0,0-.91-3.14,3.55,3.55,0,0,0-2.82-1.06,5.12,5.12,0,0,0-2.88.72,3.93,3.93,0,0,0-1.53,2.12,10.81,10.81,0,0,0-.46,3.41V531h-3.18V506.4Z"/><path d="M529,531.33a6.32,6.32,0,0,1-5.1-2.26c-1.27-1.51-1.91-3.74-1.91-6.71s.65-5.26,1.94-6.79a6.41,6.41,0,0,1,5.15-2.3,7.05,7.05,0,0,1,2.36.36,6.08,6.08,0,0,1,1.74,1,5.86,5.86,0,0,1,1.23,1.36h.19c0-.33-.11-.79-.16-1.38s-.08-1.11-.08-1.55V506.4h3.18V531h-2.51l-.53-2.42h-.14a6,6,0,0,1-1.21,1.38,5.43,5.43,0,0,1-1.75,1A7.22,7.22,0,0,1,529,531.33Zm.74-2.59a4.19,4.19,0,0,0,3.65-1.49,7.62,7.62,0,0,0,1.08-4.41v-.49a9.27,9.27,0,0,0-1-4.79c-.68-1.11-1.93-1.67-3.74-1.67a3.72,3.72,0,0,0-3.34,1.74,8.74,8.74,0,0,0-1.12,4.8,8.2,8.2,0,0,0,1.12,4.67A3.83,3.83,0,0,0,529.76,528.74Z"/><path d="M549.66,513.28a7,7,0,0,1,4.83,1.44,5.78,5.78,0,0,1,1.6,4.51V531h-2.28l-.62-2.53h-.12a9.59,9.59,0,0,1-1.52,1.58,5.5,5.5,0,0,1-1.83.95,8.76,8.76,0,0,1-2.52.31,6.64,6.64,0,0,1-2.82-.57,4.41,4.41,0,0,1-1.94-1.71,5.51,5.51,0,0,1-.7-2.92,4.54,4.54,0,0,1,2-4,11.85,11.85,0,0,1,6.18-1.51l3-.12v-1a3.78,3.78,0,0,0-.91-2.88,3.6,3.6,0,0,0-2.54-.84,8.58,8.58,0,0,0-2.58.39,17.36,17.36,0,0,0-2.37.92l-1-2.31a14.84,14.84,0,0,1,2.81-1.06A12.68,12.68,0,0,1,549.66,513.28Zm3.28,9.27-2.44.12a8,8,0,0,0-4.25,1,2.93,2.93,0,0,0-1.22,2.49,2.41,2.41,0,0,0,.84,2,3.54,3.54,0,0,0,2.21.65,5.13,5.13,0,0,0,3.49-1.19,4.47,4.47,0,0,0,1.37-3.54Z"/><path d="M573,506.4v6.05c0,.69,0,1.37-.05,2s-.07,1.17-.11,1.53H573a6.17,6.17,0,0,1,2-1.94,7.07,7.07,0,0,1,8.46,1.47c1.27,1.52,1.91,3.76,1.91,6.74a12.37,12.37,0,0,1-.88,5,6.68,6.68,0,0,1-2.47,3.06,6.76,6.76,0,0,1-3.74,1,6.4,6.4,0,0,1-3.3-.75,6.06,6.06,0,0,1-2-1.79h-.24l-.6,2.23H569.8V506.4Zm4.67,9.49a4.93,4.93,0,0,0-2.75.68,3.79,3.79,0,0,0-1.46,2.06,12,12,0,0,0-.46,3.47v.23a9.09,9.09,0,0,0,1,4.75c.67,1.1,1.89,1.64,3.67,1.64a3.73,3.73,0,0,0,3.31-1.67,8.6,8.6,0,0,0,1.13-4.8,8.28,8.28,0,0,0-1.12-4.76A3.83,3.83,0,0,0,577.65,515.89Z"/><path d="M605,522.27a12,12,0,0,1-.56,3.84,7.7,7.7,0,0,1-1.63,2.84,6.89,6.89,0,0,1-2.57,1.77,8.88,8.88,0,0,1-3.4.61,8.4,8.4,0,0,1-3.25-.61,7,7,0,0,1-2.56-1.77,8,8,0,0,1-1.66-2.84,11.74,11.74,0,0,1-.58-3.84,11,11,0,0,1,1-4.88,6.88,6.88,0,0,1,2.81-3.07,8.6,8.6,0,0,1,4.35-1.05,8.2,8.2,0,0,1,4.23,1.06A7.15,7.15,0,0,1,604,517.4,10.66,10.66,0,0,1,605,522.27Zm-12.95,0a10.47,10.47,0,0,0,.51,3.46,4.82,4.82,0,0,0,7.08,2.22,4.42,4.42,0,0,0,1.58-2.22,10.47,10.47,0,0,0,.51-3.46,10.18,10.18,0,0,0-.51-3.42,4.35,4.35,0,0,0-1.57-2.18,4.66,4.66,0,0,0-2.78-.76,4.16,4.16,0,0,0-3.66,1.67A8.07,8.07,0,0,0,592.08,522.27Z"/><path d="M612.09,507.89l-.6,8.35h-2l-.6-8.35Z"/><path d="M620.11,531h-3.2V506.4h3.2Z"/><path d="M632.19,513.28a7,7,0,0,1,4.83,1.44,5.78,5.78,0,0,1,1.6,4.51V531h-2.28l-.62-2.53h-.12a9.59,9.59,0,0,1-1.52,1.58,5.5,5.5,0,0,1-1.83.95,8.76,8.76,0,0,1-2.52.31,6.64,6.64,0,0,1-2.82-.57,4.41,4.41,0,0,1-1.94-1.71,5.51,5.51,0,0,1-.7-2.92,4.54,4.54,0,0,1,2-4,11.86,11.86,0,0,1,6.19-1.51l3-.12v-1a3.78,3.78,0,0,0-.91-2.88,3.6,3.6,0,0,0-2.54-.84,8.58,8.58,0,0,0-2.58.39,17.36,17.36,0,0,0-2.37.92l-1-2.31a14.84,14.84,0,0,1,2.81-1.06A12.68,12.68,0,0,1,632.19,513.28Zm3.28,9.27-2.44.12a7.89,7.89,0,0,0-4.24,1,2.91,2.91,0,0,0-1.23,2.49,2.41,2.41,0,0,0,.84,2,3.54,3.54,0,0,0,2.21.65,5.13,5.13,0,0,0,3.49-1.19,4.47,4.47,0,0,0,1.37-3.54Z"/><path d="M655.42,526.15a4.8,4.8,0,0,1-.83,2.85,5,5,0,0,1-2.42,1.75,10.94,10.94,0,0,1-3.79.58,16.15,16.15,0,0,1-3.17-.27,10.57,10.57,0,0,1-2.4-.8v-2.82a16.12,16.12,0,0,0,2.67,1,10.84,10.84,0,0,0,3,.43,5.21,5.21,0,0,0,2.95-.65,2.06,2.06,0,0,0,.91-1.75,1.84,1.84,0,0,0-.37-1.15,3.78,3.78,0,0,0-1.27-1,22.51,22.51,0,0,0-2.6-1.14,25.24,25.24,0,0,1-2.84-1.3,5,5,0,0,1-1.8-1.57,4.17,4.17,0,0,1-.61-2.37,3.89,3.89,0,0,1,1.81-3.46,8.59,8.59,0,0,1,4.78-1.19,13.49,13.49,0,0,1,3,.31,15.15,15.15,0,0,1,2.69.89l-1,2.45a17.49,17.49,0,0,0-2.34-.81,9.29,9.29,0,0,0-2.46-.33,4.85,4.85,0,0,0-2.49.53,1.6,1.6,0,0,0-.86,1.44,1.74,1.74,0,0,0,.4,1.18,4,4,0,0,0,1.36.93c.63.3,1.48.65,2.56,1.06a22.82,22.82,0,0,1,2.76,1.25,5.29,5.29,0,0,1,1.8,1.59A4.16,4.16,0,0,1,655.42,526.15Z"/><path d="M661.14,507a2,2,0,0,1,1.31.44,1.78,1.78,0,0,1,.55,1.44,1.8,1.8,0,0,1-.55,1.45,2,2,0,0,1-1.31.45,1.94,1.94,0,0,1-1.3-.45,1.82,1.82,0,0,1-.53-1.45,1.8,1.8,0,0,1,.53-1.44A2,2,0,0,1,661.14,507Zm1.57,6.59V531h-3.18V513.58Z"/><path d="M679.57,531h-13v-2l9.18-12.94h-8.61v-2.47h12.18v2.25l-9,12.74h9.25Z"/></svg>