<svg id="Слой_1" data-name="Слой 1" xmlns="http://www.w3.org/2000/svg" xmlns:xlink="http://www.w3.org/1999/xlink" viewBox="0 0 1024 768"><defs><style>.cls-1{fill:#88cf00;}.cls-2{fill:#fff;}.cls-3{fill:#007fcf;}.cls-4{fill:url(#Безымянный_градиент_8);}.cls-5{fill:url(#Безымянный_градиент_8-2);}.cls-6{fill:url(#Безымянный_градиент_69);}.cls-7{fill:#fc9064;}</style><linearGradient id="Безымянный_градиент_8" x1="46.89" y1="470.25" x2="106.42" y2="470.25" gradientUnits="userSpaceOnUse"><stop offset="0" stop-color="#fff" stop-opacity="0"/><stop offset="1" stop-color="#646464"/></linearGradient><linearGradient id="Безымянный_градиент_8-2" x1="986.94" y1="470.32" x2="927.41" y2="470.17" xlink:href="#Безымянный_градиент_8"/><linearGradient id="Безымянный_градиент_69" x1="527.6" y1="-904.73" x2="466.46" y2="-904.88" gradientTransform="translate(19.78 1509.83)" gradientUnits="userSpaceOnUse"><stop offset="0" stop-color="#fff" stop-opacity="0"/><stop offset="0.29" stop-color="#cdcdcd" stop-opacity="0.32"/><stop offset="0.76" stop-color="#818181" stop-opacity="0.81"/><stop offset="1" stop-color="#646464"/></linearGradient></defs><title>Язык</title><rect class="cls-1" x="27.44" y="150.45" width="116.01" height="213.33"/><rect class="cls-2" x="27.44" y="363.77" width="116.01" height="213.33"/><rect class="cls-3" x="891.42" y="150.45" width="116.01" height="213.33"/><rect class="cls-2" x="891.42" y="363.77" width="116.01" height="213.33"/><rect class="cls-4" x="46.89" y="363.39" width="59.53" height="213.71"/><rect class="cls-5" x="927.4" y="363.39" width="59.53" height="213.71"/><rect class="cls-6" x="487.04" y="158.66" width="59.53" height="892.73" transform="translate(1121.83 88.22) rotate(90)"/><rect class="cls-7" x="70.18" y="122.21" width="892.99" height="241.18"/><rect class="cls-2" x="70.18" y="363.39" width="892.99" height="241.18"/><path class="cls-2" d="M440.18,172a8,8,0,0,1-1.35,4.66,8.41,8.41,0,0,1-3.81,3,15.12,15.12,0,0,1-5.83,1,28,28,0,0,1-3.24-.18,22.54,22.54,0,0,1-2.86-.51,14.2,14.2,0,0,1-2.39-.84V175a34.63,34.63,0,0,0,4,1.33,18,18,0,0,0,4.71.62,9.47,9.47,0,0,0,3.56-.58,4.64,4.64,0,0,0,2.17-1.62,4.28,4.28,0,0,0,.73-2.52,4.07,4.07,0,0,0-.71-2.46,6.62,6.62,0,0,0-2.25-1.84,33.88,33.88,0,0,0-4-1.78,20.62,20.62,0,0,1-3.17-1.44,11.16,11.16,0,0,1-2.46-1.85,7.39,7.39,0,0,1-1.61-2.47,8.87,8.87,0,0,1-.56-3.26,7.38,7.38,0,0,1,1.25-4.34,7.87,7.87,0,0,1,3.49-2.76,13.29,13.29,0,0,1,5.2-1,20.46,20.46,0,0,1,4.54.48,22.17,22.17,0,0,1,4,1.32l-1.36,3.57a27,27,0,0,0-3.59-1.2,14.83,14.83,0,0,0-3.73-.46,7.85,7.85,0,0,0-3,.52,3.88,3.88,0,0,0-2.5,3.78,4.25,4.25,0,0,0,.67,2.47,5.86,5.86,0,0,0,2.12,1.79,31.75,31.75,0,0,0,3.77,1.69,28.25,28.25,0,0,1,4.46,2.14,8.42,8.42,0,0,1,2.8,2.73A7.68,7.68,0,0,1,440.18,172Z"/><path class="cls-2" d="M469.88,149.54v19.84a12.18,12.18,0,0,1-1.34,5.76,9.51,9.51,0,0,1-4,4,13.93,13.93,0,0,1-6.75,1.47q-5.77,0-8.8-3.1a11.24,11.24,0,0,1-3-8.23V149.54h4.32v19.59c0,2.58.64,4.53,1.94,5.85s3.22,2,5.78,2a8.64,8.64,0,0,0,4.32-1,5.85,5.85,0,0,0,2.48-2.7,9.86,9.86,0,0,0,.81-4.16V149.54Z"/><path class="cls-2" d="M486.3,149.54a18.46,18.46,0,0,1,6.4,1,7.38,7.38,0,0,1,3.77,2.9,9,9,0,0,1,1.23,4.91,8.29,8.29,0,0,1-.86,4,7.62,7.62,0,0,1-2.25,2.64,12.22,12.22,0,0,1-3,1.62l8.58,13.67h-4.93l-7.47-12.54h-5.64V180.2h-4.3V149.54Zm-.28,3.65h-3.88v10.88h4.18q3.62,0,5.3-1.41a5.18,5.18,0,0,0,1.68-4.19,4.57,4.57,0,0,0-1.78-4.08A10,10,0,0,0,486,153.19Z"/><path class="cls-2" d="M526.89,149.54,516,180.2h-4.47L500.7,149.54h4.45L512,169.25c.25.69.49,1.41.72,2.17s.43,1.52.63,2.28.35,1.44.48,2.07c.12-.63.28-1.32.47-2.07s.4-1.52.64-2.3.48-1.51.71-2.21l6.8-19.65Z"/><path class="cls-2" d="M531,180.2V149.54h4.3V180.2Z"/><path class="cls-2" d="M565.65,149.54,554.79,180.2h-4.47l-10.86-30.66h4.44l6.82,19.71c.25.69.49,1.41.71,2.17s.43,1.52.63,2.28.36,1.44.48,2.07c.13-.63.29-1.32.47-2.07s.41-1.52.64-2.3.48-1.51.72-2.21l6.79-19.65Z"/><path class="cls-2" d="M588.88,180.2l-3.39-9.12h-12l-3.35,9.12h-4.47l11.7-30.79h4.4l11.64,30.79Zm-4.59-12.86-3.23-9-.45-1.38c-.2-.61-.4-1.25-.61-1.91s-.36-1.2-.49-1.63c-.14.57-.3,1.17-.48,1.81s-.36,1.23-.54,1.78-.31,1-.43,1.33l-3.27,9Z"/><path class="cls-2" d="M597.55,180.2V149.54h4.29v26.93h13.32v3.73Z"/><path class="cls-2" d="M306.42,228.58a9.68,9.68,0,0,1-1.05,4.63,8.71,8.71,0,0,1-2.92,3.2,12.28,12.28,0,0,1-4.32,1.76v.18c3.13.4,5.5,1.4,7.09,3a8.64,8.64,0,0,1,2.39,6.35,11.52,11.52,0,0,1-1.62,6.1,10.74,10.74,0,0,1-5,4.19,21.13,21.13,0,0,1-8.63,1.51,31.57,31.57,0,0,1-5.86-.51,21.36,21.36,0,0,1-5.13-1.65V252.4a24.16,24.16,0,0,0,5.32,1.93,23.48,23.48,0,0,0,5.51.69q5.16,0,7.41-2a7,7,0,0,0,2.26-5.51,5.75,5.75,0,0,0-1.22-3.79,7.07,7.07,0,0,0-3.61-2.18,21.33,21.33,0,0,0-5.95-.7h-3.7v-4.48h3.75a14.66,14.66,0,0,0,5.47-.88,6.79,6.79,0,0,0,3.2-2.47,6.58,6.58,0,0,0,1.06-3.73,5.31,5.31,0,0,0-1.83-4.31,7.76,7.76,0,0,0-5.14-1.52,14.48,14.48,0,0,0-3.74.44,16.06,16.06,0,0,0-3.14,1.18,24.53,24.53,0,0,0-2.79,1.64L281.58,223a20.57,20.57,0,0,1,5.3-2.86,19.81,19.81,0,0,1,7.15-1.19q6.08,0,9.23,2.67A8.72,8.72,0,0,1,306.42,228.58Z"/><path class="cls-2" d="M326.17,234.55a16,16,0,0,1,6.84,1.36,10.45,10.45,0,0,1,4.57,4,11.84,11.84,0,0,1,1.63,6.38,13.66,13.66,0,0,1-1.75,7.07,11.56,11.56,0,0,1-5.11,4.57,18.75,18.75,0,0,1-8.1,1.59,29,29,0,0,1-5.75-.54,14.83,14.83,0,0,1-4.54-1.62v-5a18.64,18.64,0,0,0,4.82,1.88,22,22,0,0,0,5.44.72,12.84,12.84,0,0,0,5-.89,7.1,7.1,0,0,0,3.29-2.7,8.42,8.42,0,0,0,1.16-4.6,7.13,7.13,0,0,0-2.3-5.67q-2.3-2-7.21-2a24.22,24.22,0,0,0-3.56.29c-1.28.19-2.34.38-3.16.58l-2.54-1.54,1.51-18.93h20.09v4.83H321.09l-.92,10.88c.67-.14,1.49-.28,2.48-.43A25.7,25.7,0,0,1,326.17,234.55Z"/><path class="cls-2" d="M371.24,239.16a45.28,45.28,0,0,1-.73,8.59,19.13,19.13,0,0,1-2.31,6.4,10.67,10.67,0,0,1-4.1,4A12.63,12.63,0,0,1,358,259.5a11.25,11.25,0,0,1-7.4-2.4,14.19,14.19,0,0,1-4.35-7,37,37,0,0,1-1.43-11,39.82,39.82,0,0,1,1.3-10.87,13.78,13.78,0,0,1,4.19-7,11.55,11.55,0,0,1,7.69-2.45,11.38,11.38,0,0,1,7.47,2.42,14.23,14.23,0,0,1,4.34,7A36.82,36.82,0,0,1,371.24,239.16Zm-21,0a42.87,42.87,0,0,0,.76,8.78,10.55,10.55,0,0,0,2.46,5.26,6,6,0,0,0,4.51,1.74,6.09,6.09,0,0,0,4.52-1.73A10.31,10.31,0,0,0,365,248a42.42,42.42,0,0,0,.76-8.81,41.54,41.54,0,0,0-.76-8.68,10.84,10.84,0,0,0-2.44-5.27,6.76,6.76,0,0,0-9.1,0,10.66,10.66,0,0,0-2.43,5.27A42.31,42.31,0,0,0,350.28,239.16Z"/><path class="cls-2" d="M402.22,262.18v-5.62a38.12,38.12,0,0,1-6-.57,20.36,20.36,0,0,1-4.74-1.38v-5.05a27.12,27.12,0,0,0,5,1.64,28.62,28.62,0,0,0,5.82.79V241a33.17,33.17,0,0,1-6.12-2.54,9.59,9.59,0,0,1-3.55-3.23,8.5,8.5,0,0,1-1.16-4.55,8.15,8.15,0,0,1,1.35-4.72,9.13,9.13,0,0,1,3.8-3.11,15.5,15.5,0,0,1,5.68-1.32V217h3.4v4.46a28.47,28.47,0,0,1,5.41.67,29.26,29.26,0,0,1,4.64,1.49L414,228a29.06,29.06,0,0,0-4.08-1.3,28,28,0,0,0-4.27-.67v10.83a43.38,43.38,0,0,1,6,2.29,10.2,10.2,0,0,1,3.86,3,7.66,7.66,0,0,1,1.36,4.7,8.18,8.18,0,0,1-2.89,6.47c-1.93,1.66-4.7,2.67-8.3,3v5.81Zm0-26.53v-9.5a9,9,0,0,0-3,.69,4.3,4.3,0,0,0-1.85,1.44,3.59,3.59,0,0,0-.62,2.13,4.64,4.64,0,0,0,.54,2.33,4.48,4.48,0,0,0,1.75,1.63A15.58,15.58,0,0,0,402.22,235.65Zm3.4,16.13a8.5,8.5,0,0,0,4.42-1.49,3.75,3.75,0,0,0,1.44-3.08,3.9,3.9,0,0,0-.58-2.2,4.74,4.74,0,0,0-1.86-1.54,19.32,19.32,0,0,0-3.42-1.28Z"/><path class="cls-2" d="M450.4,219.48q7.65,0,11.17,3.05t3.53,8.67a14.3,14.3,0,0,1-.81,4.82,10.21,10.21,0,0,1-2.64,4,12.84,12.84,0,0,1-4.79,2.76,22.93,22.93,0,0,1-7.29,1h-4.51V259h-5.54V219.48Zm-.43,4.64h-4.91v15H449a18.52,18.52,0,0,0,5.75-.77,6.79,6.79,0,0,0,3.52-2.47,7.72,7.72,0,0,0,1.18-4.49,6.55,6.55,0,0,0-2.29-5.48Q454.84,224.12,450,224.12Z"/><path class="cls-2" d="M495.34,259H473.17V219.48h22.17v4.75H478.71V236h15.64v4.7H478.71v13.5h16.63Z"/><path class="cls-2" d="M514.84,219.48a23.88,23.88,0,0,1,8.26,1.22,9.5,9.5,0,0,1,4.84,3.73,11.54,11.54,0,0,1,1.6,6.34,10.74,10.74,0,0,1-1.11,5.1,10,10,0,0,1-2.9,3.4,15.45,15.45,0,0,1-3.85,2.08l11,17.61h-6.34l-9.62-16.15H509.5V259H504V219.48Zm-.35,4.7h-5v14h5.37c3.12,0,5.39-.61,6.84-1.82a6.66,6.66,0,0,0,2.16-5.39q0-3.71-2.3-5.25C520,224.69,517.68,224.18,514.49,224.18Z"/><path class="cls-2" d="M570.27,259,558,225h-.22q.09,1.11.18,2.85c.06,1.16.12,2.42.16,3.78s.07,2.7.07,4V259h-5.08V219.48h8l11.69,32.16h.19l12-32.16h7.92V259h-5.35V235.33c0-1.19,0-2.43,0-3.71s.09-2.52.15-3.68.12-2.12.18-2.87h-.25L575,259Z"/><path class="cls-2" d="M638.06,239.16a27.72,27.72,0,0,1-1.17,8.31,18.05,18.05,0,0,1-3.44,6.43,15.11,15.11,0,0,1-5.7,4.14,20.08,20.08,0,0,1-8,1.46,20.5,20.5,0,0,1-8.09-1.46,14.93,14.93,0,0,1-5.71-4.16,17.9,17.9,0,0,1-3.39-6.45,28.92,28.92,0,0,1-1.12-8.32,26.37,26.37,0,0,1,2-10.64,15.31,15.31,0,0,1,6.09-7.09,19.34,19.34,0,0,1,10.3-2.53,18.69,18.69,0,0,1,10,2.52,15.66,15.66,0,0,1,6.1,7.06A25.87,25.87,0,0,1,638.06,239.16Zm-30.79,0a23.29,23.29,0,0,0,1.33,8.31,11.17,11.17,0,0,0,4.11,5.4,14.08,14.08,0,0,0,14.16,0,11,11,0,0,0,4-5.4,23.77,23.77,0,0,0,1.3-8.31q0-7.29-3-11.41t-9.4-4.12a12.44,12.44,0,0,0-7.1,1.88,11.07,11.07,0,0,0-4.13,5.35A22.88,22.88,0,0,0,607.27,239.16Z"/><path class="cls-2" d="M678.59,259H672L651.5,226.61h-.21c.05,1,.12,2,.19,3.2s.13,2.37.17,3.64.08,2.55.1,3.85V259h-5.08V219.48h6.59l20.37,32.19h.18c0-.79-.08-1.77-.13-2.94s-.1-2.41-.15-3.72-.07-2.54-.07-3.71V219.48h5.13Z"/><path class="cls-2" d="M702.06,259H696.5v-34.7h-12v-4.78H714v4.78h-12Z"/><path class="cls-2" d="M750.57,259H745V240.73H725.56V259H720V219.48h5.54V236H745V219.48h5.54Z"/><path class="cls-2" d="M370.78,301.69a10.51,10.51,0,0,0-4.32.85,8.65,8.65,0,0,0-3.23,2.45,11.4,11.4,0,0,0-2,3.87,19.33,19.33,0,0,0,.42,11.64,8.91,8.91,0,0,0,3.38,4.24,10.12,10.12,0,0,0,5.7,1.5,20,20,0,0,0,3.92-.38,31.85,31.85,0,0,0,3.72-1v3.76a20.45,20.45,0,0,1-3.7,1,26.68,26.68,0,0,1-4.47.33,14.8,14.8,0,0,1-8-2,12,12,0,0,1-4.72-5.58,21.23,21.23,0,0,1-1.56-8.49,20.38,20.38,0,0,1,1-6.47,14.49,14.49,0,0,1,2.88-5.08,12.66,12.66,0,0,1,4.67-3.31,16.19,16.19,0,0,1,6.37-1.17,20.54,20.54,0,0,1,4.58.51,19.57,19.57,0,0,1,4.1,1.39l-1.62,3.65a25.7,25.7,0,0,0-3.34-1.23A12.92,12.92,0,0,0,370.78,301.69Z"/><path class="cls-2" d="M393.56,305.64c2.9,0,5.07.65,6.51,1.93s2.15,3.32,2.15,6.1v15.9h-3.07l-.83-3.42h-.17a12.39,12.39,0,0,1-2,2.14,7.44,7.44,0,0,1-2.47,1.28,11.9,11.9,0,0,1-3.4.42,9,9,0,0,1-3.8-.76,6,6,0,0,1-2.62-2.32,7.44,7.44,0,0,1-.95-3.94,6.14,6.14,0,0,1,2.76-5.44c1.83-1.24,4.61-1.91,8.34-2l4.06-.17V314c0-1.84-.41-3.13-1.23-3.89a4.88,4.88,0,0,0-3.42-1.13,11.51,11.51,0,0,0-3.48.53,24.11,24.11,0,0,0-3.2,1.24l-1.37-3.11a19.07,19.07,0,0,1,3.79-1.43A16.65,16.65,0,0,1,393.56,305.64ZM398,318.15l-3.29.15q-4.08.15-5.73,1.35A4,4,0,0,0,387.3,323a3.25,3.25,0,0,0,1.14,2.76,4.75,4.75,0,0,0,3,.87,6.87,6.87,0,0,0,4.71-1.61,6,6,0,0,0,1.85-4.77Z"/><path class="cls-2" d="M420.94,305.62a8.51,8.51,0,0,1,6.86,3q2.58,3,2.58,9.08a16.91,16.91,0,0,1-1.19,6.74,9.14,9.14,0,0,1-3.33,4.12,9,9,0,0,1-5,1.39,9.66,9.66,0,0,1-3.18-.48,7.35,7.35,0,0,1-2.33-1.28,9,9,0,0,1-1.63-1.71h-.28c0,.55.11,1.19.18,1.93s.1,1.39.1,2V340h-4.32v-34h3.53l.57,3.37h.22a8.65,8.65,0,0,1,1.63-1.91,7.1,7.1,0,0,1,2.36-1.38A9.42,9.42,0,0,1,420.94,305.62Zm-1,3.54a6.55,6.55,0,0,0-3.62.89,5.1,5.1,0,0,0-2,2.63,13.62,13.62,0,0,0-.67,4.4v.68a16.19,16.19,0,0,0,.59,4.75,5.54,5.54,0,0,0,2,2.95,6.22,6.22,0,0,0,3.73,1,5.08,5.08,0,0,0,3.34-1.09,6.45,6.45,0,0,0,2-3.07,14.91,14.91,0,0,0,.65-4.61,11.44,11.44,0,0,0-1.47-6.26A5,5,0,0,0,420,309.16Z"/><path class="cls-2" d="M438.53,297.15a2.75,2.75,0,0,1,1.76.59,2.38,2.38,0,0,1,.74,1.95,2.4,2.4,0,0,1-.74,1.95,2.71,2.71,0,0,1-1.76.61,2.63,2.63,0,0,1-1.76-.61,2.43,2.43,0,0,1-.72-1.95,2.4,2.4,0,0,1,.72-1.95A2.67,2.67,0,0,1,438.53,297.15Zm2.11,8.9v23.52h-4.29V306.05Z"/><path class="cls-2" d="M456.16,326.52a10.81,10.81,0,0,0,1.86-.17,8.68,8.68,0,0,0,1.62-.41v3.29a9.4,9.4,0,0,1-1.93.54,13.51,13.51,0,0,1-2.47.22,8.85,8.85,0,0,1-3.48-.66,5.15,5.15,0,0,1-2.48-2.26,8.89,8.89,0,0,1-.93-4.44V309.35h-3.27v-2l3.42-1.58,1.51-5.08h2.65v5.34h6.81v3.3h-6.81v13.22a4.11,4.11,0,0,0,.95,3A3.36,3.36,0,0,0,456.16,326.52Z"/><path class="cls-2" d="M473.4,305.64c2.91,0,5.08.65,6.51,1.93s2.16,3.32,2.16,6.1v15.9H479l-.84-3.42H478a11.68,11.68,0,0,1-2.05,2.14,7.39,7.39,0,0,1-2.46,1.28,12,12,0,0,1-3.4.42,9,9,0,0,1-3.8-.76,6,6,0,0,1-2.62-2.32,7.44,7.44,0,0,1-1-3.94,6.16,6.16,0,0,1,2.75-5.44c1.84-1.24,4.62-1.91,8.35-2l4.06-.17V314c0-1.84-.41-3.13-1.23-3.89a4.89,4.89,0,0,0-3.43-1.13,11.51,11.51,0,0,0-3.48.53,24.65,24.65,0,0,0-3.2,1.24l-1.36-3.11a19.2,19.2,0,0,1,3.78-1.43A16.71,16.71,0,0,1,473.4,305.64Zm4.42,12.51-3.28.15q-4.08.15-5.73,1.35a3.92,3.92,0,0,0-1.66,3.36,3.27,3.27,0,0,0,1.13,2.76,4.78,4.78,0,0,0,3,.87A6.87,6.87,0,0,0,476,325a6,6,0,0,0,1.84-4.77Z"/><path class="cls-2" d="M493.53,329.57h-4.31V296.36h4.31Z"/><path class="cls-2" d="M500.21,308.52a2.85,2.85,0,0,1,.82-2.31,3.07,3.07,0,0,1,2-.68,3.13,3.13,0,0,1,2,.68,2.82,2.82,0,0,1,.83,2.31,2.86,2.86,0,0,1-.83,2.29,3,3,0,0,1-2,.7,3,3,0,0,1-2-.7A2.89,2.89,0,0,1,500.21,308.52Zm0,18.61a2.83,2.83,0,0,1,.82-2.29,3.06,3.06,0,0,1,2-.67,3.12,3.12,0,0,1,2,.67,2.8,2.8,0,0,1,.83,2.29,2.92,2.92,0,0,1-.83,2.31,3,3,0,0,1-2,.73,2.69,2.69,0,0,1-2.82-3Z"/><path class="cls-2" d="M543.11,329.57H522.33V326.2l8.21-8.35q2.36-2.37,3.9-4.15a15.12,15.12,0,0,0,2.33-3.46,8.44,8.44,0,0,0,.79-3.66,4.69,4.69,0,0,0-1.43-3.71,5.43,5.43,0,0,0-3.8-1.28,9.39,9.39,0,0,0-3.85.77,17.39,17.39,0,0,0-3.55,2.24l-2.31-2.86a18.73,18.73,0,0,1,2.74-1.94,14.32,14.32,0,0,1,3.22-1.37,13.85,13.85,0,0,1,3.88-.52,11.58,11.58,0,0,1,5,1,7.61,7.61,0,0,1,3.28,2.9,8.23,8.23,0,0,1,1.15,4.4,10.83,10.83,0,0,1-1,4.62,18.33,18.33,0,0,1-2.81,4.22q-1.82,2.09-4.29,4.46l-6.08,6v.2h15.34Z"/><path class="cls-2" d="M561.3,329.57h-4.25V308.46c0-.76,0-1.45,0-2.08s0-1.24.06-1.82,0-1.13.08-1.67c-.37.38-.76.75-1.16,1.1l-1.4,1.18-3.56,2.88-2.2-2.81,8.85-6.88h3.57Z"/><path class="cls-2" d="M605.8,322.52h-4.44v7.05h-4.2v-7.05H582.51v-3.39l14.56-20.9h4.29v20.6h4.44Zm-8.64-3.69v-9c0-.71,0-1.39,0-2s0-1.26.06-1.85.06-1.13.09-1.63,0-1,.06-1.38h-.17c-.27.57-.57,1.16-.91,1.77a15.54,15.54,0,0,1-1,1.71l-8.65,12.38Z"/><path class="cls-2" d="M618.91,310.27a12.71,12.71,0,0,1,5.41,1.08,8.25,8.25,0,0,1,3.6,3.15,9.35,9.35,0,0,1,1.29,5,10.85,10.85,0,0,1-1.38,5.59,9,9,0,0,1-4,3.6,14.79,14.79,0,0,1-6.4,1.26,23.38,23.38,0,0,1-4.55-.42,11.83,11.83,0,0,1-3.58-1.28v-4a14.92,14.92,0,0,0,3.81,1.48,17.31,17.31,0,0,0,4.3.57,10.12,10.12,0,0,0,3.94-.71,5.57,5.57,0,0,0,2.59-2.13,6.6,6.6,0,0,0,.92-3.63,5.61,5.61,0,0,0-1.82-4.48c-1.21-1.06-3.11-1.58-5.7-1.58a19.2,19.2,0,0,0-2.81.22c-1,.15-1.85.3-2.5.46l-2-1.22,1.2-15h15.88v3.82H614.89l-.72,8.6c.52-.11,1.18-.22,2-.34A20.19,20.19,0,0,1,618.91,310.27Z"/><path class="cls-2" d="M654.44,329.57H633.65V326.2l8.22-8.35c1.57-1.58,2.86-3,3.9-4.15a15.12,15.12,0,0,0,2.33-3.46,8.44,8.44,0,0,0,.79-3.66,4.69,4.69,0,0,0-1.43-3.71,5.45,5.45,0,0,0-3.8-1.28,9.39,9.39,0,0,0-3.85.77,17.39,17.39,0,0,0-3.55,2.24L634,301.74a19.19,19.19,0,0,1,2.73-1.94,14.6,14.6,0,0,1,3.23-1.37,13.8,13.8,0,0,1,3.88-.52,11.58,11.58,0,0,1,5.05,1,7.67,7.67,0,0,1,3.28,2.9,8.32,8.32,0,0,1,1.15,4.4,10.83,10.83,0,0,1-1,4.62,18.66,18.66,0,0,1-2.81,4.22q-1.82,2.09-4.29,4.46l-6.08,6v.2h15.34Z"/><path class="cls-2" d="M667.65,332.11v-4.44a29.72,29.72,0,0,1-4.77-.45,16.08,16.08,0,0,1-3.74-1.09v-4a21.54,21.54,0,0,0,3.91,1.29,22.18,22.18,0,0,0,4.6.63v-8.69a25.82,25.82,0,0,1-4.83-2,7.63,7.63,0,0,1-2.81-2.55,6.73,6.73,0,0,1-.91-3.6,6.42,6.42,0,0,1,1.06-3.73,7.21,7.21,0,0,1,3-2.46,12.3,12.3,0,0,1,4.49-1V296.4h2.69v3.52a23.72,23.72,0,0,1,4.27.53,22.83,22.83,0,0,1,3.67,1.18l-1.34,3.48a22.1,22.1,0,0,0-6.6-1.56v8.56a34.25,34.25,0,0,1,4.72,1.81,8.16,8.16,0,0,1,3.05,2.39,6.08,6.08,0,0,1,1.07,3.72,6.45,6.45,0,0,1-2.28,5.11,11.47,11.47,0,0,1-6.56,2.38v4.59Zm0-21v-7.52a7.45,7.45,0,0,0-2.38.55,3.49,3.49,0,0,0-1.46,1.14,2.93,2.93,0,0,0-.49,1.69,3.59,3.59,0,0,0,.43,1.83,3.5,3.5,0,0,0,1.39,1.29A12.59,12.59,0,0,0,667.65,311.15Zm2.69,12.74a6.72,6.72,0,0,0,3.49-1.17,3,3,0,0,0,1.15-2.44,3.17,3.17,0,0,0-.46-1.74,3.85,3.85,0,0,0-1.48-1.21,15.17,15.17,0,0,0-2.7-1Z"/><path d="M339.19,463.53,334.3,450.4H317l-4.83,13.13h-6.43l16.85-44.31h6.33l16.76,44.31ZM332.58,445l-4.65-13c-.14-.44-.36-1.11-.65-2s-.58-1.8-.88-2.75l-.71-2.35q-.3,1.23-.69,2.61c-.26.91-.52,1.77-.77,2.56s-.46,1.44-.62,1.92l-4.71,13Z"/><path d="M366.62,435h-8.18v28.58h-6.06V435h-5.65V432l5.65-1.84v-2.3a14.87,14.87,0,0,1,1.3-6.74,8.05,8.05,0,0,1,3.72-3.73,13.52,13.52,0,0,1,5.9-1.18,18.14,18.14,0,0,1,3.82.37,23.3,23.3,0,0,1,3,.81l-1.57,4.65c-.69-.22-1.45-.43-2.3-.62a12.16,12.16,0,0,0-2.68-.29,4.51,4.51,0,0,0-3.88,1.69,8.52,8.52,0,0,0-1.26,5.1v2.33h8.18Z"/><path d="M384.07,459.21a15.73,15.73,0,0,0,2.63-.22,12.65,12.65,0,0,0,2.29-.59v4.65a12.57,12.57,0,0,1-2.73.77,19.2,19.2,0,0,1-3.49.31,12.54,12.54,0,0,1-4.92-.93,7.28,7.28,0,0,1-3.51-3.2,12.51,12.51,0,0,1-1.32-6.28V435H368.4v-2.81l4.83-2.23,2.15-7.19h3.74v7.55h9.63V435h-9.63v18.68a5.87,5.87,0,0,0,1.34,4.2A4.81,4.81,0,0,0,384.07,459.21Z"/><path d="M408.76,429.67a14.29,14.29,0,0,1,7.46,1.85,12.16,12.16,0,0,1,4.76,5.24,17.84,17.84,0,0,1,1.67,8v3.44H400.07q.09,5.34,2.74,8.19a9.7,9.7,0,0,0,7.46,2.85,24,24,0,0,0,5.64-.6,30.28,30.28,0,0,0,5.14-1.78v5.1a24.17,24.17,0,0,1-5,1.68,30,30,0,0,1-6,.52,17.79,17.79,0,0,1-8.47-1.93,13.47,13.47,0,0,1-5.66-5.72,19.61,19.61,0,0,1-2-9.34,21.89,21.89,0,0,1,1.84-9.4,13.75,13.75,0,0,1,5.19-6A14.62,14.62,0,0,1,408.76,429.67Zm0,4.7a7.7,7.7,0,0,0-5.92,2.4,11.21,11.21,0,0,0-2.62,6.87h16.36a13,13,0,0,0-.88-4.83,7.06,7.06,0,0,0-2.55-3.26A7.61,7.61,0,0,0,408.73,434.37Z"/><path d="M446.88,429.67c.61,0,1.26,0,2,.1s1.31.16,1.82.26l-.64,5.64a14.52,14.52,0,0,0-1.67-.3,14.35,14.35,0,0,0-1.77-.12,9.54,9.54,0,0,0-3.68.72,9.17,9.17,0,0,0-3.08,2.1,9.65,9.65,0,0,0-2.08,3.35,12.43,12.43,0,0,0-.76,4.51v17.6h-6.09V430.27h4.88l.73,6h.27a15.75,15.75,0,0,1,2.49-3.32,11.19,11.19,0,0,1,3.38-2.4A9.85,9.85,0,0,1,446.88,429.67Z"/><path d="M476,463.53l17.75-38.72H470.27V419.4h30v4.35l-17.66,39.78Z"/><path d="M507.37,460.09a4,4,0,0,1,1.16-3.24,4.3,4.3,0,0,1,2.82-1,4.38,4.38,0,0,1,2.87,1,3.92,3.92,0,0,1,1.18,3.24,4.08,4.08,0,0,1-1.18,3.26,4.23,4.23,0,0,1-2.87,1,3.8,3.8,0,0,1-4-4.29Z"/><path d="M522.85,444.7a53.08,53.08,0,0,1,.56-7.73,30.91,30.91,0,0,1,1.9-7.06,18.51,18.51,0,0,1,3.7-5.78,16.25,16.25,0,0,1,5.89-3.91,22.72,22.72,0,0,1,8.51-1.42c.88,0,1.87,0,2.94.12a13.61,13.61,0,0,1,2.67.42v5.1a14.76,14.76,0,0,0-2.56-.54,22.56,22.56,0,0,0-2.84-.18q-5.58,0-8.75,2.28a12.41,12.41,0,0,0-4.53,6.19,30.6,30.6,0,0,0-1.57,8.82h.33a11.29,11.29,0,0,1,2.33-2.68,10.5,10.5,0,0,1,3.42-1.92,14.17,14.17,0,0,1,4.7-.71,13.67,13.67,0,0,1,6.73,1.59,10.76,10.76,0,0,1,4.43,4.6,15.69,15.69,0,0,1,1.57,7.33,17.13,17.13,0,0,1-1.72,7.94,12.1,12.1,0,0,1-4.9,5.16,15.09,15.09,0,0,1-7.59,1.81,14.72,14.72,0,0,1-6-1.22,13.23,13.23,0,0,1-4.83-3.65,17.41,17.41,0,0,1-3.2-6.07A28.4,28.4,0,0,1,522.85,444.7ZM538,459.09a7.91,7.91,0,0,0,6-2.43q2.28-2.43,2.28-7.41a9.65,9.65,0,0,0-2-6.44c-1.35-1.58-3.39-2.37-6.1-2.37a9.6,9.6,0,0,0-4.85,1.18,8.94,8.94,0,0,0-3.2,2.94,6.66,6.66,0,0,0-1.13,3.61,13.68,13.68,0,0,0,.55,3.82,11.77,11.77,0,0,0,1.66,3.53,8.67,8.67,0,0,0,2.8,2.59A7.71,7.71,0,0,0,538,459.09Z"/><path d="M571.15,430.27h6.55l7.06,19.17c.36,1,.7,1.94,1,2.88s.59,1.84.82,2.71.42,1.74.56,2.59h.21q.36-1.55,1-3.75c.45-1.47.93-3,1.45-4.46l6.76-19.14h6.52l-14.36,38a22.36,22.36,0,0,1-2.86,5.45,11.78,11.78,0,0,1-4,3.5,11.42,11.42,0,0,1-5.43,1.22,17.57,17.57,0,0,1-2.55-.16c-.73-.12-1.36-.24-1.89-.38V473q.68.15,1.62.27a15.72,15.72,0,0,0,2,.12,6.84,6.84,0,0,0,3.27-.74,6.92,6.92,0,0,0,2.36-2.1,13,13,0,0,0,1.64-3.17l1.51-3.92Z"/><path d="M621.31,429.67a14.26,14.26,0,0,1,7.46,1.85,12.24,12.24,0,0,1,4.77,5.24,18,18,0,0,1,1.66,8v3.44H612.62q.09,5.34,2.75,8.19a9.68,9.68,0,0,0,7.45,2.85,24.06,24.06,0,0,0,5.65-.6,29.89,29.89,0,0,0,5.13-1.78v5.1a24,24,0,0,1-5,1.68,29.91,29.91,0,0,1-6,.52,17.79,17.79,0,0,1-8.47-1.93,13.39,13.39,0,0,1-5.65-5.72,19.61,19.61,0,0,1-2-9.34,22,22,0,0,1,1.84-9.4,13.71,13.71,0,0,1,5.2-6A14.58,14.58,0,0,1,621.31,429.67Zm0,4.7a7.69,7.69,0,0,0-5.91,2.4,11.21,11.21,0,0,0-2.63,6.87H629.1a13.25,13.25,0,0,0-.87-4.83,7.19,7.19,0,0,0-2.55-3.26A7.64,7.64,0,0,0,621.28,434.37Z"/><path d="M656.18,429.7q6.15,0,9.2,2.73c2,1.82,3,4.69,3,8.61v22.49h-4.35l-1.17-4.83h-.24a17.5,17.5,0,0,1-2.9,3,10.26,10.26,0,0,1-3.49,1.81,16.74,16.74,0,0,1-4.81.6,12.79,12.79,0,0,1-5.38-1.08,8.39,8.39,0,0,1-3.69-3.28,10.44,10.44,0,0,1-1.35-5.57,8.68,8.68,0,0,1,3.9-7.69q3.88-2.62,11.8-2.87l5.73-.24v-1.87c0-2.6-.57-4.43-1.73-5.5a6.92,6.92,0,0,0-4.85-1.6,16.42,16.42,0,0,0-4.92.74,37.85,37.85,0,0,0-4.52,1.77l-1.93-4.41a27.37,27.37,0,0,1,5.35-2A24.07,24.07,0,0,1,656.18,429.7Zm6.24,17.68-4.64.21c-3.85.15-6.55.78-8.11,1.92a5.55,5.55,0,0,0-2.34,4.75,4.64,4.64,0,0,0,1.6,3.9,6.77,6.77,0,0,0,4.23,1.24,9.75,9.75,0,0,0,6.65-2.28q2.61-2.28,2.61-6.75Z"/><path d="M694.54,429.67c.6,0,1.26,0,2,.1s1.31.16,1.81.26l-.63,5.64a14.33,14.33,0,0,0-1.68-.3,14.07,14.07,0,0,0-1.76-.12,9.54,9.54,0,0,0-3.68.72,9.17,9.17,0,0,0-3.08,2.1,9.82,9.82,0,0,0-2.09,3.35,12.66,12.66,0,0,0-.75,4.51v17.6h-6.1V430.27h4.89l.73,6h.27a15.75,15.75,0,0,1,2.49-3.32,11.19,11.19,0,0,1,3.38-2.4A9.85,9.85,0,0,1,694.54,429.67Z"/><path d="M726.45,454.23a9.1,9.1,0,0,1-1.59,5.45,9.57,9.57,0,0,1-4.6,3.34,21.05,21.05,0,0,1-7.25,1.11,30.15,30.15,0,0,1-6-.52,19.79,19.79,0,0,1-4.59-1.53v-5.37a31.85,31.85,0,0,0,5.1,1.87,21,21,0,0,0,5.67.82c2.6,0,4.48-.42,5.63-1.24a3.91,3.91,0,0,0,1.74-3.35,3.56,3.56,0,0,0-.7-2.19,7.36,7.36,0,0,0-2.42-1.9,42.88,42.88,0,0,0-5-2.19,44.88,44.88,0,0,1-5.42-2.48,9.52,9.52,0,0,1-3.42-3,7.94,7.94,0,0,1-1.18-4.53,7.41,7.41,0,0,1,3.46-6.6,16.3,16.3,0,0,1,9.12-2.27,26,26,0,0,1,5.7.6,26.86,26.86,0,0,1,5.11,1.69l-2,4.68a33.3,33.3,0,0,0-4.47-1.56,18,18,0,0,0-4.68-.62,9.3,9.3,0,0,0-4.75,1,3.07,3.07,0,0,0-1.65,2.75,3.38,3.38,0,0,0,.77,2.26,8,8,0,0,0,2.59,1.77q1.8.86,4.88,2a38.94,38.94,0,0,1,5.27,2.39,9.78,9.78,0,0,1,3.43,3A8,8,0,0,1,726.45,454.23Z"/><path d="M347.42,534l5.82-11.07h3.48L349,537v9h-3.24v-8.85l-7.71-14.28h3.55Z"/><path d="M374.66,537.27a12.31,12.31,0,0,1-.56,3.84,7.84,7.84,0,0,1-1.63,2.84,7,7,0,0,1-2.57,1.77,9,9,0,0,1-3.41.61,8.4,8.4,0,0,1-3.25-.61,7.06,7.06,0,0,1-2.55-1.77,7.89,7.89,0,0,1-1.66-2.84,11.73,11.73,0,0,1-.59-3.84,11.11,11.11,0,0,1,1-4.88,6.93,6.93,0,0,1,2.81-3.07,8.61,8.61,0,0,1,4.36-1.05,8.19,8.19,0,0,1,4.22,1.06,7.09,7.09,0,0,1,2.83,3.07A10.65,10.65,0,0,1,374.66,537.27Zm-13,0a10.47,10.47,0,0,0,.51,3.46,4.21,4.21,0,0,0,4.35,3,4.21,4.21,0,0,0,4.32-3,10.76,10.76,0,0,0,.5-3.46,10.46,10.46,0,0,0-.5-3.42,4.43,4.43,0,0,0-1.58-2.18,4.63,4.63,0,0,0-2.77-.76,4.17,4.17,0,0,0-3.67,1.67A8.15,8.15,0,0,0,361.7,537.27Z"/><path d="M393.86,528.58V546h-2.54l-.45-2.39h-.17a4.86,4.86,0,0,1-1.39,1.5,6.28,6.28,0,0,1-1.92.9,8.14,8.14,0,0,1-2.24.3,8,8,0,0,1-3.41-.66,4.46,4.46,0,0,1-2.12-2.06,7.93,7.93,0,0,1-.72-3.62V528.58h3.19v11a4.74,4.74,0,0,0,.91,3.15,3.51,3.51,0,0,0,2.78,1,5.13,5.13,0,0,0,2.89-.72,4,4,0,0,0,1.53-2.1,10.81,10.81,0,0,0,.47-3.4v-8.94Z"/><path d="M421.93,546l-2.66-9.12c-.12-.41-.24-.86-.37-1.36l-.39-1.48c-.13-.5-.24-1-.34-1.39s-.18-.77-.23-1h-.13c-.05.26-.12.6-.22,1s-.2.89-.32,1.39-.25,1-.38,1.51-.26,1-.39,1.38L413.72,546H410.2l-4.84-17.42h3.25L411,537.7c.15.61.31,1.24.45,1.89s.28,1.28.38,1.86.19,1.07.24,1.48h.13c.05-.27.12-.61.2-1s.16-.83.26-1.28.19-.88.3-1.3l.31-1.11,3-9.65h3.44l2.84,9.63c.13.47.28,1,.42,1.56s.28,1.14.4,1.7.19,1,.24,1.44h.12c0-.36.12-.82.24-1.39s.25-1.19.4-1.86.3-1.32.47-1.95l2.42-9.13h3.2L425.53,546Z"/><path d="M435.09,522a2,2,0,0,1,1.3.44,1.74,1.74,0,0,1,.55,1.44,1.77,1.77,0,0,1-.55,1.45,2.12,2.12,0,0,1-2.61,0,1.82,1.82,0,0,1-.53-1.45,1.8,1.8,0,0,1,.53-1.44A2,2,0,0,1,435.09,522Zm1.56,6.59V546h-3.18V528.58Z"/><path d="M445.28,546h-3.2V521.4h3.2Z"/><path d="M453.88,546h-3.19V521.4h3.19Z"/><path d="M470.89,521.4v6.05q0,1-.06,2c0,.66-.07,1.17-.1,1.53h.16a6,6,0,0,1,2-1.94,6.42,6.42,0,0,1,3.37-.8,6.34,6.34,0,0,1,5.09,2.27c1.28,1.52,1.91,3.76,1.91,6.74a12.55,12.55,0,0,1-.87,5,6.35,6.35,0,0,1-6.21,4.08,6.44,6.44,0,0,1-3.31-.75,6.27,6.27,0,0,1-2-1.79h-.23l-.6,2.23h-2.36V521.4Zm4.66,9.49a4.89,4.89,0,0,0-2.74.68,3.74,3.74,0,0,0-1.46,2.06,11.61,11.61,0,0,0-.46,3.47v.23a9.19,9.19,0,0,0,1,4.75c.68,1.1,1.9,1.64,3.67,1.64a3.72,3.72,0,0,0,3.31-1.67,8.51,8.51,0,0,0,1.14-4.8,8.28,8.28,0,0,0-1.13-4.76A3.83,3.83,0,0,0,475.55,530.89Z"/><path d="M494.54,528.27a7.49,7.49,0,0,1,3.91,1A6.42,6.42,0,0,1,501,532a9.35,9.35,0,0,1,.87,4.17V538H490a6.23,6.23,0,0,0,1.44,4.29,5.07,5.07,0,0,0,3.91,1.5,12.6,12.6,0,0,0,3-.32,16.26,16.26,0,0,0,2.69-.93v2.67a13,13,0,0,1-2.64.88,15.93,15.93,0,0,1-3.15.27,9.26,9.26,0,0,1-4.44-1,7,7,0,0,1-3-3,10.34,10.34,0,0,1-1.06-4.89,11.41,11.41,0,0,1,1-4.93,7.17,7.17,0,0,1,2.72-3.14A7.65,7.65,0,0,1,494.54,528.27Zm0,2.47a4.07,4.07,0,0,0-3.1,1.25,5.85,5.85,0,0,0-1.37,3.6h8.57a6.8,6.8,0,0,0-.46-2.53,3.65,3.65,0,0,0-1.34-1.71A4,4,0,0,0,494.52,530.74Z"/><path d="M527.92,528.22a5.65,5.65,0,0,1-.62,2.71,5.14,5.14,0,0,1-1.71,1.88,7.25,7.25,0,0,1-2.53,1V534a6.84,6.84,0,0,1,4.15,1.75,5,5,0,0,1,1.4,3.72,6.73,6.73,0,0,1-1,3.58,6.3,6.3,0,0,1-2.91,2.45,12.45,12.45,0,0,1-5.06.88,18.4,18.4,0,0,1-3.43-.3,12.74,12.74,0,0,1-3-1v-2.9a13.6,13.6,0,0,0,3.12,1.13,13.75,13.75,0,0,0,3.23.41,6.49,6.49,0,0,0,4.34-1.17,4.1,4.1,0,0,0,1.32-3.23,3.38,3.38,0,0,0-.71-2.22,4.22,4.22,0,0,0-2.11-1.28,12.8,12.8,0,0,0-3.49-.41h-2.17v-2.62H519a8.37,8.37,0,0,0,3.2-.52,3.68,3.68,0,0,0,2.49-3.63,3.1,3.1,0,0,0-1.06-2.52,4.57,4.57,0,0,0-3-.9,8.31,8.31,0,0,0-2.19.27,9.23,9.23,0,0,0-1.83.68,15,15,0,0,0-1.64,1l-1.57-2.2a12.67,12.67,0,0,1,3.11-1.68,11.8,11.8,0,0,1,4.19-.69,8.21,8.21,0,0,1,5.41,1.56A5.13,5.13,0,0,1,527.92,528.22Z"/><path d="M539.63,522.56a9.67,9.67,0,0,1,3.58.63,5.6,5.6,0,0,1,2.5,1.86,5,5,0,0,1,.91,3,4.86,4.86,0,0,1-.6,2.45,6,6,0,0,1-1.59,1.83,12.86,12.86,0,0,1-2.24,1.4,15.89,15.89,0,0,1,2.59,1.52,7,7,0,0,1,1.87,2,5.24,5.24,0,0,1,.69,2.74,5.8,5.8,0,0,1-1,3.34,6.14,6.14,0,0,1-2.68,2.19,9.91,9.91,0,0,1-4,.76,10.92,10.92,0,0,1-4.24-.73,5.77,5.77,0,0,1-2.65-2.12,6,6,0,0,1-.91-3.33,5.5,5.5,0,0,1,.67-2.78,6.76,6.76,0,0,1,1.75-2,12.28,12.28,0,0,1,2.39-1.45,12.13,12.13,0,0,1-2-1.44,6.43,6.43,0,0,1-1.47-1.89,5.55,5.55,0,0,1-.54-2.51,4.82,4.82,0,0,1,.92-3,5.84,5.84,0,0,1,2.53-1.86A9.41,9.41,0,0,1,539.63,522.56Zm-4.69,17.52a3.52,3.52,0,0,0,1.16,2.71,5.06,5.06,0,0,0,3.51,1.06,5.13,5.13,0,0,0,3.46-1.05,3.53,3.53,0,0,0,1.21-2.78,3.27,3.27,0,0,0-.58-1.91,5.74,5.74,0,0,0-1.6-1.48,13.92,13.92,0,0,0-2.35-1.2l-.54-.2a11.66,11.66,0,0,0-2.29,1.26,5.23,5.23,0,0,0-1.46,1.56A3.91,3.91,0,0,0,534.94,540.08Zm4.65-15a4.47,4.47,0,0,0-2.79.83,2.77,2.77,0,0,0-1.08,2.35,3.18,3.18,0,0,0,.53,1.88,4.83,4.83,0,0,0,1.43,1.33,14.65,14.65,0,0,0,2,1,13,13,0,0,0,1.94-1,4.49,4.49,0,0,0,1.36-1.35,3.4,3.4,0,0,0,.5-1.86,2.77,2.77,0,0,0-1.08-2.36A4.57,4.57,0,0,0,539.59,525.07Z"/><path d="M557.34,528.58h3.44l3.7,10c.19.52.36,1,.53,1.51s.3,1,.42,1.42.22.91.3,1.36h.11c.12-.54.3-1.19.54-2s.48-1.55.75-2.35l3.55-10h3.41l-7.52,19.91a12,12,0,0,1-1.5,2.85,6.25,6.25,0,0,1-2.08,1.84,6.05,6.05,0,0,1-2.85.64,8.69,8.69,0,0,1-1.33-.09,7.79,7.79,0,0,1-1-.2V551c.23,0,.51.1.84.14a7.08,7.08,0,0,0,1,.07,3.58,3.58,0,0,0,1.72-.39,3.68,3.68,0,0,0,1.23-1.1,6.83,6.83,0,0,0,.86-1.66l.79-2.06Z"/><path d="M583.63,528.27a7.46,7.46,0,0,1,3.91,1A6.35,6.35,0,0,1,590,532a9.35,9.35,0,0,1,.87,4.17V538H579.08a6.23,6.23,0,0,0,1.44,4.29,5.06,5.06,0,0,0,3.9,1.5,12.54,12.54,0,0,0,3-.32,16,16,0,0,0,2.69-.93v2.67a12.71,12.71,0,0,1-2.63.88,16,16,0,0,1-3.16.27,9.29,9.29,0,0,1-4.44-1,7,7,0,0,1-3-3,10.22,10.22,0,0,1-1.06-4.89,11.56,11.56,0,0,1,1-4.93,7.23,7.23,0,0,1,2.72-3.14A7.67,7.67,0,0,1,583.63,528.27Zm0,2.47a4.05,4.05,0,0,0-3.1,1.25,5.91,5.91,0,0,0-1.38,3.6h8.58a7,7,0,0,0-.46-2.53,3.71,3.71,0,0,0-1.34-1.71A4,4,0,0,0,583.62,530.74Z"/><path d="M601.91,528.28a7,7,0,0,1,4.82,1.44,5.75,5.75,0,0,1,1.6,4.51V546h-2.28l-.62-2.53h-.12a9.2,9.2,0,0,1-1.52,1.58A5.5,5.5,0,0,1,602,546a8.76,8.76,0,0,1-2.52.31,6.64,6.64,0,0,1-2.82-.57,4.41,4.41,0,0,1-1.94-1.71,5.51,5.51,0,0,1-.7-2.92,4.54,4.54,0,0,1,2-4,11.86,11.86,0,0,1,6.19-1.51l3-.12v-1a3.78,3.78,0,0,0-.91-2.88,3.59,3.59,0,0,0-2.54-.84,8.58,8.58,0,0,0-2.58.39,17.36,17.36,0,0,0-2.37.92l-1-2.31a14.84,14.84,0,0,1,2.81-1.06A12.76,12.76,0,0,1,601.91,528.28Zm3.27,9.27-2.44.12a7.89,7.89,0,0,0-4.24,1,2.91,2.91,0,0,0-1.23,2.49,2.41,2.41,0,0,0,.84,2,3.54,3.54,0,0,0,2.21.65,5.13,5.13,0,0,0,3.49-1.19,4.47,4.47,0,0,0,1.37-3.54Z"/><path d="M622,528.27c.32,0,.66,0,1,.05s.69.09,1,.14l-.33,3a6.33,6.33,0,0,0-.88-.16,7.86,7.86,0,0,0-.93-.07,5.11,5.11,0,0,0-1.93.38,4.81,4.81,0,0,0-1.61,1.1,5.14,5.14,0,0,0-1.09,1.76,6.67,6.67,0,0,0-.4,2.36V546h-3.19V528.58h2.56l.38,3.15h.14A8.82,8.82,0,0,1,618,530a6,6,0,0,1,1.77-1.26A5.22,5.22,0,0,1,622,528.27Z"/><path d="M638.73,541.15a4.73,4.73,0,0,1-.83,2.85,4.91,4.91,0,0,1-2.41,1.75,11,11,0,0,1-3.8.58,16.11,16.11,0,0,1-3.16-.27,10.25,10.25,0,0,1-2.4-.8v-2.82a16.12,16.12,0,0,0,2.67,1,10.72,10.72,0,0,0,3,.43,5.19,5.19,0,0,0,3-.65,2,2,0,0,0,.91-1.75,1.9,1.9,0,0,0-.36-1.15,3.89,3.89,0,0,0-1.27-1,22.8,22.8,0,0,0-2.61-1.14,27,27,0,0,1-2.84-1.3,5,5,0,0,1-1.79-1.57,4.17,4.17,0,0,1-.62-2.37,3.91,3.91,0,0,1,1.81-3.46,8.65,8.65,0,0,1,4.79-1.19,13.55,13.55,0,0,1,3,.31,15,15,0,0,1,2.68.89l-1,2.45a17.49,17.49,0,0,0-2.34-.81,9.22,9.22,0,0,0-2.45-.33,4.8,4.8,0,0,0-2.49.53,1.58,1.58,0,0,0-.86,1.44,1.74,1.74,0,0,0,.4,1.18,4,4,0,0,0,1.35.93c.64.3,1.49.65,2.57,1.06a22.82,22.82,0,0,1,2.76,1.25,5.16,5.16,0,0,1,1.79,1.59A4.16,4.16,0,0,1,638.73,541.15Z"/><path d="M666.5,537.27a12.31,12.31,0,0,1-.56,3.84,7.84,7.84,0,0,1-1.63,2.84,7,7,0,0,1-2.57,1.77,9,9,0,0,1-3.41.61,8.4,8.4,0,0,1-3.25-.61,7.06,7.06,0,0,1-2.55-1.77,7.89,7.89,0,0,1-1.66-2.84,11.73,11.73,0,0,1-.59-3.84,11.11,11.11,0,0,1,1-4.88,6.93,6.93,0,0,1,2.81-3.07,8.61,8.61,0,0,1,4.36-1.05,8.19,8.19,0,0,1,4.22,1.06,7.09,7.09,0,0,1,2.83,3.07A10.65,10.65,0,0,1,666.5,537.27Zm-13,0a10.47,10.47,0,0,0,.51,3.46,4.83,4.83,0,0,0,7.08,2.22,4.5,4.5,0,0,0,1.59-2.22,10.76,10.76,0,0,0,.5-3.46,10.46,10.46,0,0,0-.5-3.42,4.43,4.43,0,0,0-1.58-2.18,4.65,4.65,0,0,0-2.77-.76,4.17,4.17,0,0,0-3.67,1.67A8.15,8.15,0,0,0,653.54,537.27Z"/><path d="M674.09,546H670.9V521.4h3.19Z"/><path d="M685.53,546.33a6.32,6.32,0,0,1-5.1-2.26c-1.27-1.51-1.91-3.74-1.91-6.71s.65-5.26,1.94-6.79a6.41,6.41,0,0,1,5.15-2.3,7,7,0,0,1,2.35.36,6,6,0,0,1,1.75,1,5.86,5.86,0,0,1,1.23,1.36h.19c0-.33-.11-.79-.16-1.38s-.08-1.11-.08-1.55V521.4h3.18V546h-2.51L691,543.6h-.14a6,6,0,0,1-1.21,1.38,5.37,5.37,0,0,1-1.76,1A7.11,7.11,0,0,1,685.53,546.33Zm.74-2.59a4.19,4.19,0,0,0,3.65-1.49,7.62,7.62,0,0,0,1.08-4.41v-.49a9.27,9.27,0,0,0-1-4.79c-.68-1.11-1.93-1.67-3.74-1.67a3.72,3.72,0,0,0-3.34,1.74,8.74,8.74,0,0,0-1.12,4.8,8.2,8.2,0,0,0,1.12,4.67A3.82,3.82,0,0,0,686.27,543.74Z"/></svg>