<svg id="Слой_1" data-name="Слой 1" xmlns="http://www.w3.org/2000/svg" xmlns:xlink="http://www.w3.org/1999/xlink" viewBox="0 0 1024 768"><defs><style>.cls-1{fill:#88cf00;}.cls-2{fill:#fff;}.cls-3{fill:#007fcf;}.cls-4{fill:url(#Безымянный_градиент_8);}.cls-5{fill:url(#Безымянный_градиент_8-2);}.cls-6{fill:url(#Безымянный_градиент_69);}.cls-7{fill:#fc9064;}</style><linearGradient id="Безымянный_градиент_8" x1="41.86" y1="470.25" x2="101.4" y2="470.25" gradientUnits="userSpaceOnUse"><stop offset="0" stop-color="#fff" stop-opacity="0"/><stop offset="1" stop-color="#646464"/></linearGradient><linearGradient id="Безымянный_градиент_8-2" x1="981.92" y1="470.32" x2="922.39" y2="470.17" xlink:href="#Безымянный_градиент_8"/><linearGradient id="Безымянный_градиент_69" x1="188.6" y1="-2876.71" x2="127.46" y2="-2876.85" gradientTransform="translate(353.76 3481.81)" gradientUnits="userSpaceOnUse"><stop offset="0" stop-color="#fff" stop-opacity="0"/><stop offset="0.29" stop-color="#cdcdcd" stop-opacity="0.32"/><stop offset="0.76" stop-color="#818181" stop-opacity="0.81"/><stop offset="1" stop-color="#646464"/></linearGradient></defs><title>Язык</title><rect class="cls-1" x="22.41" y="150.45" width="116.01" height="213.33"/><rect class="cls-2" x="22.41" y="363.77" width="116.01" height="213.33"/><rect class="cls-3" x="886.4" y="150.45" width="116.01" height="213.33"/><rect class="cls-2" x="886.4" y="363.77" width="116.01" height="213.33"/><rect class="cls-4" x="41.86" y="363.39" width="59.53" height="213.71"/><rect class="cls-5" x="922.38" y="363.39" width="59.53" height="213.71"/><rect class="cls-6" x="482.01" y="158.66" width="59.53" height="892.73" transform="translate(1116.81 93.24) rotate(90)"/><rect class="cls-7" x="65.16" y="122.21" width="892.99" height="241.18"/><rect class="cls-2" x="65.16" y="363.39" width="892.99" height="241.18"/><path class="cls-2" d="M357.82,156.73a6.41,6.41,0,0,1-2,4.94,9.92,9.92,0,0,1-5.27,2.36v.15a10.43,10.43,0,0,1,5.93,2.4,6.45,6.45,0,0,1,2,5,8.31,8.31,0,0,1-1.38,4.75,9,9,0,0,1-4.13,3.18,17.7,17.7,0,0,1-6.82,1.15,31.56,31.56,0,0,1-5.12-.4,16.8,16.8,0,0,1-4.27-1.28V175.1a18.59,18.59,0,0,0,2.85,1.09,23.94,23.94,0,0,0,3.15.71,20.53,20.53,0,0,0,3,.24q4.14,0,6.21-1.5a4.9,4.9,0,0,0,2.08-4.23,4.27,4.27,0,0,0-2.53-4.07,15.86,15.86,0,0,0-7-1.28h-4v-3.52h3.84a17.23,17.23,0,0,0,5.17-.65,6,6,0,0,0,2.94-1.83,4.39,4.39,0,0,0,.95-2.82,4,4,0,0,0-1.66-3.41,7.38,7.38,0,0,0-4.47-1.21,13.49,13.49,0,0,0-4.74.73,18.84,18.84,0,0,0-3.75,1.89l-2-2.91a17.27,17.27,0,0,1,2.91-1.66,17.58,17.58,0,0,1,3.57-1.15,20.21,20.21,0,0,1,4.25-.42,14.19,14.19,0,0,1,5.58,1,7.73,7.73,0,0,1,3.47,2.7A6.83,6.83,0,0,1,357.82,156.73Z"/><path class="cls-2" d="M364.89,149.54h4v17c0,.68,0,1.43,0,2.24s-.05,1.61-.08,2.39-.06,1.48-.09,2.1-.07,1.07-.09,1.38h.16l16.34-25.1H390V180.2H386V163.38c0-.75,0-1.56,0-2.41s.06-1.68.1-2.49.07-1.51.11-2.14.07-1.08.09-1.39h-.17L369.79,180.2h-4.9Z"/><path class="cls-2" d="M421.88,180.2h-4.29V166H402.46V180.2h-4.29V149.54h4.29v12.79h15.13V149.54h4.29Z"/><path class="cls-2" d="M451.45,149.54v26.9h3.86v12h-4.13V180.2H430.4v8.24h-4.13v-12h2.35a52.72,52.72,0,0,0,2.77-5.77,69.08,69.08,0,0,0,2.36-6.69,73.54,73.54,0,0,0,1.76-7.17,61.53,61.53,0,0,0,1-7.27Zm-4.28,3.75h-7a50.52,50.52,0,0,1-.85,5.54c-.41,2-.94,4.08-1.57,6.2s-1.35,4.16-2.12,6.12a45.27,45.27,0,0,1-2.47,5.29h14Z"/><path class="cls-2" d="M479.49,180.2l-3.4-9.12h-12l-3.36,9.12h-4.47L468,149.41h4.4L484,180.2Zm-4.59-12.86-3.23-9-.45-1.38c-.21-.61-.41-1.25-.61-1.91s-.37-1.2-.49-1.63c-.14.57-.3,1.17-.49,1.81s-.36,1.23-.53,1.78-.32,1-.43,1.33l-3.27,9Z"/><path class="cls-2" d="M512.67,180.2l-9.57-26.36h-.16c0,.57.08,1.31.13,2.21s.09,1.88.13,2.94.05,2.09.05,3.11v18.1h-3.94V149.54h6.18l9.08,25h.15l9.31-25h6.15V180.2H526V161.85c0-.92,0-1.89,0-2.89s.06-1.94.11-2.85.1-1.64.14-2.23h-.19l-9.79,26.32Z"/><path class="cls-2" d="M565.3,164.83a21.76,21.76,0,0,1-.9,6.45,14.07,14.07,0,0,1-2.67,5,11.91,11.91,0,0,1-4.43,3.22,15.76,15.76,0,0,1-6.19,1.13,16.17,16.17,0,0,1-6.29-1.13,11.7,11.7,0,0,1-4.43-3.23,13.75,13.75,0,0,1-2.63-5,22.46,22.46,0,0,1-.87-6.45,20.37,20.37,0,0,1,1.55-8.27,11.84,11.84,0,0,1,4.73-5.5,15,15,0,0,1,8-2A14.56,14.56,0,0,1,559,151a12.1,12.1,0,0,1,4.74,5.48A20.21,20.21,0,0,1,565.3,164.83Zm-23.9,0a18.15,18.15,0,0,0,1,6.45,8.77,8.77,0,0,0,3.19,4.19,11,11,0,0,0,11,0,8.53,8.53,0,0,0,3.15-4.19,18.64,18.64,0,0,0,1-6.45q0-5.67-2.3-8.86c-1.54-2.14-4-3.2-7.3-3.2a9.61,9.61,0,0,0-5.52,1.46,8.59,8.59,0,0,0-3.21,4.15A17.73,17.73,0,0,0,541.4,164.83Z"/><path class="cls-2" d="M595.71,180.2h-4.3V166H576.29V180.2H572V149.54h4.3v12.79h15.12V149.54h4.3Z"/><path class="cls-2" d="M625.28,149.54v26.9h3.86v12H625V180.2H604.22v8.24h-4.13v-12h2.35a50.94,50.94,0,0,0,2.78-5.77q1.31-3.18,2.36-6.69a73.54,73.54,0,0,0,1.76-7.17,63.69,63.69,0,0,0,1-7.27ZM621,153.29h-7a50.33,50.33,0,0,1-.84,5.54c-.42,2-.94,4.08-1.58,6.2s-1.34,4.16-2.11,6.12a45.27,45.27,0,0,1-2.47,5.29h14Z"/><path class="cls-2" d="M653.32,180.2l-3.4-9.12h-12l-3.35,9.12h-4.47l11.7-30.79h4.41l11.64,30.79Zm-4.6-12.86-3.23-9q-.13-.45-.45-1.38c-.2-.61-.4-1.25-.6-1.91s-.37-1.2-.5-1.63c-.14.57-.3,1.17-.48,1.81s-.36,1.23-.53,1.78-.32,1-.43,1.33l-3.28,9Z"/><path class="cls-2" d="M685.7,180.2h-4.3V166H666.28V180.2H662V149.54h4.3v12.79H681.4V149.54h4.3Z"/><path class="cls-2" d="M337.46,228.58a9.56,9.56,0,0,1-1.06,4.63,8.77,8.77,0,0,1-2.91,3.2,12.44,12.44,0,0,1-4.32,1.76v.18a11.78,11.78,0,0,1,7.08,3,8.6,8.6,0,0,1,2.39,6.35,11.43,11.43,0,0,1-1.62,6.1,10.74,10.74,0,0,1-5,4.19,21.13,21.13,0,0,1-8.63,1.51,31.65,31.65,0,0,1-5.86-.51,21.36,21.36,0,0,1-5.13-1.65V252.4a24.34,24.34,0,0,0,5.32,1.93,23.54,23.54,0,0,0,5.51.69q5.16,0,7.41-2a7,7,0,0,0,2.26-5.51,5.8,5.8,0,0,0-1.22-3.8,7.14,7.14,0,0,0-3.6-2.17,21.45,21.45,0,0,0-6-.7h-3.7v-4.48h3.76a14.74,14.74,0,0,0,5.47-.88,6.84,6.84,0,0,0,3.2-2.47,6.65,6.65,0,0,0,1.05-3.73A5.33,5.33,0,0,0,330.1,225a7.85,7.85,0,0,0-5.15-1.52,14.54,14.54,0,0,0-3.74.44,16,16,0,0,0-3.13,1.18,24.66,24.66,0,0,0-2.8,1.64L312.61,223a20.8,20.8,0,0,1,5.31-2.86,19.8,19.8,0,0,1,7.14-1.19q6.07,0,9.24,2.67A8.76,8.76,0,0,1,337.46,228.58Z"/><path class="cls-2" d="M357.2,234.55a16.1,16.1,0,0,1,6.85,1.36,10.48,10.48,0,0,1,4.56,4,11.84,11.84,0,0,1,1.63,6.38,13.66,13.66,0,0,1-1.75,7.07,11.46,11.46,0,0,1-5.11,4.57,18.75,18.75,0,0,1-8.1,1.59,29,29,0,0,1-5.75-.54,14.92,14.92,0,0,1-4.54-1.62v-5a18.64,18.64,0,0,0,4.82,1.88,22,22,0,0,0,5.44.72,12.93,12.93,0,0,0,5-.89,7.08,7.08,0,0,0,3.28-2.7,8.42,8.42,0,0,0,1.16-4.6,7.08,7.08,0,0,0-2.3-5.67q-2.29-2-7.21-2a24.44,24.44,0,0,0-3.56.29c-1.28.19-2.33.38-3.16.58l-2.54-1.54,1.51-18.93h20.1v4.83h-15.4l-.92,10.88c.67-.14,1.5-.28,2.49-.43A25.45,25.45,0,0,1,357.2,234.55Z"/><path class="cls-2" d="M402.28,239.16a46.11,46.11,0,0,1-.73,8.59,19.58,19.58,0,0,1-2.31,6.4,10.69,10.69,0,0,1-4.11,4A12.63,12.63,0,0,1,389,259.5a11.27,11.27,0,0,1-7.4-2.4,14.33,14.33,0,0,1-4.35-7,37,37,0,0,1-1.43-11,39.82,39.82,0,0,1,1.3-10.87,13.72,13.72,0,0,1,4.2-7,11.53,11.53,0,0,1,7.68-2.45,11.35,11.35,0,0,1,7.47,2.42,14.31,14.31,0,0,1,4.35,7A37.15,37.15,0,0,1,402.28,239.16Zm-21,0a43,43,0,0,0,.75,8.78,10.72,10.72,0,0,0,2.46,5.26,6,6,0,0,0,4.51,1.74,6.13,6.13,0,0,0,4.53-1.73A10.48,10.48,0,0,0,396,248a43.2,43.2,0,0,0,.75-8.81,42.31,42.31,0,0,0-.75-8.68,10.84,10.84,0,0,0-2.45-5.27,6.76,6.76,0,0,0-9.1,0,10.84,10.84,0,0,0-2.43,5.27A43.1,43.1,0,0,0,381.32,239.16Z"/><path class="cls-2" d="M433.25,262.18v-5.62a37.87,37.87,0,0,1-6-.57,20.36,20.36,0,0,1-4.74-1.38v-5.05a26.74,26.74,0,0,0,4.95,1.64,28.62,28.62,0,0,0,5.82.79V241a32.76,32.76,0,0,1-6.11-2.54,9.43,9.43,0,0,1-3.55-3.23,8.41,8.41,0,0,1-1.17-4.55,8.15,8.15,0,0,1,1.35-4.72,9.13,9.13,0,0,1,3.8-3.11,15.55,15.55,0,0,1,5.68-1.32V217h3.41v4.46a27.58,27.58,0,0,1,10,2.16L445,228a28.65,28.65,0,0,0-4.08-1.3,28.09,28.09,0,0,0-4.26-.67v10.83a44.4,44.4,0,0,1,6,2.29,10.28,10.28,0,0,1,3.86,3,7.66,7.66,0,0,1,1.35,4.7,8.15,8.15,0,0,1-2.89,6.47c-1.93,1.66-4.69,2.67-8.29,3v5.81Zm0-26.53v-9.5a9,9,0,0,0-3,.69,4.43,4.43,0,0,0-1.85,1.44,3.69,3.69,0,0,0-.62,2.13,4.64,4.64,0,0,0,.54,2.33,4.52,4.52,0,0,0,1.76,1.63A15.47,15.47,0,0,0,433.25,235.65Zm3.41,16.13a8.46,8.46,0,0,0,4.41-1.49,3.73,3.73,0,0,0,1.45-3.08,4,4,0,0,0-.58-2.2,4.85,4.85,0,0,0-1.87-1.54,19.18,19.18,0,0,0-3.41-1.28Z"/><path class="cls-2" d="M498,219.48v34.65h5v15.45h-5.32V259H470.9v10.62h-5.32V254.13h3a69.84,69.84,0,0,0,3.58-7.44q1.68-4.09,3-8.62a93.67,93.67,0,0,0,2.27-9.24,78.22,78.22,0,0,0,1.27-9.35Zm-5.51,4.83h-9.05a66.27,66.27,0,0,1-1.09,7.13q-.8,3.88-2,8t-2.72,7.89a58.17,58.17,0,0,1-3.18,6.82h18.07Z"/><path class="cls-2" d="M534.13,259l-4.38-11.75H514.28L510,259H504.2l15.07-39.65H525l15,39.65Zm-5.92-16.55-4.16-11.64c-.12-.4-.31-1-.58-1.79s-.52-1.61-.78-2.45-.47-1.55-.63-2.11c-.18.74-.39,1.52-.62,2.33s-.47,1.59-.69,2.3-.41,1.28-.56,1.72L516,242.41Z"/><path class="cls-2" d="M556.17,219.48q7.64,0,11.17,3.05t3.52,8.67a14.3,14.3,0,0,1-.81,4.82,10.29,10.29,0,0,1-2.63,4,13,13,0,0,1-4.8,2.76,22.93,22.93,0,0,1-7.29,1h-4.51V259h-5.54V219.48Zm-.43,4.64h-4.92v15h3.92a18.6,18.6,0,0,0,5.75-.77A6.72,6.72,0,0,0,564,235.9a7.72,7.72,0,0,0,1.19-4.49,6.55,6.55,0,0,0-2.3-5.48Q560.6,224.12,555.74,224.12Z"/><path class="cls-2" d="M610.51,259,598.19,225H598c0,.74.11,1.69.17,2.85s.12,2.42.16,3.78.07,2.7.07,4V259H593.3V219.48h8L613,251.64h.19l12-32.16h7.91V259h-5.35V235.33c0-1.19,0-2.43.06-3.71s.08-2.52.14-3.68.13-2.12.18-2.87h-.24L615.23,259Z"/><path class="cls-2" d="M678.3,239.16a28,28,0,0,1-1.16,8.31,18.23,18.23,0,0,1-3.45,6.43A15.15,15.15,0,0,1,668,258a20.1,20.1,0,0,1-8,1.46,20.54,20.54,0,0,1-8.09-1.46,15,15,0,0,1-5.71-4.16,17.9,17.9,0,0,1-3.39-6.45,29.27,29.27,0,0,1-1.12-8.32,26.37,26.37,0,0,1,2-10.64,15.31,15.31,0,0,1,6.09-7.09,19.34,19.34,0,0,1,10.3-2.53,18.69,18.69,0,0,1,10,2.52,15.63,15.63,0,0,1,6.11,7.06A26,26,0,0,1,678.3,239.16Zm-30.79,0a23.28,23.28,0,0,0,1.34,8.31,11.22,11.22,0,0,0,4.1,5.4,14.1,14.1,0,0,0,14.17,0,11.07,11.07,0,0,0,4-5.4,24,24,0,0,0,1.29-8.31q0-7.29-3-11.41t-9.4-4.12a12.46,12.46,0,0,0-7.1,1.88,11.13,11.13,0,0,0-4.13,5.35A22.88,22.88,0,0,0,647.51,239.16Z"/><path class="cls-2" d="M714.68,259h-6.32l-10.29-16.77L687.64,259h-5.89l13.13-20.52-12.23-19h6.13l9.53,15.36,9.51-15.36h5.91l-12.26,19Z"/><path class="cls-2" d="M355.8,301.69a10.51,10.51,0,0,0-4.32.85,8.65,8.65,0,0,0-3.23,2.45,11.4,11.4,0,0,0-2,3.87,19.33,19.33,0,0,0,.42,11.64,8.91,8.91,0,0,0,3.38,4.24,10.12,10.12,0,0,0,5.7,1.5,19.9,19.9,0,0,0,3.92-.38,31.85,31.85,0,0,0,3.72-1v3.76a19.46,19.46,0,0,1-3.7,1,26.68,26.68,0,0,1-4.47.33,14.74,14.74,0,0,1-7.95-2,12,12,0,0,1-4.73-5.58,21.23,21.23,0,0,1-1.56-8.49,20.38,20.38,0,0,1,1-6.47,14.65,14.65,0,0,1,2.88-5.08,12.66,12.66,0,0,1,4.67-3.31,16.19,16.19,0,0,1,6.37-1.17,20.54,20.54,0,0,1,4.58.51,19.86,19.86,0,0,1,4.11,1.39l-1.63,3.65a25.7,25.7,0,0,0-3.34-1.23A12.92,12.92,0,0,0,355.8,301.69Z"/><path class="cls-2" d="M378.58,305.64c2.9,0,5.07.65,6.51,1.93s2.15,3.32,2.15,6.1v15.9h-3.07l-.83-3.42h-.17a12.39,12.39,0,0,1-2.05,2.14,7.34,7.34,0,0,1-2.47,1.28,11.9,11.9,0,0,1-3.4.42,9,9,0,0,1-3.8-.76,5.94,5.94,0,0,1-2.61-2.32,7.35,7.35,0,0,1-.95-3.94,6.13,6.13,0,0,1,2.75-5.44c1.83-1.24,4.62-1.91,8.34-2l4.06-.17V314c0-1.84-.41-3.13-1.23-3.89a4.88,4.88,0,0,0-3.42-1.13,11.51,11.51,0,0,0-3.48.53,24.11,24.11,0,0,0-3.2,1.24l-1.37-3.11a19.07,19.07,0,0,1,3.79-1.43A16.65,16.65,0,0,1,378.58,305.64ZM383,318.15l-3.29.15q-4.08.15-5.73,1.35a3.94,3.94,0,0,0-1.65,3.36,3.25,3.25,0,0,0,1.13,2.76,4.75,4.75,0,0,0,3,.87,6.87,6.87,0,0,0,4.71-1.61,6,6,0,0,0,1.85-4.77Z"/><path class="cls-2" d="M406,305.62a8.51,8.51,0,0,1,6.86,3q2.58,3,2.58,9.08a16.91,16.91,0,0,1-1.19,6.74,9.14,9.14,0,0,1-3.33,4.12,9,9,0,0,1-5,1.39,9.58,9.58,0,0,1-3.18-.48,7.51,7.51,0,0,1-2.34-1.28,9,9,0,0,1-1.63-1.71h-.28c.05.55.12,1.19.18,1.93s.1,1.39.1,2V340h-4.32v-34h3.53l.57,3.37h.22a8.65,8.65,0,0,1,1.63-1.91,7.21,7.21,0,0,1,2.36-1.38A9.42,9.42,0,0,1,406,305.62Zm-1,3.54a6.55,6.55,0,0,0-3.62.89,5.1,5.1,0,0,0-2,2.63,13.62,13.62,0,0,0-.67,4.4v.68a16.19,16.19,0,0,0,.59,4.75,5.54,5.54,0,0,0,2,2.95,6.22,6.22,0,0,0,3.73,1,5.08,5.08,0,0,0,3.34-1.09,6.45,6.45,0,0,0,2-3.07,14.91,14.91,0,0,0,.65-4.61,11.44,11.44,0,0,0-1.47-6.26A5,5,0,0,0,405,309.16Z"/><path class="cls-2" d="M447.41,306.05v23.52h-3.9V315.2c0-.75,0-1.51.05-2.27s.08-1.5.14-2.23h-.13l-7.47,18.87h-3.48l-7.36-18.89h-.13c.06.72.1,1.47.13,2.23s0,1.57,0,2.44v14.22h-3.93V306.05h5.87l7.15,18.4,7.26-18.4Z"/><path class="cls-2" d="M475.2,317.76a16.22,16.22,0,0,1-.76,5.18,10.33,10.33,0,0,1-2.19,3.84,9.35,9.35,0,0,1-3.47,2.39,12.08,12.08,0,0,1-4.59.82,11.37,11.37,0,0,1-4.39-.82,9.4,9.4,0,0,1-3.44-2.39,10.72,10.72,0,0,1-2.25-3.84,15.92,15.92,0,0,1-.79-5.18,15,15,0,0,1,1.33-6.58,9.36,9.36,0,0,1,3.79-4.14,11.53,11.53,0,0,1,5.88-1.42,11.17,11.17,0,0,1,5.7,1.43,9.71,9.71,0,0,1,3.82,4.14A14.5,14.5,0,0,1,475.2,317.76Zm-17.48,0a13.79,13.79,0,0,0,.7,4.67,6.11,6.11,0,0,0,2.13,3,7.14,7.14,0,0,0,7.42,0,6.11,6.11,0,0,0,2.13-3,14.07,14.07,0,0,0,.68-4.67,13.7,13.7,0,0,0-.68-4.61,5.92,5.92,0,0,0-2.12-2.94,6.35,6.35,0,0,0-3.75-1,5.59,5.59,0,0,0-4.94,2.26A10.91,10.91,0,0,0,457.72,317.76Z"/><path class="cls-2" d="M482.91,329.57H478l6.66-9.76a8.61,8.61,0,0,1-2.63-1.17,6,6,0,0,1-2-2.19,7,7,0,0,1-.75-3.38,6.16,6.16,0,0,1,2.37-5.22,10,10,0,0,1,6.19-1.8h10.55v23.52h-4.29V320.3h-5.34Zm.64-16.48A3.29,3.29,0,0,0,485,316a6.91,6.91,0,0,0,4,1h5.25v-7.55h-5.94a5.14,5.14,0,0,0-3.58,1A3.45,3.45,0,0,0,483.55,313.09Z"/><path class="cls-2" d="M505.15,308.52a2.82,2.82,0,0,1,.82-2.31,3,3,0,0,1,2-.68,3.11,3.11,0,0,1,2,.68,2.79,2.79,0,0,1,.84,2.31,2.83,2.83,0,0,1-.84,2.29,3,3,0,0,1-2,.7,3,3,0,0,1-2-.7A2.85,2.85,0,0,1,505.15,308.52Zm0,18.61a2.8,2.8,0,0,1,.82-2.29,3,3,0,0,1,2-.67,3.1,3.1,0,0,1,2,.67,2.77,2.77,0,0,1,.84,2.29,2.89,2.89,0,0,1-.84,2.31,3,3,0,0,1-2,.73,2.69,2.69,0,0,1-2.81-3Z"/><path class="cls-2" d="M548.05,329.57H527.26V326.2l8.22-8.35q2.34-2.37,3.89-4.15a15.52,15.52,0,0,0,2.34-3.46,8.44,8.44,0,0,0,.79-3.66,4.73,4.73,0,0,0-1.43-3.71,5.45,5.45,0,0,0-3.8-1.28,9.2,9.2,0,0,0-3.85.78,17,17,0,0,0-3.56,2.23l-2.3-2.86a19.19,19.19,0,0,1,2.73-1.94,14.52,14.52,0,0,1,3.22-1.37,13.87,13.87,0,0,1,3.89-.52,11.58,11.58,0,0,1,5.05,1,7.64,7.64,0,0,1,3.27,2.9,8.23,8.23,0,0,1,1.16,4.4,10.83,10.83,0,0,1-1,4.62,18,18,0,0,1-2.81,4.22q-1.8,2.09-4.28,4.46l-6.09,6v.2h15.35Z"/><path class="cls-2" d="M566.23,329.57H562V308.46c0-.75,0-1.45,0-2.08s0-1.24,0-1.82.06-1.13.08-1.67c-.37.38-.75.75-1.16,1.1s-.87.74-1.4,1.18L556,308.05l-2.2-2.81,8.86-6.88h3.56Z"/><path class="cls-2" d="M610.73,322.52h-4.44v7.05h-4.2v-7.05H587.45v-3.39L602,298.23h4.28v20.6h4.44Zm-8.64-3.69v-9c0-.71,0-1.39,0-2s0-1.26.07-1.85.05-1.12.08-1.63,0-1,.07-1.38h-.18q-.4.86-.9,1.77a17.26,17.26,0,0,1-1.06,1.71l-8.64,12.38Z"/><path class="cls-2" d="M623.84,310.27a12.68,12.68,0,0,1,5.41,1.08,8.28,8.28,0,0,1,3.61,3.15,9.35,9.35,0,0,1,1.29,5,10.76,10.76,0,0,1-1.39,5.59,9,9,0,0,1-4,3.6,14.83,14.83,0,0,1-6.41,1.26,23.28,23.28,0,0,1-4.54-.42,12,12,0,0,1-3.59-1.28v-4a14.84,14.84,0,0,0,3.81,1.48,17.37,17.37,0,0,0,4.3.57,10.08,10.08,0,0,0,3.94-.71,5.52,5.52,0,0,0,2.59-2.13,6.52,6.52,0,0,0,.92-3.63,5.6,5.6,0,0,0-1.81-4.48c-1.21-1.06-3.11-1.58-5.7-1.58a19.23,19.23,0,0,0-2.82.22c-1,.15-1.84.3-2.49.46l-2-1.22,1.19-15H632v3.82H619.83l-.73,8.61c.53-.12,1.18-.23,2-.35A20,20,0,0,1,623.84,310.27Z"/><path class="cls-2" d="M659.38,329.57H638.59V326.2l8.22-8.35q2.34-2.37,3.89-4.15a15.52,15.52,0,0,0,2.34-3.46,8.59,8.59,0,0,0,.79-3.66,4.73,4.73,0,0,0-1.43-3.71,5.45,5.45,0,0,0-3.8-1.28,9.2,9.2,0,0,0-3.85.78,17,17,0,0,0-3.56,2.23l-2.3-2.86a19.19,19.19,0,0,1,2.73-1.94,14.52,14.52,0,0,1,3.22-1.37,13.87,13.87,0,0,1,3.89-.52,11.58,11.58,0,0,1,5,1,7.64,7.64,0,0,1,3.27,2.9,8.23,8.23,0,0,1,1.15,4.4,10.83,10.83,0,0,1-1,4.62,18.33,18.33,0,0,1-2.81,4.22q-1.8,2.09-4.29,4.46l-6.08,6v.2h15.35Z"/><path class="cls-2" d="M672.59,332.11v-4.44a29.5,29.5,0,0,1-4.77-.45,16,16,0,0,1-3.75-1.09v-4a21.67,21.67,0,0,0,3.92,1.29,22,22,0,0,0,4.6.63v-8.69a26,26,0,0,1-4.84-2,7.59,7.59,0,0,1-2.8-2.55,6.74,6.74,0,0,1-.92-3.6,6.35,6.35,0,0,1,1.07-3.73,7.21,7.21,0,0,1,3-2.46,12.2,12.2,0,0,1,4.49-1V296.4h2.69v3.52a22.93,22.93,0,0,1,4.27.54,21.54,21.54,0,0,1,3.67,1.17l-1.35,3.48a22.05,22.05,0,0,0-3.22-1,21.23,21.23,0,0,0-3.37-.53v8.56a34.58,34.58,0,0,1,4.71,1.81,8.12,8.12,0,0,1,3.06,2.39,6.08,6.08,0,0,1,1.07,3.72,6.46,6.46,0,0,1-2.29,5.11,11.43,11.43,0,0,1-6.55,2.38v4.59Zm0-21v-7.52a7.38,7.38,0,0,0-2.38.55,3.37,3.37,0,0,0-1.46,1.14,2.86,2.86,0,0,0-.49,1.69,3.7,3.7,0,0,0,.42,1.83,3.57,3.57,0,0,0,1.39,1.29A12.46,12.46,0,0,0,672.59,311.15Zm2.69,12.74a6.75,6.75,0,0,0,3.49-1.17,3,3,0,0,0,1.14-2.44,3.09,3.09,0,0,0-.46-1.74,3.89,3.89,0,0,0-1.47-1.21,15.8,15.8,0,0,0-2.7-1Z"/><path d="M309.82,463.53V419.4h26.41v5.31H316v13h6.07a25.82,25.82,0,0,1,10,1.6,10.53,10.53,0,0,1,5.26,4.47A13.41,13.41,0,0,1,339,450.4q0,6.23-3.82,9.68c-2.55,2.3-6.71,3.45-12.51,3.45Zm6.19-5.22h6.1c3.7,0,6.38-.64,8-1.92s2.48-3.27,2.48-6a7.42,7.42,0,0,0-1.19-4.44,6.52,6.52,0,0,0-3.7-2.3,25,25,0,0,0-6.46-.68H316Z"/><path d="M360.05,429.7q6.15,0,9.2,2.73c2,1.82,3.05,4.69,3.05,8.61v22.49H368l-1.18-4.83h-.24a17.5,17.5,0,0,1-2.9,3,10.26,10.26,0,0,1-3.49,1.81,16.74,16.74,0,0,1-4.81.6,12.75,12.75,0,0,1-5.37-1.08,8.36,8.36,0,0,1-3.7-3.28,10.44,10.44,0,0,1-1.34-5.57,8.67,8.67,0,0,1,3.89-7.69q3.9-2.62,11.8-2.87l5.74-.24v-1.87q0-3.9-1.74-5.5a6.91,6.91,0,0,0-4.84-1.6,16.42,16.42,0,0,0-4.92.74,37.35,37.35,0,0,0-4.53,1.77l-1.93-4.41a27.62,27.62,0,0,1,5.35-2A24.12,24.12,0,0,1,360.05,429.7Zm6.24,17.68-4.64.21c-3.85.15-6.55.78-8.11,1.92a5.55,5.55,0,0,0-2.34,4.75,4.64,4.64,0,0,0,1.6,3.9A6.77,6.77,0,0,0,357,459.4a9.75,9.75,0,0,0,6.65-2.28q2.61-2.28,2.61-6.75Z"/><path d="M394.7,430.27v13.49h8.81a23.26,23.26,0,0,1,7.64,1.07,8.23,8.23,0,0,1,6,8.44,10.17,10.17,0,0,1-1.41,5.43,9,9,0,0,1-4.41,3.56,20.27,20.27,0,0,1-7.83,1.27H388.63V435.19h-10.5v-4.92Zm8.6,18.26h-8.6v10.35h8.66a10.88,10.88,0,0,0,5.65-1.25,4.47,4.47,0,0,0,2.08-4.15,4.08,4.08,0,0,0-1.93-3.85A12.23,12.23,0,0,0,403.3,448.53Z"/><path d="M451,430.27v28.37h4.8v16.48h-5.73V463.53H426.84v11.59H421.2V458.64h2.66a37.76,37.76,0,0,0,4.46-8.37,55,55,0,0,0,2.75-9.69,65.69,65.69,0,0,0,1.12-10.31ZM445.08,435h-7.61a61.86,61.86,0,0,1-1.28,8.51,58,58,0,0,1-2.46,8.18,35.3,35.3,0,0,1-3.57,6.94h14.92Z"/><path d="M468,430.27v19c0,.47,0,1.07,0,1.8s-.07,1.5-.12,2.31-.1,1.56-.14,2.26-.08,1.25-.12,1.63l17.42-27h7.39v33.26h-5.73V444.94c0-.75,0-1.67,0-2.76s.08-2.16.14-3.19.1-1.82.12-2.38l-17.36,26.92h-7.42V430.27Z"/><path d="M521.92,463.53l17.75-38.72H516.19V419.4h30v4.35L528.5,463.53Z"/><path d="M560.62,456.35l.39.69q-.54,2.2-1.37,4.71t-1.83,5c-.66,1.67-1.33,3.25-2,4.74h-4.47c.43-1.61.83-3.31,1.22-5.1s.76-3.55,1.09-5.28.6-3.32.8-4.77Z"/><path d="M568.59,444.7a51.72,51.72,0,0,1,.56-7.73,29.92,29.92,0,0,1,1.9-7.06,18.33,18.33,0,0,1,3.7-5.78,16.21,16.21,0,0,1,5.88-3.91,22.76,22.76,0,0,1,8.51-1.42c.89,0,1.87,0,3,.12a13.87,13.87,0,0,1,2.67.42v5.1a14.89,14.89,0,0,0-2.57-.54,22.44,22.44,0,0,0-2.84-.18q-5.58,0-8.75,2.28a12.46,12.46,0,0,0-4.53,6.19A30.94,30.94,0,0,0,574.5,441h.34a11,11,0,0,1,2.32-2.68,10.65,10.65,0,0,1,3.43-1.92,14.11,14.11,0,0,1,4.69-.71,13.64,13.64,0,0,1,6.73,1.59,10.84,10.84,0,0,1,4.44,4.6,15.81,15.81,0,0,1,1.57,7.33,17.25,17.25,0,0,1-1.72,7.94,12.18,12.18,0,0,1-4.91,5.16,15.06,15.06,0,0,1-7.59,1.81,14.79,14.79,0,0,1-6-1.22,13.23,13.23,0,0,1-4.83-3.65,17.57,17.57,0,0,1-3.2-6.07A28.42,28.42,0,0,1,568.59,444.7Zm15.12,14.39a7.91,7.91,0,0,0,6-2.43q2.28-2.43,2.28-7.41a9.59,9.59,0,0,0-2-6.44q-2-2.37-6.1-2.37a9.56,9.56,0,0,0-4.84,1.18,8.86,8.86,0,0,0-3.2,2.94,6.57,6.57,0,0,0-1.13,3.61,14,14,0,0,0,.54,3.82,11.77,11.77,0,0,0,1.66,3.53,8.6,8.6,0,0,0,2.81,2.59A7.64,7.64,0,0,0,583.71,459.09Z"/><path d="M635.35,464.13a16.76,16.76,0,0,1-8-1.84,12.38,12.38,0,0,1-5.32-5.63,25.2,25.2,0,0,1,.13-19.46,13,13,0,0,1,5.6-5.69,17.65,17.65,0,0,1,8.2-1.84,22.81,22.81,0,0,1,5.08.54,16.82,16.82,0,0,1,4,1.36l-1.81,4.92a31.08,31.08,0,0,0-3.64-1.18,14.54,14.54,0,0,0-3.69-.51,9.29,9.29,0,0,0-5.3,1.4,8.53,8.53,0,0,0-3.16,4.12,18.66,18.66,0,0,0-1,6.7,18.19,18.19,0,0,0,1,6.54,8.45,8.45,0,0,0,3.08,4.06,8.87,8.87,0,0,0,5.09,1.38,17.81,17.81,0,0,0,4.82-.6,21.17,21.17,0,0,0,4-1.54v5.34a14.61,14.61,0,0,1-3.86,1.45A23.41,23.41,0,0,1,635.35,464.13Z"/><path d="M681.2,446.84a22.92,22.92,0,0,1-1.07,7.32,14.79,14.79,0,0,1-3.11,5.43,13.34,13.34,0,0,1-4.9,3.38,17.06,17.06,0,0,1-6.49,1.16,16,16,0,0,1-6.2-1.16,13.52,13.52,0,0,1-4.88-3.38,15.33,15.33,0,0,1-3.17-5.43,22.33,22.33,0,0,1-1.12-7.32,21.23,21.23,0,0,1,1.87-9.31,13.28,13.28,0,0,1,5.36-5.86,16.4,16.4,0,0,1,8.32-2,15.71,15.71,0,0,1,8.06,2,13.8,13.8,0,0,1,5.4,5.85A20.48,20.48,0,0,1,681.2,446.84Zm-24.72,0a19.81,19.81,0,0,0,1,6.59,8.66,8.66,0,0,0,3,4.25,10.09,10.09,0,0,0,10.49,0,8.54,8.54,0,0,0,3-4.25,20.08,20.08,0,0,0,1-6.59,19.6,19.6,0,0,0-1-6.52,8.45,8.45,0,0,0-3-4.17,8.94,8.94,0,0,0-5.29-1.44q-4.77,0-7,3.18C657.22,440,656.48,443,656.48,446.84Z"/><path d="M715.76,463.53h-6.13V435.16H700q-.62,7.72-1.51,13.2a45.11,45.11,0,0,1-2.28,8.94,12.39,12.39,0,0,1-3.34,5.07,7.19,7.19,0,0,1-4.73,1.61,12.43,12.43,0,0,1-1.88-.13,6.47,6.47,0,0,1-1.51-.41v-4.71a4.47,4.47,0,0,0,1,.26,7.49,7.49,0,0,0,1.09.07,3.17,3.17,0,0,0,2.27-1,9.09,9.09,0,0,0,1.91-3.17,35,35,0,0,0,1.57-5.54q.71-3.37,1.25-8.13t1-10.94h21Z"/><path d="M353.12,546H325.55V522.89h3.24v20.3h8.91v-20.3h3.24v20.3h8.92v-20.3h3.26Z"/><path d="M356.28,528.58h3.44l3.7,10c.19.52.37,1,.53,1.51s.3,1,.43,1.42.21.91.29,1.36h.11c.13-.54.3-1.19.54-2s.48-1.55.76-2.35l3.54-10H373l-7.53,19.91a11.6,11.6,0,0,1-1.5,2.85,6.16,6.16,0,0,1-2.08,1.84,6.05,6.05,0,0,1-2.85.64,8.69,8.69,0,0,1-1.33-.09,7.79,7.79,0,0,1-1-.2V551c.23,0,.51.1.84.14a7.08,7.08,0,0,0,1,.07,3.55,3.55,0,0,0,1.72-.39,3.68,3.68,0,0,0,1.23-1.1,6.83,6.83,0,0,0,.86-1.66l.79-2.06Z"/><path d="M395,528.58V546h-2.89V535.37c0-.56,0-1.12,0-1.68s.06-1.12.1-1.66h-.1l-5.53,14h-2.58l-5.46-14h-.09c0,.53.07,1.09.09,1.65s0,1.17,0,1.81V546h-2.91V528.58h4.35l5.3,13.64,5.38-13.64Z"/><path d="M415.64,537.27a12.31,12.31,0,0,1-.56,3.84,7.84,7.84,0,0,1-1.63,2.84,6.89,6.89,0,0,1-2.57,1.77,8.92,8.92,0,0,1-3.4.61,8.41,8.41,0,0,1-3.26-.61,7.06,7.06,0,0,1-2.55-1.77,7.89,7.89,0,0,1-1.66-2.84,11.73,11.73,0,0,1-.59-3.84,11.11,11.11,0,0,1,1-4.88,6.93,6.93,0,0,1,2.81-3.07,8.61,8.61,0,0,1,4.36-1.05,8.19,8.19,0,0,1,4.22,1.06,7.17,7.17,0,0,1,2.84,3.07A10.79,10.79,0,0,1,415.64,537.27Zm-13,0a10.2,10.2,0,0,0,.52,3.46,4.55,4.55,0,0,0,8.66,0,10.49,10.49,0,0,0,.5-3.46,10.2,10.2,0,0,0-.5-3.42,4.37,4.37,0,0,0-1.58-2.18,4.63,4.63,0,0,0-2.77-.76,4.14,4.14,0,0,0-3.66,1.67A8.07,8.07,0,0,0,402.68,537.27Z"/><path d="M441.82,528.22a5.65,5.65,0,0,1-.62,2.71,5.14,5.14,0,0,1-1.71,1.88,7.17,7.17,0,0,1-2.53,1V534a6.9,6.9,0,0,1,4.16,1.75,5.06,5.06,0,0,1,1.4,3.72,6.82,6.82,0,0,1-.95,3.58,6.38,6.38,0,0,1-2.92,2.45,12.45,12.45,0,0,1-5.06.88,18.48,18.48,0,0,1-3.43-.3,12.67,12.67,0,0,1-3-1v-2.9a13.52,13.52,0,0,0,3.11,1.13,13.75,13.75,0,0,0,3.23.41,6.49,6.49,0,0,0,4.34-1.17,4.1,4.1,0,0,0,1.32-3.23,3.38,3.38,0,0,0-.71-2.22,4.17,4.17,0,0,0-2.11-1.28,12.75,12.75,0,0,0-3.49-.41h-2.17v-2.62h2.2a8.33,8.33,0,0,0,3.2-.52,3.71,3.71,0,0,0,2.5-3.63,3.11,3.11,0,0,0-1.07-2.52,4.54,4.54,0,0,0-3-.9,8.34,8.34,0,0,0-2.2.27,9.47,9.47,0,0,0-1.83.68,16,16,0,0,0-1.64,1l-1.56-2.2a12.49,12.49,0,0,1,3.11-1.68,11.74,11.74,0,0,1,4.18-.69,8.19,8.19,0,0,1,5.41,1.56A5.13,5.13,0,0,1,441.82,528.22Z"/><path d="M453.53,522.56a9.64,9.64,0,0,1,3.58.63,5.6,5.6,0,0,1,2.5,1.86,5.47,5.47,0,0,1,.32,5.49,6.18,6.18,0,0,1-1.6,1.83,12.86,12.86,0,0,1-2.24,1.4,15.89,15.89,0,0,1,2.59,1.52,6.85,6.85,0,0,1,1.87,2,5.24,5.24,0,0,1,.7,2.74,5.81,5.81,0,0,1-1,3.34,6.14,6.14,0,0,1-2.68,2.19,9.91,9.91,0,0,1-4,.76,10.92,10.92,0,0,1-4.24-.73,5.77,5.77,0,0,1-2.65-2.12,6,6,0,0,1-.9-3.33,5.6,5.6,0,0,1,.66-2.78,6.66,6.66,0,0,1,1.76-2,11.92,11.92,0,0,1,2.38-1.45,11.66,11.66,0,0,1-2-1.44,6.3,6.3,0,0,1-1.48-1.89,5.55,5.55,0,0,1-.54-2.51,4.89,4.89,0,0,1,.92-3A5.84,5.84,0,0,1,450,523.2,9.41,9.41,0,0,1,453.53,522.56Zm-4.69,17.52a3.5,3.5,0,0,0,1.17,2.71,5,5,0,0,0,3.5,1.06A5.13,5.13,0,0,0,457,542.8a3.53,3.53,0,0,0,1.21-2.78,3.2,3.2,0,0,0-.58-1.91,5.74,5.74,0,0,0-1.6-1.48,13.92,13.92,0,0,0-2.35-1.2l-.53-.2a11.47,11.47,0,0,0-2.3,1.26,5.23,5.23,0,0,0-1.46,1.56A4,4,0,0,0,448.84,540.08Zm4.66-15a4.5,4.5,0,0,0-2.8.83,2.77,2.77,0,0,0-1.08,2.35,3.25,3.25,0,0,0,.53,1.88,4.83,4.83,0,0,0,1.43,1.33,14.24,14.24,0,0,0,2,1,13.43,13.43,0,0,0,1.93-1,4.49,4.49,0,0,0,1.36-1.35,3.32,3.32,0,0,0,.5-1.86,2.77,2.77,0,0,0-1.08-2.36A4.52,4.52,0,0,0,453.5,525.07Z"/><path d="M464,538.69v-2.75h8v2.75Z"/><path d="M482.94,546.33a8.81,8.81,0,0,1-4.21-1,6.5,6.5,0,0,1-2.79-3,11.25,11.25,0,0,1-1-5,11.11,11.11,0,0,1,1.06-5.19,6.81,6.81,0,0,1,2.93-3,9.29,9.29,0,0,1,4.3-1,11.86,11.86,0,0,1,2.66.28,9.32,9.32,0,0,1,2.08.71l-1,2.58a17.67,17.67,0,0,0-1.9-.61,7.61,7.61,0,0,0-1.94-.27,4.92,4.92,0,0,0-2.78.73,4.46,4.46,0,0,0-1.65,2.16,9.72,9.72,0,0,0-.55,3.51,9.57,9.57,0,0,0,.54,3.43,4.48,4.48,0,0,0,1.62,2.13,4.65,4.65,0,0,0,2.66.72,9.38,9.38,0,0,0,2.53-.31,10.62,10.62,0,0,0,2.07-.81v2.8a7.61,7.61,0,0,1-2,.76A12.12,12.12,0,0,1,482.94,546.33Z"/><path d="M507,537.27a12,12,0,0,1-.57,3.84,7.56,7.56,0,0,1-1.63,2.84,6.81,6.81,0,0,1-2.57,1.77,8.88,8.88,0,0,1-3.4.61,8.4,8.4,0,0,1-3.25-.61A7,7,0,0,1,493,544a7.89,7.89,0,0,1-1.66-2.84,11.73,11.73,0,0,1-.59-3.84,11.11,11.11,0,0,1,1-4.88,6.93,6.93,0,0,1,2.81-3.07,8.61,8.61,0,0,1,4.36-1.05,8.19,8.19,0,0,1,4.22,1.06A7.15,7.15,0,0,1,506,532.4,10.65,10.65,0,0,1,507,537.27Zm-13,0a10.47,10.47,0,0,0,.51,3.46A4.83,4.83,0,0,0,501.6,543a4.42,4.42,0,0,0,1.58-2.22,10.47,10.47,0,0,0,.51-3.46,10.18,10.18,0,0,0-.51-3.42,4.35,4.35,0,0,0-1.57-2.18,4.66,4.66,0,0,0-2.78-.76,4.17,4.17,0,0,0-3.66,1.67A8.15,8.15,0,0,0,494,537.27Z"/><path d="M525.08,546h-3.21V531.15h-5.06c-.22,2.7-.48,5-.8,6.92a22.89,22.89,0,0,1-1.19,4.68,6.45,6.45,0,0,1-1.75,2.66,3.78,3.78,0,0,1-2.48.84,6,6,0,0,1-1-.07,2.75,2.75,0,0,1-.79-.21V543.5a1.94,1.94,0,0,0,.5.14,5.1,5.1,0,0,0,.57,0,1.73,1.73,0,0,0,1.2-.53,4.93,4.93,0,0,0,1-1.66,18.55,18.55,0,0,0,.83-2.91c.24-1.18.46-2.6.65-4.26s.36-3.57.51-5.74h11Z"/><path d="M537.17,528.28a7,7,0,0,1,4.82,1.44,5.75,5.75,0,0,1,1.6,4.51V546h-2.28l-.62-2.53h-.12a9.2,9.2,0,0,1-1.52,1.58,5.5,5.5,0,0,1-1.83.95,8.76,8.76,0,0,1-2.52.31,6.64,6.64,0,0,1-2.82-.57,4.41,4.41,0,0,1-1.94-1.71,5.51,5.51,0,0,1-.7-2.92,4.54,4.54,0,0,1,2-4,11.86,11.86,0,0,1,6.19-1.51l3-.12v-1a3.78,3.78,0,0,0-.91-2.88,3.59,3.59,0,0,0-2.54-.84,8.58,8.58,0,0,0-2.58.39,17.36,17.36,0,0,0-2.37.92l-1-2.31a14.84,14.84,0,0,1,2.81-1.06A12.76,12.76,0,0,1,537.17,528.28Zm3.27,9.27-2.44.12a7.89,7.89,0,0,0-4.24,1,2.91,2.91,0,0,0-1.23,2.49,2.41,2.41,0,0,0,.84,2,3.54,3.54,0,0,0,2.21.65,5.13,5.13,0,0,0,3.49-1.19,4.47,4.47,0,0,0,1.37-3.54Z"/><path d="M576.6,528.58V546h-2.89V535.37c0-.56,0-1.12,0-1.68s.06-1.12.1-1.66h-.09l-5.54,14h-2.58l-5.46-14h-.09c0,.53.07,1.09.09,1.65s0,1.17,0,1.81V546H557.3V528.58h4.35l5.3,13.64,5.38-13.64Z"/><path d="M588.8,528.27a7.49,7.49,0,0,1,3.91,1,6.42,6.42,0,0,1,2.5,2.75,9.35,9.35,0,0,1,.87,4.17V538H584.24a6.27,6.27,0,0,0,1.44,4.29,5.07,5.07,0,0,0,3.91,1.5,12.6,12.6,0,0,0,3-.32,16.26,16.26,0,0,0,2.69-.93v2.67a12.79,12.79,0,0,1-2.64.88,15.93,15.93,0,0,1-3.15.27,9.26,9.26,0,0,1-4.44-1,7,7,0,0,1-3-3,10.34,10.34,0,0,1-1-4.89,11.56,11.56,0,0,1,1-4.93,7.17,7.17,0,0,1,2.72-3.14A7.65,7.65,0,0,1,588.8,528.27Zm0,2.47a4.07,4.07,0,0,0-3.1,1.25,5.85,5.85,0,0,0-1.37,3.6h8.57a6.8,6.8,0,0,0-.46-2.53,3.69,3.69,0,0,0-1.33-1.71A4,4,0,0,0,588.78,530.74Z"/><path d="M624.43,528.58V546h-24V528.58h3.18v14.86h7.24V528.58H614v14.86h7.25V528.58Z"/><path d="M636.54,528.28a7,7,0,0,1,4.83,1.44,5.78,5.78,0,0,1,1.6,4.51V546h-2.28l-.62-2.53H640a9.59,9.59,0,0,1-1.52,1.58,5.5,5.5,0,0,1-1.83.95,8.76,8.76,0,0,1-2.52.31,6.64,6.64,0,0,1-2.82-.57,4.41,4.41,0,0,1-1.94-1.71,5.51,5.51,0,0,1-.7-2.92,4.54,4.54,0,0,1,2-4,11.85,11.85,0,0,1,6.18-1.51l3-.12v-1a3.78,3.78,0,0,0-.91-2.88,3.6,3.6,0,0,0-2.54-.84,8.53,8.53,0,0,0-2.58.39,17.36,17.36,0,0,0-2.37.92l-1-2.31a14.84,14.84,0,0,1,2.81-1.06A12.62,12.62,0,0,1,636.54,528.28Zm3.28,9.27-2.44.12a8,8,0,0,0-4.25,1,2.93,2.93,0,0,0-1.22,2.49,2.41,2.41,0,0,0,.84,2,3.52,3.52,0,0,0,2.21.65,5.13,5.13,0,0,0,3.49-1.19,4.47,4.47,0,0,0,1.37-3.54Z"/><path d="M662.52,533a3.41,3.41,0,0,1-.93,2.52,4.73,4.73,0,0,1-2.5,1.23v.13a5.52,5.52,0,0,1,2.85,1.19,3.45,3.45,0,0,1,1.16,2.81,4.54,4.54,0,0,1-3,4.47,10.71,10.71,0,0,1-4.1.66h-7.7V528.58h7.65a12.45,12.45,0,0,1,3.41.43,4.88,4.88,0,0,1,2.34,1.39A3.87,3.87,0,0,1,662.52,533Zm-3.23.32a1.88,1.88,0,0,0-.84-1.68,4.89,4.89,0,0,0-2.69-.57h-4.3v4.62h3.81a6.3,6.3,0,0,0,3-.57A2,2,0,0,0,659.29,533.33Zm.51,7.5a2.16,2.16,0,0,0-1.08-2,6.29,6.29,0,0,0-3.13-.63h-4.13v5.41h4.19a6.13,6.13,0,0,0,3.06-.63A2.25,2.25,0,0,0,659.8,540.83Z"/><path d="M674.15,528.27a7.43,7.43,0,0,1,3.9,1,6.35,6.35,0,0,1,2.5,2.75,9.35,9.35,0,0,1,.87,4.17V538H669.59a6.23,6.23,0,0,0,1.44,4.29,5.07,5.07,0,0,0,3.91,1.5,12.66,12.66,0,0,0,3-.32,15.86,15.86,0,0,0,2.68-.93v2.67a12.71,12.71,0,0,1-2.63.88,16,16,0,0,1-3.16.27,9.25,9.25,0,0,1-4.43-1,7,7,0,0,1-3-3,10.22,10.22,0,0,1-1.06-4.89,11.41,11.41,0,0,1,1-4.93,7.17,7.17,0,0,1,2.72-3.14A7.62,7.62,0,0,1,674.15,528.27Zm0,2.47A4.05,4.05,0,0,0,671,532a5.91,5.91,0,0,0-1.38,3.6h8.58a7,7,0,0,0-.46-2.53,3.71,3.71,0,0,0-1.34-1.71A4,4,0,0,0,674.13,530.74Z"/><path d="M699.25,528.58v14.88h2.52v8.63h-3V546H686.58v6.07h-3v-8.63H685a20.71,20.71,0,0,0,2.34-4.4A29.38,29.38,0,0,0,688.8,534a34.83,34.83,0,0,0,.58-5.41Zm-3.11,2.49h-4a33.4,33.4,0,0,1-.67,4.46,28.89,28.89,0,0,1-1.29,4.29,18.55,18.55,0,0,1-1.87,3.64h7.82Z"/></svg>